<svg xmlns="http://www.w3.org/2000/svg" viewBox="0 0 1062.94 502.97"><defs><style>.cls-1{fill:#fcc000;}</style></defs><g id="Шар_2" data-name="Шар 2"><g id="Шар_1-2" data-name="Шар 1"><path class="cls-1" d="M87.73,403.25a11.55,11.55,0,0,0-1.88-.29q-9.88.19-19.78.43c-.36,0-.71.07-1.07.08l-33.45,1c-1.42.05-2.87-.22-4.4.35-1.23,3.09-2.52,6.17-3.69,9.3-3.27,8.76-6.45,17.55-9.75,26.3a84.83,84.83,0,0,1-3.64,8.22,12.32,12.32,0,0,1-2.67,3.32,2.9,2.9,0,0,1-3.67.15,3,3,0,0,1-1-3.83c2.12-4.32,3.41-8.94,5-13.46q4.5-12.72,9-25.42a14.59,14.59,0,0,0,1.32-4.63,14.47,14.47,0,0,0-2.08-.5c-2.27-.19-4.54-.27-6.81-.47a10.49,10.49,0,0,1-2.79-.57,3.43,3.43,0,0,1-2.37-3.27,3.52,3.52,0,0,1,3-3.12,16.12,16.12,0,0,1,2.51-.15h8.28c.95,0,1.89-.09,3-.15.48-1.29.95-2.5,1.37-3.74,2.71-7.94,5.35-15.91,8.13-23.83,2.27-6.44,4.69-12.83,7.1-19.23a24.25,24.25,0,0,1,1.88-3.87,2.5,2.5,0,0,1,2.75-1.28,3,3,0,0,1,2.13,2.64,6.6,6.6,0,0,1-.22,2.12c-1.12,4.17-2.23,8.33-3.45,12.47-2,6.9-4.09,13.79-6.17,20.68-1.07,3.55-2.21,7.09-3.29,10.65-.31,1-.54,2-.87,3.29a17.16,17.16,0,0,0,2.19.38c1.55.06,3.11.06,4.67.05,9.84-.07,19.69.13,29.51-.32,7.44-.33,14.87-.42,22.3-.45a13.77,13.77,0,0,0,1.57-.19c.39-.85.84-1.68,1.16-2.56,1.91-5.29,3.83-10.59,5.67-15.91,3.21-9.34,7.7-18.09,12.26-26.81a39,39,0,0,1,3.7-5.29,6.57,6.57,0,0,1,1.88-1.64,3,3,0,0,1,3.09,0,2.54,2.54,0,0,1,1.2,2.8,9.9,9.9,0,0,1-1,3c-1.74,3.28-3.63,6.48-5.39,9.76-1.18,2.21-2.3,4.47-3.32,6.76a196.8,196.8,0,0,0-7.53,19.45c-1,3-1.81,6-2.69,8.95a5.67,5.67,0,0,0,0,1.26,7.87,7.87,0,0,0,1.64.3c3-.11,6-.17,9-.44,4.22-.39,8.38.24,12.55.6a5.07,5.07,0,0,1,2.27,1,2.06,2.06,0,0,1-.09,3.38,7.34,7.34,0,0,1-2.65,1,44.06,44.06,0,0,1-5,.48c-6.23.32-12.46.6-18.68.91a5.7,5.7,0,0,0-1.14.3,11.81,11.81,0,0,0-.74,1.56q-3.42,11.35-6.81,22.73c-2.09,7-4.15,14-6.24,21a10.76,10.76,0,0,1-1,2.33,3.43,3.43,0,0,1-4.26,1.76,3.37,3.37,0,0,1-1.8-3.92c.37-2.25.77-4.5,1.29-6.71,1.58-6.65,3.16-13.29,4.85-19.91,1.42-5.58,3-11.11,4.5-16.66C87.43,404.77,87.55,404.08,87.73,403.25Z"/><path class="cls-1" d="M781.45,443.36c-.39.1-.54.09-.6.16-2.79,3.24-6.47,4.86-10.5,5.84-2,.48-4,.9-6,1.34a12.09,12.09,0,0,1-11.57-3.37c-2.57-2.5-2.67-2-5.4-1.88-1.43.05-2.87,0-4.31,0a5.49,5.49,0,0,1-1.75-.34,2.43,2.43,0,0,1-.66-4.31,9.17,9.17,0,0,1,2.93-1.28,22.5,22.5,0,0,1,3.19-.47,2.74,2.74,0,0,0,2.51-2.2c1.32-5.07,4.44-9,8.2-12.42a17.51,17.51,0,0,1,13.91-4.6,12.17,12.17,0,0,1,3.14.74,4.91,4.91,0,0,1,3.11,6.07,10.08,10.08,0,0,1-2.41,4.77c-2.49,2.58-5,5.13-7.77,7.46a19.29,19.29,0,0,1-7.65,3.85,20.4,20.4,0,0,0-2.38,1,3.93,3.93,0,0,0,4.17,1c2.3-.67,4.56-1.45,6.81-2.28s4.47-1.73,6.68-2.65c2-.84,3.92-1,5.75.63a25,25,0,0,1,1-2.83,2.61,2.61,0,0,1,4.44-.74,11.75,11.75,0,0,1,1.57,2.39c.64,1.15,1.2,2.34,1.78,3.53a10.91,10.91,0,0,0,6.42,5.42,4.33,4.33,0,0,0,1.74.35,12.36,12.36,0,0,0,7.94-3.72,2,2,0,0,0,.31-2.34,4.4,4.4,0,0,0-2.89-2.52c-1.94-.6-3.91-1.14-5.89-1.58a21.07,21.07,0,0,1-7-2.76,14.57,14.57,0,0,1-3-2.5,6.85,6.85,0,0,1,1-10.17,10.54,10.54,0,0,1,4.86-2.22c6.69-1,12.65.42,17.31,5.67a7.61,7.61,0,0,1,1.42,2.43,1.74,1.74,0,0,1-1.62,2.28,10.78,10.78,0,0,1-3.48-.6,15.32,15.32,0,0,1-3.09-1.81A19.37,19.37,0,0,0,795,425.5a4,4,0,0,0-3.64,1.05,2.09,2.09,0,0,0,0,3.18,14.22,14.22,0,0,0,2.29,1.71,26,26,0,0,0,6.64,2.7c2.18.62,4.36,1.3,6.49,2.09a7.64,7.64,0,0,1,4.76,5.06c1,3.09.62,5.93-1.72,8.33a20,20,0,0,1-11.76,5.67,4.69,4.69,0,0,1-1.79-.07c-6.44-1.57-11.93-4.4-14.39-11.13A5.18,5.18,0,0,0,781.45,443.36Zm-11-17.54a8.77,8.77,0,0,0-7.08.62,20.57,20.57,0,0,0-8.57,9.22c0,.08,0,.22.11.53,3,0,5.34-1.62,7.66-3.17C765.43,431.09,768.62,429.43,770.42,425.82Z"/><path class="cls-1" d="M731,444.12a9.91,9.91,0,0,0-1.59.69c-1.74,1.28-3.42,2.64-5.18,3.89a30.51,30.51,0,0,1-3.66,2.26c-2.48,1.28-4.86,1.57-6.44-1a33.56,33.56,0,0,1-5.2-.79c-3.36-1.08-4.75-3.23-4.77-6.77a11.87,11.87,0,0,1,1.25-5.55,29.23,29.23,0,0,1,11.42-12.62c.93-.54,1.84-1.14,2.78-1.66,4.68-2.59,9.48-3.23,14.45-.82a4.19,4.19,0,0,0,.91.18,7.57,7.57,0,0,0,.91-1.74c2.57-11.59,6.17-22.91,9.41-34.32,1.08-3.79,2.69-7.43,4.13-11.11a8.75,8.75,0,0,1,1.46-2.46,2.2,2.2,0,0,1,3.79.68,4.59,4.59,0,0,1,.12,2.44,48.7,48.7,0,0,1-1.9,6.55A122.47,122.47,0,0,0,749,394.35c-1.2,4.27-2.38,8.55-3.61,12.81a149.22,149.22,0,0,0-3.32,15.09c-.55,3.06-1.28,6.1-2,9.13-1.36,5.84-2.76,11.67-4.15,17.49a13,13,0,0,1-.74,2.39,2.41,2.41,0,0,1-2.63,1.47,2.2,2.2,0,0,1-1.89-1.91,12.82,12.82,0,0,1-.09-2.84C730.67,446.81,730.83,445.64,731,444.12Zm-20.85-.9a15.46,15.46,0,0,1,3.38,1.32,13.73,13.73,0,0,1,2.27,2.52,5.21,5.21,0,0,0,1.12-.44c2.37-1.8,4.78-3.57,7.08-5.46a26.55,26.55,0,0,0,7.11-9.74,4.2,4.2,0,0,0-2.83-5.6A9.12,9.12,0,0,0,721.4,427a24.69,24.69,0,0,0-9.78,9.71A9.63,9.63,0,0,0,710.14,443.22Z"/><path class="cls-1" d="M886.33,451.62a22.42,22.42,0,0,0-.78,2.27c-1.42,6.32-2.89,12.62-4.18,19-1.64,8-3.11,16-4.7,24a20,20,0,0,1-1.14,3.77,6.35,6.35,0,0,1-1.48,2,1.46,1.46,0,0,1-2.34-.67,6,6,0,0,1-.28-2.11c.53-8.37.7-16.77,2.66-25,1-4.08,1.51-8.25,2.45-12.34a120.81,120.81,0,0,1,7.88-24.23c1.22-2.61,2.48-5.2,3.8-7.75a28.82,28.82,0,0,1,7.64-9,14.24,14.24,0,0,1,5.08-2.63,6.79,6.79,0,0,1,4.23.14c3.81,1.31,7.13,6,7.08,9.56-.09,6.5-2.16,11.85-7.31,16.08A28.06,28.06,0,0,1,892.21,451C890.34,451.35,888.41,451.41,886.33,451.62Zm2.31-7.54a24.46,24.46,0,0,0,15.86-6.46,11.26,11.26,0,0,0,3.53-6.89c.53-3.06-.85-5-3.23-6.6a3.15,3.15,0,0,0-3.38-.23,16.93,16.93,0,0,0-6.18,5.36A38.71,38.71,0,0,0,890,439.42C889.43,440.85,888.46,442.17,888.64,444.08Z"/><path class="cls-1" d="M200.21,444.86c3,1.74,5.47,2.48,8.19,1.69,2.19-.63,4.35-1.37,6.55-1.95a38.52,38.52,0,0,1,5.6-1.2c1.76-.2,2.82.52,3.2,1.71a3.05,3.05,0,0,1-1,3.57c-4.3,3.18-9,5.61-14.44,5.88a16.54,16.54,0,0,1-4.23-.73,23.46,23.46,0,0,1-2.71-.94c-4.44-1.66-5.39-2.42-8.06-6.56-1.15,0-2.45,0-3.75-.08a9.65,9.65,0,0,1-2.46-.39,3.25,3.25,0,0,1-2.26-3.32,3.15,3.15,0,0,1,2.65-2.61c.92-.24,1.88-.34,2.82-.53.58-.11,1.14-.27,1.76-.42,1.59-7.89,6.79-12.88,13.22-16.75a20.59,20.59,0,0,1,14.91-2.49,5.81,5.81,0,0,1,4.6,7.28c-.91,3.84-3.36,6.61-6.37,8.88a35.75,35.75,0,0,1-5.82,3.57c-3,1.46-6.15,2.68-9.23,4C202.51,443.83,201.68,444.21,200.21,444.86ZM218,426.41a18.27,18.27,0,0,0-11.92,3.25c-2.66,1.79-5.33,3.53-6.58,6.82,3.1-.28,9.58-2.88,13.87-5.63C215,429.79,216.9,428.89,218,426.41Z"/><path class="cls-1" d="M412.12,444.33a6.18,6.18,0,0,0,2.45-3.08c1.65-3.05,3.19-6.17,4.92-9.19a40.74,40.74,0,0,1,7.8-9.36,6.46,6.46,0,0,1,2.77-1.52,2.54,2.54,0,0,1,3.28,3,11.11,11.11,0,0,1-1.5,3.6c-1.78,3-3.7,5.89-5.54,8.84-2.21,3.56-4.35,7.17-6.59,10.72-1.16,1.82-2.41,3.58-3.73,5.29a6.89,6.89,0,0,1-2.17,1.81,3.7,3.7,0,0,1-5.37-1.92,16.26,16.26,0,0,1-.68-2c-.54-1.84-1-3.7-1.61-5.53a40.48,40.48,0,0,1-2-11.28,12.11,12.11,0,0,0-.25-1.52c-.45.36-.78.52-.94.78q-5,8.52-10,17.06a14.79,14.79,0,0,1-1.14,1.83,2.21,2.21,0,0,1-3.81-.61,9.15,9.15,0,0,1-.49-1.72c-.69-3.16-1.47-6.31-2-9.49-.6-3.54-1-7.12-1.43-10.68-.18-1.43-.27-2.87-.38-4.3a7,7,0,0,1,0-1.77,2.33,2.33,0,0,1,1.83-2,2.29,2.29,0,0,1,2.48,1,5.56,5.56,0,0,1,.7,2,20.53,20.53,0,0,1,.12,3.23,76.64,76.64,0,0,0,1.52,15.3c.86.38,1.14-.21,1.43-.7,1.92-3.32,3.79-6.67,5.76-10,1.6-2.67,3.27-5.31,5-7.88a9.36,9.36,0,0,1,2.53-2.49,2.8,2.8,0,0,1,4.38,1.46,12.67,12.67,0,0,1,.6,2.81,23.23,23.23,0,0,1,.18,3.23C410.1,434.29,411.07,439.09,412.12,444.33Z"/><path class="cls-1" d="M553.51,450.19c-3.81-3.78-5-8.68-5.86-13.67-.58-3.18-1.12-6.37-1.56-9.58a12.11,12.11,0,0,1,.78-6.35,2.7,2.7,0,0,1,5.29.73,1.45,1.45,0,0,1,0,.36c-.17,4.74,1.12,9.26,2.25,13.79.76,3,1.64,6,3.56,8.46,1,.22,1.35-.54,1.73-1.08,3.32-4.69,6.82-9.26,9.27-14.54a40,40,0,0,1,3.43-5.47,2.11,2.11,0,0,1,2.5-.92,2.33,2.33,0,0,1,1.5,2.25,4.85,4.85,0,0,1-.23,1.76,14.71,14.71,0,0,1-.94,2.71c-3.27,6.27-6.48,12.58-11.1,18-3.41,4-6.74,8.12-10.17,12.12-1.41,1.63-3,3.13-4.53,4.63-2.41,2.33-5,4.5-7.31,6.93-4.82,5-10.07,9.58-15.36,14.1-1.45,1.25-2.79,2.65-4.27,3.86a22.8,22.8,0,0,1-3.57,2.37,2,2,0,0,1-2.58-.66,2.23,2.23,0,0,1,.14-2.67,5,5,0,0,1,.7-.82c2.3-2.1,4.63-4.18,6.92-6.29q4.62-4.28,9.2-8.59c3.31-3.12,6.53-6.34,9.9-9.4a97.46,97.46,0,0,0,9.47-10.34A8.13,8.13,0,0,0,553.51,450.19Z"/><path class="cls-1" d="M485.56,420a31.76,31.76,0,0,1,7.41-1.26c4.64-.29,8.27,2.58,8.77,7.18a59.54,59.54,0,0,1-.69,19.3,49.9,49.9,0,0,1-2.73,7.78,8,8,0,0,1-1.86,2.59,2.07,2.07,0,0,1-3.46-.93,5.41,5.41,0,0,1-.17-2.12c.63-5.83,1.3-11.66,2-17.49.21-1.9.49-3.8.65-5.71a9.14,9.14,0,0,0-.17-2.5,2.73,2.73,0,0,0-2.52-2.2,11.32,11.32,0,0,0-9.4,3.6,5.59,5.59,0,0,0-1.1,2.58c-1.44,5.56-2.81,11.14-4.25,16.71-.38,1.51-.87,3-1.38,4.46a5.48,5.48,0,0,1-.84,1.56,1.63,1.63,0,0,1-2.7-.33,4,4,0,0,1-.17-2.8c.7-3.4,1.28-6.83,2-10.22,1.27-5.6,2.72-11.17,4-16.78s2.3-11.51,3.6-17.23c1.16-5.14,2.4-10.28,4.88-15a20.32,20.32,0,0,1,1.68-2.74,1.85,1.85,0,0,1,2.24-.64,1.91,1.91,0,0,1,1.09,2.09,29.88,29.88,0,0,1-.8,3.49c-1.73,6.23-3.55,12.44-5.2,18.69-.64,2.42-.91,4.93-1.35,7.4,0,.27,0,.54-.05.81Z"/><path class="cls-1" d="M155.44,448.43a24.28,24.28,0,0,1,2,2.1,2.53,2.53,0,0,1-1.54,4.16,7.18,7.18,0,0,1-8.18-4.82,14.3,14.3,0,0,1-.24-1.63c-.82-.71-1.47-.23-2.11,0-1.94.63-3.83,1.4-5.79,1.92a14,14,0,0,1-10.46-1.29,8.74,8.74,0,0,1-4.65-10.24A24.78,24.78,0,0,1,136,422.77a37.68,37.68,0,0,1,5.81-2.85,14.05,14.05,0,0,1,9.51-.29c4.52,1.32,6.68,4.55,7,9a27.06,27.06,0,0,1-1.47,11A25.72,25.72,0,0,0,155.44,448.43ZM149.64,431c.07-2.84-.68-3.83-3.15-4.35a7.58,7.58,0,0,0-2.47-.07c-5.4.61-9.63,3.36-13,7.45a12.12,12.12,0,0,0-3,7.17,2.91,2.91,0,0,0,1.58,3,10.35,10.35,0,0,0,1.62.76c4.12,1.31,7.74.2,11-2.36,1.6-1.24,3.14-2.56,4.81-3.7a3.47,3.47,0,0,0,1.62-2.23C149.08,434.6,149.37,432.59,149.64,431Z"/><path class="cls-1" d="M333.69,441.78c.79-2.36,1.35-4.19,2-6,1.61-4.38,3.23-8.76,4.92-13.12a11.35,11.35,0,0,1,1.65-2.75,2.22,2.22,0,0,1,2.6-.67,2.08,2.08,0,0,1,1.41,1.92,31.92,31.92,0,0,1-.35,5.71,57.73,57.73,0,0,1-1.89,6.93c-1.82,5.71-3.71,11.39-5.59,17.07a12.9,12.9,0,0,1-1.08,2.66,3.39,3.39,0,0,1-5.72.61,11.94,11.94,0,0,1-2-3.36c-1.45-3.54-2.75-7.15-4.14-10.72a22.45,22.45,0,0,0-2.12-4.85,6.2,6.2,0,0,0-.81,1.25c-1.06,3.68-2,7.39-3.15,11.06a23.29,23.29,0,0,1-1.7,3.95,4.73,4.73,0,0,1-1.42,1.57,2,2,0,0,1-3-.92,4.43,4.43,0,0,1-.28-2.09,50,50,0,0,1,1.26-6.69c1.7-5.87,3.55-11.69,5.38-17.52a16.05,16.05,0,0,1,1.35-3.32c1.24-2.11,3.69-2,4.81.21.21.43.36.89.53,1.34q3.13,8.22,6.29,16.44A8.08,8.08,0,0,0,333.69,441.78Z"/><path class="cls-1" d="M587.15,452.9c-1.54-.21-3.09-.33-4.6-.65a7.15,7.15,0,0,1-5.1-4.19,19.57,19.57,0,0,1,.11-17.34,7.32,7.32,0,0,1,1.79-2.21,2.6,2.6,0,0,1,3.32-.25,2.58,2.58,0,0,1,1.14,2.81c-.13.7-.42,1.37-.6,2.06-.44,1.62-.94,3.23-1.27,4.87a11,11,0,0,0,.39,6,2.4,2.4,0,0,0,2.09,1.7A11.35,11.35,0,0,0,593,444a31,31,0,0,0,8.77-9.37,3.8,3.8,0,0,0,.54-3.41c-.82-2.48-2.34-3.58-4.9-3a9.46,9.46,0,0,0-3.49,1.7,22.65,22.65,0,0,0-5.44,5.69,9.79,9.79,0,0,1-1.36,1.65,1.22,1.22,0,0,1-2-.73,3.14,3.14,0,0,1-.11-1.05c.93-5.35,3.34-9.73,8.33-12.31a11.08,11.08,0,0,1,16.12,7.3,12.13,12.13,0,0,1-2,9.26,33.36,33.36,0,0,1-11.41,10.75A17.41,17.41,0,0,1,587.15,452.9Z"/><path class="cls-1" d="M1031.86,442.21c-1.37-.61-2.55-1.17-3.75-1.65-2.89-1.17-5.8-2.28-8.68-3.45a13.56,13.56,0,0,1-4.42-3c-3.59-3.58-2.47-11.58,3.58-13.07,4.89-1.2,9.77-1.3,14.25,1.47a20.83,20.83,0,0,1,3.79,3.25,2.3,2.3,0,0,1,.37,3,2.47,2.47,0,0,1-2.85,1,14.35,14.35,0,0,1-2.68-1c-1.76-.75-3.47-1.66-5.28-2.26a18.66,18.66,0,0,0-4.23-.66,5,5,0,0,0-2.1.39,2.54,2.54,0,0,0-1,4.12,11,11,0,0,0,2.54,1.95,28.42,28.42,0,0,0,9.47,3.26,15.42,15.42,0,0,1,5.68,2.11c2.66,1.66,3.41,3.86,2.37,6.76a13.88,13.88,0,0,1-5.08,6.38,14.88,14.88,0,0,1-13.57,2.7,39.23,39.23,0,0,1-4.12-1.27c-5.48-2.2-8.08-6.51-8.61-12.19a6.49,6.49,0,0,1,.69-3.09,1.73,1.73,0,0,1,3.16-.07,15.38,15.38,0,0,1,.9,2.71,11.47,11.47,0,0,0,13.59,8.32C1028.53,447.38,1030.34,445.76,1031.86,442.21Z"/><path class="cls-1" d="M302.22,451.44c-1,.56-1.67,1-2.39,1.36a24.68,24.68,0,0,1-2.26,1.09c-6.54,2.62-13-1-13.73-8a35,35,0,0,1,.66-13.21c.55-2,.88-4,1.5-5.92a23.83,23.83,0,0,1,2-4.58c.87-1.55,2.11-2,3.24-1.49s1.69,1.68,1.28,3.34c-.81,3.25-1.61,6.51-2.54,9.73A30.91,30.91,0,0,0,288.7,444a8,8,0,0,0,.77,3.08,3.83,3.83,0,0,0,4.89,1.88,12.19,12.19,0,0,0,6.17-4.74A32.53,32.53,0,0,0,305.64,434c.93-3.59,2.24-7.08,3.43-10.6a19.63,19.63,0,0,1,1.17-2.61,2.09,2.09,0,0,1,3.94.77,15.15,15.15,0,0,1-.05,3.56c-.34,2.61-.8,5.2-1.2,7.81-.89,5.79-1.76,11.59-2.68,17.39a35.59,35.59,0,0,1-1,4.56,7.42,7.42,0,0,1-1.3,2.53,2.77,2.77,0,0,1-4.75-.53,12.69,12.69,0,0,1-.77-3.1C302.32,453.13,302.31,452.45,302.22,451.44Z"/><path class="cls-1" d="M629.71,450.8c-2.48.52-4.8,1-7.14,1.49a16,16,0,0,1-6.77-.49,6.53,6.53,0,0,1-4.86-4.41,15.58,15.58,0,0,1-.86-4.56,36.65,36.65,0,0,1,4.08-17,14.91,14.91,0,0,1,2.67-3.34,2.84,2.84,0,0,1,1.61-.65,1.69,1.69,0,0,1,1.88,2,22.86,22.86,0,0,1-.91,3.1,50.08,50.08,0,0,0-2.78,10.4,44.29,44.29,0,0,0-.3,6.09c0,1.82.87,2.57,2.66,2.78a13.16,13.16,0,0,0,6-.73,7.25,7.25,0,0,0,4.38-4.49c.54-1.46,1-2.95,1.48-4.43,1.23-3.89,2.42-7.78,3.67-11.66a9.24,9.24,0,0,1,1.05-2.28,3.12,3.12,0,0,1,5.77,1.49,8.06,8.06,0,0,1-.09,2.14c-1.25,6.36-2.1,12.77-2.9,19.2a35.21,35.21,0,0,1-1.61,6.25c-.49,1.52-1.34,2.94-3.18,3s-2.76-1.18-3.31-2.78A12,12,0,0,0,629.71,450.8Z"/><path class="cls-1" d="M957.31,430.4a17.41,17.41,0,0,1,6.71-7.16,22.17,22.17,0,0,1,8.5-2.7,6.38,6.38,0,0,1,6.76,3.75,14,14,0,0,1,1.07,9.47,24.25,24.25,0,0,1-23.83,19.11,6.81,6.81,0,0,1-6.55-4.16,15.85,15.85,0,0,1-1.54-6.24A24.79,24.79,0,0,1,951,430.29a9,9,0,0,1,1.94-2.54,2,2,0,0,1,3.15.34A19.13,19.13,0,0,1,957.31,430.4ZM955.14,435c-.37,1.26-.61,1.94-.76,2.64a14.93,14.93,0,0,0,.37,8.48,2.09,2.09,0,0,0,2.47,1.57c.47,0,.93-.21,1.4-.29,5.27-.82,9.16-3.87,12.58-7.72a14.28,14.28,0,0,0,3.35-6.27c.56-2.32.91-4.68-.2-7.2a11,11,0,0,0-7.72,2.13,23.18,23.18,0,0,0-6.86,7.25c-.38.6-.7,1.25-1.11,1.84-.55.77-1.1,1.72-2.25,1.37-.94-.29-1.06-1.2-1.09-2.07C955.31,436.33,955.25,436,955.14,435Z"/><path class="cls-1" d="M281.21,419.55c.65.31,1.16.57,1.68.81a11.3,11.3,0,0,1,1.91.94,1.89,1.89,0,0,1,.07,3.08,5.63,5.63,0,0,1-1.9.94c-1.13.34-2.3.53-3.51.8a12.88,12.88,0,0,0-.72,2.11c-.83,5.2-1.59,10.41-2.41,15.61-.32,2-.66,4-1.13,6a12.13,12.13,0,0,1-1.19,3,2.15,2.15,0,0,1-2.38,1.24,2.07,2.07,0,0,1-1.65-1.7,11.59,11.59,0,0,1-.41-2.47,38.22,38.22,0,0,1,0-5A119,119,0,0,1,272,428.17c.11-.45.12-.93.21-1.64a19,19,0,0,0-2-.42c-1-.07-1.91,0-2.87-.07a2,2,0,0,1-1.85-1.46,1.94,1.94,0,0,1,.64-2.26,7.54,7.54,0,0,1,2.5-1.33,20.75,20.75,0,0,1,3.17-.52l2.28-.34c.43-1.13.84-2.24,1.28-3.33,1.71-4.21,3.38-8.44,5.19-12.61a17.39,17.39,0,0,1,2.44-4c3-3.76,6.93-2.89,9.46.17a8.29,8.29,0,0,1,1.73,4.65,4,4,0,0,1-1,3,1.08,1.08,0,0,1-1.8-.15,15.88,15.88,0,0,1-.73-1.63,16,16,0,0,0-.68-1.66c-1.11-1.93-2.66-2-3.8,0a19.75,19.75,0,0,0-1.73,3.55c-1,3.05-2,6.13-2.95,9.22A11.82,11.82,0,0,0,281.21,419.55Z"/><path class="cls-1" d="M173,439.39c.62-.85,1.13-1.49,1.57-2.17,2.11-3.2,4.14-6.46,6.33-9.61a26.34,26.34,0,0,1,3.37-3.72,9.27,9.27,0,0,1,2.36-1.6,2.37,2.37,0,0,1,3,.41,2.67,2.67,0,0,1,.59,3A19.79,19.79,0,0,1,189.1,428c-2.26,3.95-4.49,7.92-6.86,11.81s-4.76,7.48-7.16,11.22a10.7,10.7,0,0,1-.81,1.18c-2.21,2.59-5.44,2.21-7-.84a9.61,9.61,0,0,1-.75-2c-1.38-5.46-3.08-10.87-3.28-16.54-.12-3.34.12-6.7.33-10a3,3,0,0,1,2.36-2.85,3.1,3.1,0,0,1,3.46,2,25.08,25.08,0,0,1,1.19,4.85c.62,3.91,1.11,7.83,1.68,11.74C172.26,438.63,172.49,438.79,173,439.39Z"/><path class="cls-1" d="M813.48,443.83a30.94,30.94,0,0,1,5.41-15.13,23.64,23.64,0,0,1,7.25-7.38,13.76,13.76,0,0,1,10.69-1.75,8.07,8.07,0,0,1,5.69,4.53,12.45,12.45,0,0,1,1.28,7,2.25,2.25,0,0,1-1.66,2.12,2.31,2.31,0,0,1-2.51-1,12.7,12.7,0,0,1-1.08-1.86c-.45-.85-.81-1.74-1.27-2.57-1.22-2.21-2.66-2.81-5.07-2.14a12.85,12.85,0,0,0-5.84,4,27.2,27.2,0,0,0-5.43,8.83,17,17,0,0,0-1.06,7.06,7.53,7.53,0,0,0,.55,2.43,2.66,2.66,0,0,0,3.42,1.85c4.06-.95,7.77-2.5,10-6.32a7.93,7.93,0,0,1,.82-1.17,1.59,1.59,0,0,1,2.69.29,3.18,3.18,0,0,1,.15,2.77,12.68,12.68,0,0,1-6.5,7.36,25.19,25.19,0,0,1-6.11,2c-5.58,1.13-8.79-2-10.46-6.06A26,26,0,0,1,813.48,443.83Z"/><path class="cls-1" d="M933.77,426.21c-2.12,5-3.64,9.61-3.86,14.59-.06,1.37-.52,3.2,1,3.84,1.35.55,2.28-1,3.24-1.84,1.26-1.11,2.41-2.34,3.71-3.39a12.92,12.92,0,0,1,3.05-1.86,3,3,0,0,1,4.28,3.14,5.77,5.77,0,0,1-.77,2.35c-2.44,4.15-6.24,6.56-10.72,7.91a5.71,5.71,0,0,1-5.35-1.43c-3.1-2.5-4.06-5.88-3.58-9.65.39-3.08,1.13-6.11,1.74-9.16.23-1.16.54-2.3.83-3.5-1.55-.62-3-.18-4.38-.17a23.07,23.07,0,0,1-3.89-.28,2,2,0,0,1-1.68-1.68,2.35,2.35,0,0,1,1-2.52,7.38,7.38,0,0,1,4-1.33c1.67-.1,3.35-.21,5-.18a3.75,3.75,0,0,0,3.88-2.57,36.27,36.27,0,0,1,1.78-3.52,10.23,10.23,0,0,1,1.22-1.76,1.89,1.89,0,0,1,2-.58,2,2,0,0,1,1.44,1.87,12.8,12.8,0,0,1-.46,2.44c-.28,1.14-1,2.18-.68,3.72a14.66,14.66,0,0,0,1.89.39c1.32.1,2.64,0,4,.19a7.64,7.64,0,0,1,2.39.65,1.51,1.51,0,0,1,.25,2.64,5.12,5.12,0,0,1-1.93.88c-1.76.3-3.55.5-5.33.66C936.55,426.18,935.24,426.16,933.77,426.21Z"/><path class="cls-1" d="M452.06,427.94c-1.11-.8-2.35-.39-3.51-.51a21.21,21.21,0,0,1-3.19-.38,2.57,2.57,0,0,1,.13-5.08,35.63,35.63,0,0,1,4.25-.6c1.54-.16,3.09-.22,4.71-.32,1-1.64,1.84-3.2,2.82-4.69a8.35,8.35,0,0,1,1.88-2.13,2.07,2.07,0,0,1,3.2,1.09,7.62,7.62,0,0,1,.22,2.44,24.52,24.52,0,0,1-.34,2.54,24,24,0,0,0,5.06.85,6.22,6.22,0,0,1,2.36.71,1.83,1.83,0,0,1,.05,3.24,18.71,18.71,0,0,1-4.34,1.6c-2,.45-4,.63-6.22,1-.35.94-.78,1.91-1.07,2.92A85.92,85.92,0,0,0,455.81,444a12.21,12.21,0,0,0,.22,2.36,7.5,7.5,0,0,0,2.05-.58c1.61-1,3.09-2.26,4.71-3.28a18.09,18.09,0,0,1,3.55-1.7c1.86-.65,3.14-.29,3.85.86s.49,2.38-.75,3.92a8.12,8.12,0,0,1-1,1,28.93,28.93,0,0,1-7.22,4.65,7.84,7.84,0,0,1-6.94-.19,4.7,4.7,0,0,1-2.82-3.89,27.21,27.21,0,0,1-.17-3.93c.27-4.77.61-9.54.91-14.32A5.13,5.13,0,0,0,452.06,427.94Z"/><path class="cls-1" d="M993.13,422.07c1.94-.78,3.46-1.51,5-2a9.08,9.08,0,0,1,8.52,1.34,4.4,4.4,0,0,1,1.36,5.75c-.86,1.5-2.33,1.84-3.5.6a5.1,5.1,0,0,0-3.74-1.78,6.66,6.66,0,0,0-4.67,1.48,11.71,11.71,0,0,0-4.76,7.72,62.56,62.56,0,0,1-3.64,14.22,20.82,20.82,0,0,1-2,3.82,4.66,4.66,0,0,1-1.92,1.53,2.14,2.14,0,0,1-3.09-2.22,15.91,15.91,0,0,1,.69-2.78,113.9,113.9,0,0,0,4-17.46,78.48,78.48,0,0,1,1.65-9.89,13.11,13.11,0,0,1,.92-2.71,2.16,2.16,0,0,1,4-.05C992.46,420.35,992.72,421.14,993.13,422.07Z"/><path class="cls-1" d="M652.51,423.2c1.21-.76,2.19-1.43,3.22-2a10.85,10.85,0,0,1,6.91-1.42,7.37,7.37,0,0,1,6.46,5.85,5.14,5.14,0,0,1-.26,2.43c-.63,1.73-2.16,1.94-3.27.52-.29-.38-.49-.82-.77-1.21a4.32,4.32,0,0,0-4.74-1.82,17.48,17.48,0,0,0-8.69,5.46,7.62,7.62,0,0,0-1.19,3.32c-.79,3.38-1.42,6.8-2.25,10.17a43.51,43.51,0,0,1-1.86,5.8,9.23,9.23,0,0,1-1.83,2.6,1.38,1.38,0,0,1-1.28.28,2.24,2.24,0,0,1-1.07-1.28,8.07,8.07,0,0,1,.06-2.13c.44-6.35,1.84-12.55,2.9-18.8.39-2.36.75-4.73,1.15-7.09a28.13,28.13,0,0,1,.71-3.15,2.27,2.27,0,0,1,2.11-1.68,2.32,2.32,0,0,1,2.44,1.16A28,28,0,0,1,652.51,423.2Z"/><path class="cls-1" d="M855.62,423.57c.89-.65,1.56-1.15,2.24-1.63a14.79,14.79,0,0,1,1.78-1.22c2.26-1.11,4.58-1.61,6.82,0a7.53,7.53,0,0,1,3.34,6.79,2.06,2.06,0,0,1-1.23,2,2,2,0,0,1-2.3-.54,9.72,9.72,0,0,1-.93-1.09,3.33,3.33,0,0,0-4.18-1.08,6.8,6.8,0,0,0-2.22,1.15c-2.53,2.24-4.65,4.66-5.26,8.28a53.73,53.73,0,0,1-3.93,13.8,17.6,17.6,0,0,1-1.58,2.81,2.25,2.25,0,0,1-2.5,1,2.28,2.28,0,0,1-1.79-2.38,13.48,13.48,0,0,1,.46-3.54,140.1,140.1,0,0,0,4.18-17.85,30.9,30.9,0,0,1,1.4-4.83,7.55,7.55,0,0,1,1-1.91c1-1.44,2-1.55,3.64-.5C854.84,423,855.12,423.24,855.62,423.57Z"/><path class="cls-1" d="M879.09,420.18c2.21,2.66,2.37,2.68,2.07,6.13a60.8,60.8,0,0,1-1.48,9.2c-1.09,4.42-2.49,8.76-3.79,13.12a16.17,16.17,0,0,1-1.14,3,5.92,5.92,0,0,1-1.56,1.92,2,2,0,0,1-3.3-1.32,11.09,11.09,0,0,1,.33-3.53c.85-3.49,1.79-7,2.76-10.42a40,40,0,0,0,1.35-7.77c.3-3.67.53-7.44,3.74-10.12a18.41,18.41,0,0,1-2.26-2.13,3.52,3.52,0,0,1-.43-4,3.82,3.82,0,0,1,3.55-2.06,3.78,3.78,0,0,1,3.39,2.78,3.46,3.46,0,0,1-1.22,3.85c-.36.3-.82.48-1.22.75A9.48,9.48,0,0,0,879.09,420.18Z"/><path class="cls-1" d="M430.38,448.06c.36-2.41.61-4.92,1.12-7.37,1.18-5.61,2.46-11.2,3.78-16.78a12.46,12.46,0,0,1,1.41-3.25,1.91,1.91,0,0,1,2.2-.82,1.93,1.93,0,0,1,1.54,1.79,21.15,21.15,0,0,1-.1,4.64q-2,11.28-4.27,22.54a19,19,0,0,1-1.39,4.05,2.09,2.09,0,0,1-2.35,1.25,2,2,0,0,1-1.65-1.69C430.48,451,430.47,449.58,430.38,448.06Z"/><path class="cls-1" d="M1052.45,444.87c-2.1,0-3.53-1.55-3.62-4a3.72,3.72,0,0,1,3.72-3.91,3.5,3.5,0,0,1,3.63,3.58C1056.23,443,1054.65,444.84,1052.45,444.87Z"/><path class="cls-1" d="M439,412.46a2.67,2.67,0,0,1,3,2.42,2.4,2.4,0,0,1-2.48,2.49,2.85,2.85,0,0,1-3-2.47A2.36,2.36,0,0,1,439,412.46Z"/><path class="cls-1" d="M753.86,272.47c.55,2.7,1,5.41,1.64,8.07,1.74,7.11,2.83,14.34,4,21.55.57,3.55,1.21,7.09,1.78,10.64a28,28,0,0,1-.17,9.66,7.12,7.12,0,0,1-2,3.75,13.64,13.64,0,0,1-4.34,3.14,62.83,62.83,0,0,1-22.63,5.31,95.26,95.26,0,0,1-16.88-.5c-3.8-.51-7.65-.56-11.48-.75-6.83-.35-13.65-.77-20.48-.92q-9.52-.19-19.06.42c-6.1.4-12.23.21-18.35.44-6.46.25-12.92.73-19.39,1.05a143,143,0,0,1-21.21-.19c-1.31-.13-2.64-.07-3.95-.17-1.67-.12-3.35-.21-5-.48a9.43,9.43,0,0,0-4.93.43c-5,1.76-10,3.45-15.31,3.74-2.62.14-5.21.74-7.83,1.06a29.15,29.15,0,0,1-11.43-.47,14.69,14.69,0,0,1-1.71-.53c-1.81-.75-3-2-2.91-4.07,0-.46,0-.92,0-1.51-.81-.21-1.5-.36-2.17-.57a7.12,7.12,0,0,1-3.25-2.17c-1.41-1.58-1.93-3.29-.78-5.25l.81-1.39c-2.15-2.74-4.37-5.58-1.83-9.19-2.93-4.68-2.93-4.85.19-10.16a94.49,94.49,0,0,1-2.42-15.91c-.14-2.75-.75-5.47-.94-8.22-.24-3.7-.31-7.42-.4-11.13a3.1,3.1,0,0,1,2.2-3,23.53,23.53,0,0,1,4.79-1.5,42.26,42.26,0,0,1,17.84.57,34.22,34.22,0,0,1,4.37,1.62,3.42,3.42,0,0,1,2.15,3.08c.06.6.1,1.19.15,1.79q.85,9.32,1.71,18.62a3,3,0,0,0,1.25,2.46,26.87,26.87,0,0,1,7.87,8.89c3.3.39,6.53,1.27,10.13.73a27.29,27.29,0,0,0,0-7.23c-1.22-8.18-2.62-16.33-3.84-24.51-.65-4.38-1.08-8.8-1.63-13.2-.87-7-1.77-14-2.62-21-.41-3.45-.71-6.92-1.11-10.37-.21-1.9-.6-3.78-.75-5.69-.29-3.82-.48-7.65-.67-11.48-.16-3.11-.41-6.23-.36-9.34a52.44,52.44,0,0,1,1.67-13.88c.44-1.5,1-3,1.42-4.45a14.19,14.19,0,0,1,3.61-6.14,18.47,18.47,0,0,0,1.92-2.14c3.41-4.67,8.23-6.82,13.73-7.72a27.38,27.38,0,0,1,5-.52,20.48,20.48,0,0,0,8-1.88,14.93,14.93,0,0,0,5.18-3.82,24.09,24.09,0,0,0,6.5-11.82c.48-2.22.69-4.5,1-6.76a9,9,0,0,0-.14-1.8,10.1,10.1,0,0,0-1.53-.28c-3.92-.07-6.83-2.11-9.21-4.94a25.11,25.11,0,0,1-4.66-8.05,109.13,109.13,0,0,1-5.47-23.78c-.53-4.76-1-9.54-1.49-14.3-.14-1.31-.37-2.6-.53-3.67-.34-.36-.48-.63-.67-.69-4.24-1.29-7.77-3.9-11-6.73-3.92-3.49-6.56-7.91-6.6-13.48a39.56,39.56,0,0,1,1.52-12.43,24.35,24.35,0,0,1,6.06-10.45,49.62,49.62,0,0,1,12.06-9,28,28,0,0,1,7.15-2.34,44.55,44.55,0,0,1,19.26.56,36.92,36.92,0,0,1,9.8,3.47,8,8,0,0,0,7.92,0c3-1.53,5.89-3.21,8.79-4.91a43.52,43.52,0,0,1,14.4-5.4,22.6,22.6,0,0,1,7.52-.09,17.76,17.76,0,0,1,10,5.39,27.79,27.79,0,0,1,8,15,17.74,17.74,0,0,1-.62,8.14c-.49,1.73-1.26,3.37-1.81,5.08-.61,1.94-1.15,3.9-1.65,5.87a6.94,6.94,0,0,0-.18,2.13c.3,4.05,1.7,5.69,5.68,6.79,1.73.47,3.46,1,5.18,1.48a6.93,6.93,0,0,1,4.94,4.78c.53,1.59,1.3,3.11,1.73,4.72a18.91,18.91,0,0,1,.34,3.55c.11,1.48.4,1.89,1.79,2.3.8.24,1.64.37,2.43.65a5.08,5.08,0,0,1,3.62,5.2,8.64,8.64,0,0,1-.13,1.43c-.16.93-.68,1.85-.14,2.79a6.4,6.4,0,0,0,3.15,2.84,11.07,11.07,0,0,0,2.76.75,69.86,69.86,0,0,0,7.87.77c7.67.08,12.92,3.93,16.44,10.39,3.82,7,2.11,17.9-6.66,22.35a45.94,45.94,0,0,1-4.69,1.72,44.17,44.17,0,0,0-5,2,2.58,2.58,0,0,0-1.26,3.68,15,15,0,0,0,2.83,4.1,31.17,31.17,0,0,0,14.92,8.25c2.67.63,5.42,1,8.13,1.48a17.75,17.75,0,0,1,7.38,2.67,14.58,14.58,0,0,1,3.64,3.4,25.66,25.66,0,0,1,4.55,16.34,11.78,11.78,0,0,1-8,11,44.5,44.5,0,0,1-9.76,2.4,13.47,13.47,0,0,0-4.74,1.58c-2.34,1.36-2.91,2.82-2.19,5.44a18.1,18.1,0,0,0,3.2,6.4c3,3.78,6,7.51,8.93,11.28,3.48,4.44,7,8.86,8.73,14.37,3.34,10.79,2.48,21.17-3.92,30.62a29.77,29.77,0,0,1-14.71,11.67A9.31,9.31,0,0,0,753.86,272.47ZM663.28,109c-.79,1.14-1.65,2.3-2.43,3.5a16.57,16.57,0,0,0-2.59,13,40,40,0,0,0,11.19,19.78A43.75,43.75,0,0,0,691,156.92c2.22.51,4.46.93,6.66,1.5A87.08,87.08,0,0,1,707,161c8.16,3.11,14.68,8.52,20.14,15.23a24.35,24.35,0,0,1,3,5.28c1,2.28,1.82,4.69,2.8,7,3.78,9,6.07,18.41,7.89,28,1.14,6,2.09,12.07,3.74,17.93,2.47,8.78,4.71,17.6,6.8,26.46.43,1.82.53,3.75,1.5,5.65a13.09,13.09,0,0,0,2.1-.73,26.53,26.53,0,0,0,11.8-13.58,51.5,51.5,0,0,0,2.82-13,24.5,24.5,0,0,0-3-15.28,74.35,74.35,0,0,0-7.44-11q-3.09-3.73-6-7.62a21.13,21.13,0,0,1-3.29-6.76c-1.28-4.37,0-7.54,4-9.65a18,18,0,0,1,3-1.22,29.93,29.93,0,0,1,3.15-.7,12,12,0,0,0,9.26-14.67c-1.53-6.12-4.94-10.53-11.09-12.65a58.67,58.67,0,0,1-6.21-2.83C750,156,748.13,155,746.22,154c-4.41-2.29-8.56-5-11.54-9-3.79-5.08-3.14-8.51,2.85-11.43a35.71,35.71,0,0,1,3.72-1.34c4.74-1.68,7-5.35,7.56-10.06,1-8.24-5.14-15.42-13.06-15.07a24.38,24.38,0,0,1-6.42-.62,12.35,12.35,0,0,1-8.55-7.09,8.15,8.15,0,0,1-.24-5.62c.69-3,.06-3.86-2.84-4.67-.34-.09-.7-.15-1-.27-2.74-.91-3.75-2.47-3.32-5.48a5.5,5.5,0,0,0-.49-3.47c-.49-1-.94-1.95-1.48-2.88a7.19,7.19,0,0,0-4.66-3.68c-1.74-.42-3.46-.94-5.19-1.43a7.91,7.91,0,0,1-5.13-4.22,11.25,11.25,0,0,1-1.23-7.33,57.44,57.44,0,0,1,1.64-5.87c.51-1.6,1.17-3.14,1.74-4.72a15.26,15.26,0,0,0,.25-9.56,23.62,23.62,0,0,0-8.31-12.32,15.92,15.92,0,0,0-10.7-3.5,31.77,31.77,0,0,0-7.06,1.25c-4.58,1.22-8.62,3.59-12.72,5.84-1.78,1-3.54,2-5.4,2.85a17.17,17.17,0,0,1-11.94.88c-2.41-.7-4.89-1.15-7.35-1.65a34,34,0,0,0-13.93.09,37.61,37.61,0,0,0-11.81,5.14,36.3,36.3,0,0,0-6,4.6,16,16,0,0,0-5.28,9.21c-.79,5.51-.64,11.06,2.63,16,2.39,3.59,4.58,7.39,9.13,8.73a2.11,2.11,0,0,1,.86.63c1.17,1.28,2.68,1.42,4.29,1.4A28.22,28.22,0,0,0,629,75.44c5.61-3.21,10.55-7.11,13.21-13.27a7.32,7.32,0,0,1,.69-1.26c.41-.58.85-1.25,1.69-1.09s1,.94,1.06,1.66c.07,1.32.08,2.64.08,4a11.89,11.89,0,0,0,1.23,5.19,18.4,18.4,0,0,0,6,7.47c2.56,1.77,4.89,3.87,7.42,5.68a5.35,5.35,0,0,0,6.38.43,11.41,11.41,0,0,1,3.72-1.28,8.88,8.88,0,0,1,10.67,8.33,31.17,31.17,0,0,1,0,4.32,9.36,9.36,0,0,1-3.58,6.79c-.56.45-1.27.75-1.9-.36.3-.38.62-.86,1-1.29,2.29-2.55,3.62-5.36,2.51-8.88a7.61,7.61,0,0,1-.11-1.07A5.73,5.73,0,0,0,674,85.52a9,9,0,0,0-6.27,1c-.51.31-1,.62-1.51,1a4.08,4.08,0,0,1-4.41.25,29,29,0,0,1-6.72-4.14c-1.37-1.17-2.78-2.28-4.17-3.43A8.14,8.14,0,0,0,646,78.4c1.49,4.25,5.51,6.12,7.62,9.42a1.55,1.55,0,0,1-2.36.24c-3.3-2.24-6.37-4.72-7.95-8.57-.26-.64-.62-1.25-.88-1.76a21.69,21.69,0,0,1-3.4-.41,1.74,1.74,0,0,1-1-1.26,1.81,1.81,0,0,1,.77-1.43,18.57,18.57,0,0,1,2.82-1c0-3.47,0-3.47-.72-4.87-1.71,1.66-3.35,3.42-5.16,5S632,76.57,630.1,78a9.86,9.86,0,0,1,.75,7.51c-.42,1.49-.8,3-1.33,4.45-1.22,3.37-3.35,6.37-4.21,9.9a10.28,10.28,0,0,0,0,2.17l3.71.16a22.89,22.89,0,0,1,2.87.13c.47.07.89.51,1.61,1a6.6,6.6,0,0,1-1.56.82c-1.65.29-3.31.54-5,.72a6.63,6.63,0,0,1-2.13-.15c-2.17-.53-2.95-1.68-2.72-3.94a7,7,0,0,1,.48-2.09c.86-2,1.78-3.92,2.72-5.85s1.92-3.6,2.76-5.46a14.26,14.26,0,0,0,1.24-5.94c0-2-.92-2.64-2.73-2l-.33.15A28.73,28.73,0,0,1,612.92,82a15.34,15.34,0,0,0-2.27.27c.17,1.71.34,3.24.48,4.77.78,8.83,1.5,17.68,3.73,26.3.93,3.59,1.9,7.18,3.07,10.7a21,21,0,0,0,4.27,7c3.15,3.66,7,4.3,11.41,3.2a5.44,5.44,0,0,0,.68-.23c5.11-2.08,10.25-4.11,14.12-8.31.11-.12.43,0,.82-.09,0,.46.16,1,0,1.31a10.47,10.47,0,0,1-1.59,1.93c-3.26,3.34-7.45,5.18-11.6,7.06l-2.5,1.15c-.22,2.24-.44,4.26-.61,6.29a26.42,26.42,0,0,1-4.71,13.41c-.46.66-.83,1.39-1.18,2,3.61,6.12,6.92,7.72,13.5,6.68.12,0,.24,0,.35-.06,7.15-1.74,14-4.07,20-8.67,1.79-1.4,3.71-2.64,5.56-4,.46-.33.88-.7,1.41-1.13a13.45,13.45,0,0,0-1-1.25,40.34,40.34,0,0,1-11.89-19.74,21.16,21.16,0,0,1-.56-9.6,19.75,19.75,0,0,1,3.58-7.76c1.54-2.11,3.2-4.2,3.41-7,0-.16.34-.3.64-.54a14.83,14.83,0,0,0,3.35.53,6.77,6.77,0,0,0,3-1,18.51,18.51,0,0,0,2.56-2.43c1.8,2.14.19,4.78,1.31,7.07l4.73.85a19.26,19.26,0,0,1,1.75-2c.52-.45,1.1-.33,1.55.54L679,112c.57,2.39,2.72,1.51,4.19,2.1a7.4,7.4,0,0,1-.48,1.11c-1.45,2.09-1.27,3.11.77,4.23a6.07,6.07,0,0,1,1.52.91,1.49,1.49,0,0,1,.31,1.27,1.28,1.28,0,0,1-1.05.67,11.58,11.58,0,0,1-2.24-.56c-.58,1.48-1.59,2.68-1.74,4.28a10.19,10.19,0,0,1,1.64,1.53,2.2,2.2,0,0,1,.37,1.61c-.13.42-.78.69-1.17,1-1-.83-1.85-1.49-2.64-2.11-1.94,1.12-1.94,1.13-1.91,2.35,0,.48.11,1,.09,1.43-.06,1.21-.7,2-1.58,2.08s-1.43-.42-1.8-1.46c-.23-.64-.37-1.31-.53-1.92-1.9-.33-3.54-.51-4.95.81a1.93,1.93,0,0,1-1,.27,1.13,1.13,0,0,1-1.26-1.33,16.4,16.4,0,0,1,.71-1.88c-.73-1.25-1.43-2.37-2.06-3.53-1.52-2.77-.85-5.6-.12-8.4.54-2,2.12-3.09,3.85-4.05,2.23-1.23,2.28-1.51,1.39-4.26Zm37.33,55.86c-1.08-.34-1.74-.58-2.42-.75-3.73-.92-7.46-1.78-11.17-2.73a40.86,40.86,0,0,1-10-4.08,3.91,3.91,0,0,0-4.09-.07c-1.57.88-3.13,1.78-4.63,2.77-1.9,1.25-3.69,2.67-5.62,3.88-5.8,3.66-11.84,6.83-18.57,8.47-2.81.68-5.63,1.34-8.51.48-3.58-1.08-7.07-2.32-10-4.78a15.81,15.81,0,0,0-2-1.31c-.58.27-1,.44-1.43.68-5,3-3.8,1.77-5.82,6.76-1.08,2.67-2,5.39-3.1,8.06-4.08,10.11-8.25,20.2-12.27,30.34a67,67,0,0,0-4.54,16.6,22.92,22.92,0,0,0,1.15,11.67c.59,1.44,1.16,2.9,1.87,4.28A83.54,83.54,0,0,1,607.32,269c.58,3.3.73,6.67,1.3,10a38.77,38.77,0,0,1,.22,8.61c-.23,4.18-.37,8.37-.53,12.56,0,.19.21.39.45.8a14.9,14.9,0,0,0,1.57.18c8.4.09,16.77-.56,25.16-1,.24,0,.48,0,.71-.06,5.72-.62,11.43-1.33,17.16-1.84,7.4-.67,14.82-1.18,22.23-1.76,2.39-.19,4.78-.38,7.16-.62s4.47-.53,6.51-.78c.61-2.59,1.17-4.89,1.7-7.2.14-.59.2-1.18.29-1.78.39-2.48.76-5,1.18-7.45q1.26-7.62,2.57-15.24a86.26,86.26,0,0,1,3.18-13.64c.83-2.37,1.44-4.82,2.22-7.22a3.06,3.06,0,0,0-.57-3.31c-1.91-2.15-3.71-4.4-5.59-6.58A39,39,0,0,1,685,213.4a48.39,48.39,0,0,1,1-22.09,88.16,88.16,0,0,1,4.09-11.12C692.58,174.64,695.39,169.23,700.61,164.87ZM564.38,313.26c-.86,1.62-1.88,2-3,2-4-.17-8.13.81-12.16-.4a1.69,1.69,0,0,0-2.14,2,3.11,3.11,0,0,0,2.48,2.74,20.61,20.61,0,0,0,8.2.47c2-.25,4.05-.39,6.08-.54a3.33,3.33,0,0,1,1.4.2,1.39,1.39,0,0,1,.58.78.71.71,0,0,1-.2.64,3.48,3.48,0,0,1-1.19.74c-3.83,1-7.7,1.88-11.68,1.47a3.68,3.68,0,0,0-3.48,1.34,2,2,0,0,0,.38,3.35,5.16,5.16,0,0,0,3,.95,47.63,47.63,0,0,0,10-.45,5.65,5.65,0,0,1,4,.24c-.5.55-.73,1-1.08,1.15a25.69,25.69,0,0,1-3.45,1c-1.75.37-3.53.63-5.29,1a2.2,2.2,0,0,0-1.82,1.91,1.67,1.67,0,0,0,1.75,1.48c2.26.09,4.54.06,6.81,0,1.07,0,2.13-.39,3.2-.39a22.65,22.65,0,0,0,6.39-.82,24.67,24.67,0,0,1,3.53-.66,81.33,81.33,0,0,0,13.28-3,18.55,18.55,0,0,1,6.73-.77c5.15.3,10.29.66,15.44.78,4.55.1,9.12,0,13.67-.19,5.14-.24,10.27-.81,15.42-1.07,10-.52,20.11-.91,30.17-1.37,8.52-.38,17,.26,25.52.6l.36,0c5.25.41,10.5,1,15.76,1.17a225.74,225.74,0,0,0,24.81-.64c3-.24,6-.46,8.73-1.86a34.29,34.29,0,0,0,7.95-5.52,8.5,8.5,0,0,0,2.71-5.7c.27-3.34.5-6.67-.43-10a48.45,48.45,0,0,1-1-5.66,164,164,0,0,0-4.77-22.48c-1-3.44-2-6.9-2.94-10.37-1.31-4.86-2.46-9.76-3.85-14.59a193.47,193.47,0,0,1-5.14-20.55,110.21,110.21,0,0,0-2.53-11.58c-1.64-5.75-3.12-11.57-4.28-17.44a68.37,68.37,0,0,0-7.35-19.43,47.59,47.59,0,0,0-9.41-12.2,22.66,22.66,0,0,0-7.47-4.89,2.9,2.9,0,0,0-2-.11c-2.25,1.14-4.46,2.44-5.75,4.72a77.12,77.12,0,0,0-6.39,13.64,55.2,55.2,0,0,0-2.85,21.58c.4,5.34,1.65,10.42,4.7,14.91,1.42,2.08,2.92,4.1,4.33,6.18a77.21,77.21,0,0,1,5.49,8.41,88,88,0,0,1,4.71,11.66,202.05,202.05,0,0,1,5.93,24.42c1.26,6.44,2.05,13,4,19.26,7.47,1.17,7.47,1.17,9.1,2.84a5.74,5.74,0,0,1-1.62.55,41.87,41.87,0,0,0-5.36-.12c-3.42.48-7,.32-10.23,1.76a4.11,4.11,0,0,1-1.06.15l-17.12,2c-2,.23-4,.56-6.07.69-5.26.35-10.53.62-15.79.93-.72,0-1.44.09-2.16.16-4.17.37-8.35.77-12.52,1.13-6.45.56-12.9,1.12-19.35,1.63-5.37.42-10.74.87-16.12,1.13-4.91.23-9.83.19-14.75.34-2.51.07-5,.36-7.53.42a90.41,90.41,0,0,1-12.2-.42,26.61,26.61,0,0,1-6-1.15,16.45,16.45,0,0,0-9.19-.82c-4.2,1-8.38,2-12.59,2.92-1.4.3-2.85.37-4.27.56a40.53,40.53,0,0,1-4.62.59,29.49,29.49,0,0,1-4.13-.48,2.65,2.65,0,0,0-1,2.66,3.38,3.38,0,0,0,2.16,2.24c.22.09.44.21.67.28a19.2,19.2,0,0,0,6,1,71.88,71.88,0,0,1,7.19.07A10.17,10.17,0,0,1,564.38,313.26ZM572,287.8a44.23,44.23,0,0,1-10.23.89,12.89,12.89,0,0,1-4.93-.84,38.61,38.61,0,0,1-8.47-4.66,10.56,10.56,0,0,1-1.24-1.67,21.6,21.6,0,0,1,2.28.86c1.05.57,2.08,1.19,3.09,1.84,5,3.26,10.63,3.33,16.31,2.82a5.38,5.38,0,0,0,3.54-1.5c-.92-4.56-.54-9.47-1.81-14.15-3.18.26-6.15.58-9.12.7s-5.75.09-8.63,0-5.88-.39-9.41-.64a256.38,256.38,0,0,1,3.3,31.4c3.07,1.68,3.59,1.78,6.3,1.25,4.34-.84,8.69-1.62,13-2.54a25.68,25.68,0,0,0,7-2.26C573.59,294.66,573.22,290.28,572,287.8Zm133.89-43.6a24,24,0,0,0-1.07,2.42c-1.18,3.64-2.39,7.28-3.45,11-1.32,4.61-2.71,9.2-3.71,13.88-1.14,5.38-1.86,10.85-2.8,16.27-.37,2.11-.84,4.2-1.3,6.43,2.09.65,4.12.25,6.1.16s4-.49,6.06-.72a57.07,57.07,0,0,0,6.42-.74c1.91-.43,4-.4,5.68-1.26-.94-3.47-2.05-6.65-2.66-9.92-1.92-10.36-4.1-20.66-6.75-30.86A22.25,22.25,0,0,0,705.89,244.2Zm-117.59-16c.42-.71.52-.81.53-.92a107.67,107.67,0,0,1,8.86-31.72c3.91-8.5,7.89-17,11.37-25.64.34-.86,1.07-1.64.49-3a19.67,19.67,0,0,0-11.2,2.66c-3.88,2.36-6.4,6.06-8.94,9.7a2.26,2.26,0,0,0-.3.65c-.76,2.52-1.7,5-2.21,7.59a53.8,53.8,0,0,0-.63,16.84c.66,5.71.85,11.43,1.24,17.15C587.65,223.49,588,225.49,588.3,228.15Zm1.86,13.32a41.52,41.52,0,0,0,.63,9.81q.51,3.74,1,7.47c.56,4.26,1.1,8.53,1.66,12.79.41,3.08.86,6.16,1.27,9.24.36,2.72.72,5.45,1,8.18.37,3.45.69,6.9,1,10.34.07.68.12,1.35.18,2.15,2.45.19,4.64.51,6.73-.27-.08-1.77-.19-3.31-.21-4.86-.05-2.87-.15-5.75-.06-8.62a49.76,49.76,0,0,0-2.83-16.89c-1.35-4.22-2.89-8.38-4.05-12.65-1.49-5.45-3.81-10.56-5.86-15.79A6.62,6.62,0,0,0,590.16,241.47Zm82.5-129.12c-.84.81-1.5,1.5-2.23,2.1s-1.77,1.21-2.55,1.92a5.34,5.34,0,0,0-1.22,1.72,7.28,7.28,0,0,0,1.9,8.49,5,5,0,0,0,5.31,1.14,8.46,8.46,0,0,0,5.17-4.64c2.09-4.39.23-8.8-4.37-10.24C674.11,112.66,673.52,112.56,672.66,112.35ZM543.55,268.68a14.26,14.26,0,0,0,1.68.31c5.49.12,11,.26,16.47.32,2,0,4.06-.1,6.08-.26a5.05,5.05,0,0,0,1.52-.77c-4.81-2.7-13.16-3.5-20.46-2.07C547.05,266.56,545.15,266.67,543.55,268.68ZM579,299.34a7.36,7.36,0,0,0-3-3.18c-.12-.08-.39.1-.63.17-.15,1-.44,2,.46,3ZM644.81,73c-.57,1.11-.21,1.64,1.26,2.5Z"/><path class="cls-1" d="M741.5,58.47c1.26-.47,2.32.18,3.43.54a17.91,17.91,0,0,0,3.09.84,6.65,6.65,0,0,0,2-.33c.62-2.17-.58-3.59-1.61-5-.47-.67-1.17-1.19-1.7-1.84a13.74,13.74,0,0,1-1.63-2.33A3.44,3.44,0,0,1,746,45.8a6.64,6.64,0,0,1,2.11-1.32,17,17,0,0,1,10.56-.39,2,2,0,0,1,.93.5,1.88,1.88,0,0,1,.55,1.2,1.32,1.32,0,0,1-1,.79c-1.3,0-2.62-.13-3.93-.15a13.37,13.37,0,0,0-5.64.74,1.58,1.58,0,0,0-.75,2.59,19.27,19.27,0,0,0,2,2,11.4,11.4,0,0,1,3.4,5.79c.82,3.5-1.35,6.36-4.9,6.26a9.2,9.2,0,0,1-7.84-4.28C741.36,59.31,741.5,58.89,741.5,58.47Z"/><path class="cls-1" d="M558.55,28.11c1.33-.42,2.22-.64,3.06-1a9,9,0,0,1,4.59-.5A5,5,0,0,1,570.47,30c.17.42-.14,1-.23,1.52-.48-.05-.8,0-.92-.11-1.66-1.86-3.74-1.91-5.93-1.34-1.27.33-2.49.86-3.75,1.2-2.89.78-4.81-.72-4.46-3.71a22.43,22.43,0,0,1,1.52-5.12,38.15,38.15,0,0,1,1.81-3.62c-2.09-.81-3.76.84-5.88.57a3.56,3.56,0,0,1,.49-1.16,11,11,0,0,1,7.06-3.11c2.39-.22,3.54,1.52,2.56,3.73-.44,1-1.13,1.84-1.62,2.79C560.14,23.52,558.79,25.26,558.55,28.11Z"/><path class="cls-1" d="M560.34,145.07c.33-.28.62-.73,1-.82,3.08-.79,4-2.8,3.34-5.73a3.49,3.49,0,0,1,0-1.07,3.2,3.2,0,0,1,3.37-3.07,15.89,15.89,0,0,1,8.85,3.56,1,1,0,0,1,.06.95,1,1,0,0,1-.91.36c-1.25-.41-2.47-.91-3.7-1.38-1.9-.73-1.9-.73-4.34-.34-.08,1-.17,2-.24,3.07-.22,3.17-2.56,5.49-6.85,5.11C560.75,145.7,560.62,145.39,560.34,145.07Z"/><path class="cls-1" d="M576.77,161c-.33-2.44,1.22-3.46,2.91-4a4.56,4.56,0,0,1,5,1.92,4.37,4.37,0,0,1-4.23,7.18,4.54,4.54,0,0,1-3.68-3.83A11.22,11.22,0,0,1,576.77,161Zm3.92-1.08c-.41.25-.77.36-.78.5a3.84,3.84,0,0,0,.09,1.66,1.47,1.47,0,0,0,1.67,1c.2,0,.54-.22.55-.36a3,3,0,0,0-.06-1.66A5.38,5.38,0,0,0,580.69,159.92Z"/><path class="cls-1" d="M551.34,56.22a7.74,7.74,0,0,1-.85,1.6,4.5,4.5,0,0,1-6.82-.58,1.78,1.78,0,0,1,.27-2.27,20.55,20.55,0,0,1,2.27-1.69,2.72,2.72,0,0,1,4,.72A13.12,13.12,0,0,1,551.34,56.22ZM548.72,56c-.45-.26-.78-.58-.93-.51s-.37.47-.47.75c0,0,.34.36.47.33A4.28,4.28,0,0,0,548.72,56Z"/><path class="cls-1" d="M757.47,143.29a2.51,2.51,0,0,1,2.56,2.42,2.09,2.09,0,0,1-1.95,1.76,2.39,2.39,0,0,1-2.73-2.18A2.19,2.19,0,0,1,757.47,143.29Z"/><path class="cls-1" d="M735.6,96.76a1.79,1.79,0,0,1-1.71-1.9,1.8,1.8,0,0,1,3.58.09A2,2,0,0,1,735.6,96.76Z"/><path class="cls-1" d="M739.16,25.36c1.08,0,1.69.65,1.65,1.37a1.51,1.51,0,0,1-1.28,1.46,1.32,1.32,0,0,1-1.43-1.57C738.27,26.07,738.89,25.66,739.16,25.36Z"/><path class="cls-1" d="M620.65,113.44c.4-.4.73-1,1.14-1.1a20,20,0,0,1,3.94-.11c4.91.32,9.19-1.45,13.1-4.15a20.87,20.87,0,0,0,3.63-3.91,10.44,10.44,0,0,0,1-1.69c1-.2,1.34.23,1.38.89a41.1,41.1,0,0,1-1.15,11.75,12.28,12.28,0,0,1-4.07,6.23,7.93,7.93,0,0,1-10,.06c-1.58-1.28-3.13-2.6-4.65-3.94S622.24,114.9,620.65,113.44Zm6.2,1.94c-.09.36-.18.53-.13.58a15.42,15.42,0,0,0,5.57,4.37,5.65,5.65,0,0,0,6.33-1.09c3.33-2.88,4-6.69,4-11.13C637.71,111.88,632.83,115,626.85,115.38Z"/><path class="cls-1" d="M611,74.82a12.65,12.65,0,0,1,2.35-.26,19.7,19.7,0,0,0,15.09-4.34,48.44,48.44,0,0,0,7.33-6.31,7.07,7.07,0,0,1,1.38-1.11.7.7,0,0,1,.66,0,1.56,1.56,0,0,1,.35.91,2,2,0,0,1-.37,1,15.78,15.78,0,0,1-2.11,2.89c-3.35,3.08-6.84,6-11,7.92a16.7,16.7,0,0,1-12.26.45C612.07,75.88,611.83,75.53,611,74.82Z"/><path class="cls-1" d="M673,98.7c-1.86,1-2.87-1-4.94-1-1.26.18-2.26,1.94-3.9,2.61-.83-.17-.83-.74-.61-1.35a2.67,2.67,0,0,1,.55-.91,28.79,28.79,0,0,1,7.78-6.23c.75-.39,1.53-.76,2.29,0,.28,1-.55,1.49-1.11,2s-1.07,1-1.74,1.56Z"/><path class="cls-1" d="M643,83.38a1.55,1.55,0,0,1-1.68,1.44,2.13,2.13,0,0,1-1.81-2.25,1.58,1.58,0,0,1,1.74-1.38A1.84,1.84,0,0,1,643,83.38Z"/><path class="cls-1" d="M620.44,85.64c-.29-.3-.91-.69-1.11-1.23a1.31,1.31,0,0,1,1.27-1.68,1.49,1.49,0,0,1,1.71,1.33C622.35,84.85,621.64,85.57,620.44,85.64Z"/><path class="cls-1" d="M648.87,249.18a3.78,3.78,0,0,0-.85-.56c-6.45-1.92-13-3.45-19.76-3.21-4.06.15-8.13.35-12,1.75a1.18,1.18,0,0,1-1.53-.57,1.19,1.19,0,0,1,.39-1.59,11.08,11.08,0,0,1,3.16-1.6,38.58,38.58,0,0,1,12.1-1.21,74.85,74.85,0,0,1,23.29,5.58,13.31,13.31,0,0,1,2.53,1.34,1.6,1.6,0,0,1-.31,2.88,9.81,9.81,0,0,1-3.14.58c-3.71.08-7.43,0-11.14.11a71.37,71.37,0,0,0-7.14.61c-2.13.28-2.89,1.23-3.09,3.31a9.44,9.44,0,0,0,1.14,5.18c.13.25,0,.9-.11,1a1.63,1.63,0,0,1-1.25,0,5.56,5.56,0,0,1-1.46-1.52,8.74,8.74,0,0,1-1-6.6,5.07,5.07,0,0,1,4.12-4.05,35.09,35.09,0,0,1,6-.73c3.34-.12,6.68,0,10,0Z"/><path class="cls-1" d="M569.17,295.29a1.84,1.84,0,0,1,1.56,1.65,1.81,1.81,0,0,1-1.88,1.69,1.52,1.52,0,0,1-1.5-1.61A1.77,1.77,0,0,1,569.17,295.29Z"/><path class="cls-1" d="M551.88,289.73a1.32,1.32,0,0,1-1.21,1.6,1.11,1.11,0,0,1-1.15-1c-.11-.69.56-1.47,1.21-1.32A3.7,3.7,0,0,1,551.88,289.73Z"/><path class="cls-1" d="M549.54,300a10.82,10.82,0,0,1,1.62,1.5c.27.4-.32,1.19-.84,1.3a1.26,1.26,0,0,1-1.48-1.08C548.82,301.22,549.2,300.75,549.54,300Z"/><path class="cls-1" d="M561.07,295.45c-.66.41-1.06.86-1.35.79s-.59-.61-.69-1c0-.14.48-.64.68-.61A5.26,5.26,0,0,1,561.07,295.45Z"/><path class="cls-1" d="M555,296.47c-.45.3-.79.68-1,.62a3.94,3.94,0,0,1-.93-.78c.3-.27.62-.77.89-.75S554.58,296.07,555,296.47Z"/><path class="cls-1" d="M562.78,293.36c-.09.17-.13.44-.26.5s-.35-.13-.53-.2c.08-.17.13-.44.25-.48S562.59,293.29,562.78,293.36Z"/><path class="cls-1" d="M195.47,282.12c-.32.76-.66,1.52-.95,2.29-1.36,3.59-2.63,7.21-4.09,10.76a46.71,46.71,0,0,1-12.42,17,19.05,19.05,0,0,1-8.5,4.52,11.47,11.47,0,0,1-9.57-1.83,24.1,24.1,0,0,1-7.23-7.41c-1.84-3.09-3.45-6.31-5-9.53-1.12-2.25-2.1-4.58-3-6.93a38.43,38.43,0,0,1-1.84-5.81c-1.68-8-3.1-16-4.17-24.09-.89-6.77-1.62-13.56-2.44-20.34-.48-4-1-8.07-1.53-12.22-.86-.22-1.55-.33-2.19-.57a33.89,33.89,0,0,1-3.64-1.49,3.67,3.67,0,0,1-1.78-2.59,1.78,1.78,0,0,1,.66-1.93,1.5,1.5,0,0,1,2,.07c.47.37.83.93,1.34,1.18a19.13,19.13,0,0,0,2.6.8,7,7,0,0,0,0-2.3c-1.59-3.63-3.87-6.59-7.87-7.85s-8-2.57-12.1-3.91c-.71.64-1.44,1.23-2.11,1.88a70.48,70.48,0,0,1-12,9.75,26.58,26.58,0,0,1-8.85,3.88A16.07,16.07,0,0,1,75.55,221a55,55,0,0,1-3.93-4.66c-.67-.83-1.24-1.74-2-2.77-.72.27-1.37.48-2,.74-2.22.92-4.38,2-6.65,2.73a3.43,3.43,0,0,0-2.66,3c-.29,1.9-.64,3.79-.75,5.7a59.59,59.59,0,0,0,4.16,25.36,239.75,239.75,0,0,1,9,26.18c1.61,6.15,3.08,12.37,2.49,18.81a75.19,75.19,0,0,1-1.27,8.16,6.49,6.49,0,0,1-1.35,2.46,1.67,1.67,0,0,1-2,.46,1.88,1.88,0,0,1-1.26-1.6,1.14,1.14,0,0,1,0-.36c1-6-.69-11.69-1.77-17.43-1-5.29-2.5-10.49-3.81-15.72a19.39,19.39,0,0,0-.94-2.3,9.43,9.43,0,0,0-1.1,1.59c-2.09,5.49-4,11-6.24,16.48-1.83,4.55-3.78,9.08-6,13.48a59.66,59.66,0,0,1-10.64,14.86,21.57,21.57,0,0,1-6.72,4.73,8.34,8.34,0,0,1-9.67-1.54,20.08,20.08,0,0,1-3.55-4.49,40.59,40.59,0,0,1-5.34-16.28c-.17-1.55-.39-3.1-.69-4.62a47.82,47.82,0,0,1-.22-13.62c.35-3.82.65-7.65.8-11.48.18-4.34,1.17-8.55,1.76-12.82,1.31-9.5,2.67-19,3.9-28.5a35.81,35.81,0,0,0,.1-6.47,120.75,120.75,0,0,0-.86-12.19c-.69-4.65-2.61-9-4.67-13.18a57.59,57.59,0,0,1-5.24-15.63c0-.24-.08-.47-.14-.71a14.2,14.2,0,0,1-.78-3.82,15.26,15.26,0,0,1,1.35-3.88c-.59-.92-1.23-1.92-1.86-2.92-1.52-2.43-3.1-4.83-4.54-7.31A6.54,6.54,0,0,1,0,159.39c1.2-1.27,2.16-2.32,3.16-3.32a14.77,14.77,0,0,1,2.14-1.9c4-2.69,7.9-5.46,12-7.94a63.26,63.26,0,0,1,13.5-5.86c4.91-1.58,9.76-3.36,14.62-5.07a23.26,23.26,0,0,0,2.13-1c.12-1,.2-2,.38-3.09.74-4.37,1.63-8.72,2.23-13.11.53-3.8.8-7.63,1.07-11.45.52-7.3.9-14.61,2.18-21.82a81.94,81.94,0,0,1,9.29-25.58,25.32,25.32,0,0,1,7.69-8.92,27.5,27.5,0,0,1,3.43-1.94c.31-.14.81.12,1.23.19C75,50,74,50.37,73.24,50.91A23.4,23.4,0,0,0,67.71,57C62.6,64.48,60,72.9,58.41,81.7,57.34,87.48,56.17,93.24,55.16,99c-.55,3.19-.92,6.41-1.24,9.62a166.24,166.24,0,0,1-3.27,21.3c-.21.9-.25,1.84-.37,2.72,1.76.59,2.47-1.12,3.78-1.23,1.49.22,2.2,1.4,2.92,2.47,2.82,4.17,5.58,8.38,8.35,12.58s5.44,8.19,8,12.36c2,3.14,3.77,6.4,5.68,9.59.55.92,1.21,1.77,1.93,2.81,6.8-2,11.27-6.43,14.55-12.18-.38-1.07-1.06-.87-1.6-.9a12.27,12.27,0,0,1-6.66-2.4c-6.36-4.61-12.25-9.68-16.42-16.43-3.42-5.53-6.43-11.23-7.27-17.85a80.79,80.79,0,0,0-1.86-8A68.62,68.62,0,0,1,60,101c-.05-1-.17-1.89-.25-2.8L57.61,97a5.64,5.64,0,0,1,.94-1.82,4.88,4.88,0,0,0,1.56-3.48c.55-4.88,1-9.79,1.91-14.6a49.58,49.58,0,0,1,5.8-15.79,21.58,21.58,0,0,1,8.39-7.67,2.25,2.25,0,0,1,1-.19c.18,0,.37.23.75.49-.3.35-.52.81-.87,1-2.85,1.49-4.68,4.08-6.77,6.35a14.27,14.27,0,0,0-2.31,4.41,69.55,69.55,0,0,0-5,23.83,10.27,10.27,0,0,0,.36,1.92c1.41-.4,2.65-.79,3.9-1.11a9,9,0,0,1,5.65.14c2.58,1,3.94,3,4.84,5.46a21.58,21.58,0,0,1,.93,9.93q-.54,4.81-1,9.66a15.16,15.16,0,0,0,0,3.23,2.91,2.91,0,0,0,3.58,2.61c1.54-.24,3.06-.63,4.6-.88a6.92,6.92,0,0,1,1.76,0,.81.81,0,0,1,.49.47,1.24,1.24,0,0,1,0,.66.5.5,0,0,1-.23.27,15.09,15.09,0,0,1-6.65,2.54c-3.9.45-6.74-2-6.93-6a21.86,21.86,0,0,1,.27-3.22c.4-3.69.87-7.38,1.2-11.08a38.82,38.82,0,0,0-.07-4.31,7.91,7.91,0,0,0-.11-1.08c-.84-5.61-4.55-7.49-9.61-4.83-1,.56-2,1.23-3.2,1.93a11.47,11.47,0,0,0-.14,2,212,212,0,0,0,3.47,22.73,42.81,42.81,0,0,0,2.6,7.83c4.1,9.5,10.91,16.84,18.94,23.14a12.35,12.35,0,0,0,7.09,2.26,5.4,5.4,0,0,0,3.89-1.62c2-1.75,4-3.43,5.91-5.26,4.66-4.5,9.24-9.08,13.86-13.63,1.19-1.16,2.31-2.44,4-2.79a1.3,1.3,0,0,1,.5,1.92,21.86,21.86,0,0,1-2.44,3.95,197,197,0,0,1-16.48,17.09,21.13,21.13,0,0,1-4.1,2.88A4.89,4.89,0,0,0,97.67,159a27.19,27.19,0,0,1-8.24,10.74,32.39,32.39,0,0,1-3.94,2.49c-.9.55-1.82,1-2.94,1.7,1.12,2,2,3.75,3.13,5.44A57,57,0,0,1,90.6,190.1c1.37,3.58.44,6.54-1.9,9.32a46,46,0,0,1-9.88,8.31c-1.49,1-3.06,1.89-4.58,2.85-.49.31-.94.69-1.56,1.15,2.18,3.68,4.79,6.76,8.45,8.71s7.7,1.51,11.44-.25a51,51,0,0,0,10.49-6.91c1.94-1.59,3.76-3.32,5.6-5-.11-1.46-1.36-1.74-2.16-2.31a12.15,12.15,0,0,1-4.36-6,4.79,4.79,0,0,1-.46-1.73,14.72,14.72,0,0,0-1.37-6.59,7.06,7.06,0,0,1-.59-2.8A10,10,0,0,0,98,182.48c-1-1.29-.3-2.8.38-4.08a2.57,2.57,0,0,1,1.46-.93,16.92,16.92,0,0,1,2.55-.38c.24-.73.46-1.39.67-2.05.45-1.37.86-2.75,1.35-4.1a7.72,7.72,0,0,1,5.17-5.05,74.44,74.44,0,0,1,12.57-3,88.1,88.1,0,0,1,18.26-1.34c4.42.26,8.81,1,13.2,1.55a20.53,20.53,0,0,1,3.44,1c2.68.86,4.67,2.4,5.31,5.32a6,6,0,0,0,.61,1.14c1,.06,2,.19,3.07.2,4.82.08,11.34,6,12.15,9.95,1,4.89-1.5,10.25-6.13,12.11-1,.4-2,.74-3,1.08-1.32,2.78-2.51,5.53-3.89,8.17s-2.84,5-4.36,7.62c0,.71.95.74,1.41,1.22a28.2,28.2,0,0,1,3.14,3.44,7.2,7.2,0,0,1-1.27,9.75,43.76,43.76,0,0,1-4.22,3,31.88,31.88,0,0,0,2.27,5.48c3.85,8.39,7.74,16.76,11.55,25.17a56.89,56.89,0,0,1,3.2,11,67,67,0,0,1,1.47,17.52,38.22,38.22,0,0,1-.69,5,5.42,5.42,0,0,1-.8,1.4,5.89,5.89,0,0,1-.84-3.57c-.07-2.64-.08-5.28-.25-7.91a68.44,68.44,0,0,0-6.27-25.32c-3.56-7.47-7-15-10.48-22.5a49.4,49.4,0,0,1-1.82-4.69,4.77,4.77,0,0,0-2.41-2.94,27.06,27.06,0,0,1-4-3.06,40.56,40.56,0,0,1-5,3.44,45,45,0,0,1-6.16,2.07c-.59,2.47-.13,4.85.11,7.2.55,5.12,1.18,10.24,1.86,15.35.82,6.18,1.65,12.35,2.6,18.51.78,5.09,1.71,10.16,2.64,15.23a20.2,20.2,0,0,0,1.17,4.14c2.24,5.3,4.2,10.72,7.14,15.71a23.37,23.37,0,0,0,6.79,7.31,8.36,8.36,0,0,0,7.87,1.07,16.06,16.06,0,0,0,6.38-3.93c4.82-4.79,8.68-10.14,10.71-16.8a196.73,196.73,0,0,0,5-19.13c1.81-9.05,3.88-18,5.84-27.07A142.72,142.72,0,0,0,201.08,222c.14-3.11.52-6.21.92-9.3a113.37,113.37,0,0,0,.58-18.33,27.89,27.89,0,0,0-7-17.35,14.74,14.74,0,0,0-4.46-3.57c-4-2.14-8.12-4-12.73-4.74a36.32,36.32,0,0,1-9-2.63,34.5,34.5,0,0,0-4.42-1.54,55.72,55.72,0,0,1-14.94-7,26.76,26.76,0,0,1-9-10.16,42.63,42.63,0,0,1-4.26-12.55c-.39-2.12-.67-4.26-1-6.39a29.56,29.56,0,0,1,.38-10.73,8.88,8.88,0,0,1,1-2c1-.1,1.38.43,1.48,1,.16.94.16,1.91.25,2.86.43,4.53.77,9.08,1.31,13.6a37.25,37.25,0,0,0,3.63,11.62,21.18,21.18,0,0,0,9.38,9.63,93.22,93.22,0,0,0,14.16,6.15c5.45,1.86,10.94,3.45,16.5,4.94,10.35,2.77,17.63,9.28,21.92,19.18,2.11,4.86,2.57,10,2.86,15.1a70.85,70.85,0,0,1-1.32,17.18c-1.52,8-3,16-4.37,24.06-1.47,8.38-2.87,16.77-4.32,25.15a42.73,42.73,0,0,1-1,4.94,9.26,9.26,0,0,0,.25,6,89.25,89.25,0,0,1,3.61,15.38c.6,3.55,1.29,7.08,1.8,10.64a35.63,35.63,0,0,1,.21,5.37c0,.31-.57.83-.93.88a1.48,1.48,0,0,1-1.17-.59,4.07,4.07,0,0,1-.59-1.66c-1.17-6.61-2.31-13.22-3.47-19.83-.3-1.73-.67-3.44-1.13-5.11Zm-88.92-82a1,1,0,0,0-.14-.24s-.12,0-.18,0l.37.22.57.86c.09,1.32,1.25,1.65,2.1,2.24,4.61,3.21,9.83,4.9,15.22,6.17.09,0,.24-.24.45-.47a7.17,7.17,0,0,0-1.26-.72,96.92,96.92,0,0,1-13.1-5.92c-1.06-.53-2.17-1-3.26-1.45Zm-2.7-9.52a5.16,5.16,0,0,0-.23-.66c0-.1-.17-.16-.25-.23-.08.2-.25.42-.21.59s.29.33.45.5,0,.52.14.69c2.13,2.93,4.47,5.68,7.67,7.46,3.87,2.16,7.84,4.14,11.75,6.23a43.47,43.47,0,0,1,4,2.4c.41.28.56.91.82,1.36-.62.42-1,.69-1.69,1.14a18.78,18.78,0,0,1,8.28,4.66c2.37,2.29,3,5.37,3.87,8.33,2.31,0,4.17-.93,6.14-1.31s3.89-.83,5.85-1.25c0-1.42,0-2.62,0-3.81.1-3.49,1.56-6,5.12-6.91.21-.05.37-.3.19-.14,1.55-2.79,2.9-5.19,4.23-7.59s2.67-4.56,3.81-6.94c1.94-4.08,2.32-8.27.29-12.47-.2-.42-.68-.7-1.21-1.21-.12.7-.22,1-.24,1.4-.32,6-5.78,11.83-12,13.23a33.24,33.24,0,0,1-10.39.2,127.33,127.33,0,0,1-19.07-3.46,25.07,25.07,0,0,1-10.41-5.44c-1.54-1.34-3.1-2.65-4.7-3.91a11.72,11.72,0,0,0-2.15-1.3,1.14,1.14,0,0,0-1.68.42,8.31,8.31,0,0,0,1,2.1,44.14,44.14,0,0,0,7.68,7.53A51.72,51.72,0,0,0,124.72,199c2.51.81,5,1.68,7.48,2.58.3.11.46.61.76,1a7.21,7.21,0,0,1-4.17,0,52.57,52.57,0,0,1-23.41-11.24A8.75,8.75,0,0,0,103.85,190.56Zm-66.09,52.8c.55.35.84.43.91.61a11.94,11.94,0,0,1,.75,2c.54,2.21,1.13,4.41,1.53,6.65,1.14,6.48,2.56,12.92,3.07,19.51.34,4.41.77,8.82,1.13,13.23a15.14,15.14,0,0,1,0,2.52c-.36,4.17-.76,8.34-1.12,12.51,0,.17.15.36.36.83a37.3,37.3,0,0,0,3.09-6.2c3.62-8.61,7.17-17.26,10.9-25.83a7.21,7.21,0,0,0,0-6.17,98.36,98.36,0,0,1-4.93-13.1c-1.48-5.58-2.73-11.19-2.22-17,.26-3,.75-5.93,1.12-8.9a8.64,8.64,0,0,0-.05-4.37,15.69,15.69,0,0,0-1.79.14c-2.11.43-4.22.9-6.32,1.36a15.43,15.43,0,0,1-6.42,0,7.1,7.1,0,0,1-5-3.23,49.45,49.45,0,0,1-3.22-6,127.88,127.88,0,0,1-5.39-15.53c-1.18-.75-3.44-.24-3-2.67a10.06,10.06,0,0,1,5.64-.51c3.79.54,7.58,1.12,11.37,1.64.47.07,1.09.36,1.51-.33-1.4-1.32-3.21-1.65-4.87-2.26-1.46-.53-3-.95-4.43-1.47a2.22,2.22,0,0,1-1.68-2.1c0-.88.56-1.61,1.85-1.88a25.42,25.42,0,0,1,3.91-.43,27.94,27.94,0,0,0,14.2-4.54c.26-.17.4-.52.88-1.17a12.77,12.77,0,0,0-4.1.26c-2.09.54-4.2,1-6.25,1.65-4.82,1.54-9.75.84-14.65.84a1.43,1.43,0,0,1-.34-.09c-.65-.17-1.33-1-1.13-1.62a2.91,2.91,0,0,1,1-1.32,2.72,2.72,0,0,1,1.37-.37c4.94-.29,9.63-1.83,14.38-3a18.67,18.67,0,0,0,7.46-3.42,6.81,6.81,0,0,0,.94-1.39,11.94,11.94,0,0,0-2.13,0c-3.85.86-7.69,1.78-11.54,2.67a32.55,32.55,0,0,1-3.85.81c-4,.4-8,.7-12.15,1.05a2.86,2.86,0,0,1,0-1,3.79,3.79,0,0,1,2.48-1.94,25.42,25.42,0,0,1,4.16-1.07c5.68-.74,10.74-3.28,16-5.38.8-.33,1.83-.59,2.08-1.82a22.81,22.81,0,0,0-7.92.36q-8,1.93-16,4.1a53.81,53.81,0,0,0-6.08,2.19,13.47,13.47,0,0,0-2.83,1.56A3.18,3.18,0,0,0,9,177.1a56.83,56.83,0,0,0,1.35,6.68,102.23,102.23,0,0,0,4.16,10.71c2.6,5.59,4.54,11.33,4.81,17.54.58,13.08.57,26.11-2.35,39a136.92,136.92,0,0,0-3.38,26.69,23.5,23.5,0,0,1-.13,2.52,37.88,37.88,0,0,0,.16,12.16c.32,1.65.58,3.31.74,5a41.15,41.15,0,0,0,4,14.1A23.72,23.72,0,0,0,22,316.8c2.07,2.33,4.35,2.68,7.16,1.39a18.3,18.3,0,0,0,9.48-9.41,30.11,30.11,0,0,0,2.29-7.54c.71-4.86,1-9.77,1.47-14.65a16.31,16.31,0,0,0,0-2.52c-.19-3.35-.32-6.7-.63-10s-.68-6.67-1.22-10c-.89-5.43-2-10.83-2.9-16.26A7.2,7.2,0,0,1,37.76,243.36ZM59.51,140.77c-1,.28-1.59.43-2.16.6-7.21,2.23-14.44,4.42-21.63,6.7-3.31,1.05-6.62,2.14-9.82,3.48A38.76,38.76,0,0,0,19,155.29c-3.84,2.65-7.51,5.55-11.23,8.38a24.5,24.5,0,0,0-2,1.93,17.66,17.66,0,0,0,4.12,4.27,40.39,40.39,0,0,1,10.76-4.19c1.86-.45,3.73-.87,5.61-1.23,4-.78,8-1.54,12-2.24a10.52,10.52,0,0,1,6.63,1.12,2.26,2.26,0,0,1,.5,3.88c-.52.48-1.18.81-1.75,1.25-.36.27-.87.48-.7,1.09.08.09.14.23.21.23,1.19,0,2.39,0,3.58.05a16.05,16.05,0,0,1,3.53.48,1.59,1.59,0,0,1,.79,2.8,13.45,13.45,0,0,1-4.74,3.78c-.71.31-1.66.37-1.94,1.6.88,0,1.68,0,2.48,0s1.68,0,2.51.08a2.57,2.57,0,0,1,2.24,1.58c.43,1.09-.31,1.85-1.06,2.45a18.74,18.74,0,0,1-2.7,1.77c-1.36.76-2.81,1.36-4.16,2.14a14.64,14.64,0,0,1-8.22,2.18c-.42,0-1-.11-.89.75,1.73.65,3.55,1.22,5.27,2a29.5,29.5,0,0,1,4.69,2.63,1.78,1.78,0,0,1-.6,3.3,8.74,8.74,0,0,1-3.17.41c-3.22-.26-6.43-.63-9.64-1a7.47,7.47,0,0,0-4.1.18,4.67,4.67,0,0,0,.51.91,26.46,26.46,0,0,1,4.42,7c1.4,3,2.86,6.07,4.28,9.11A3.9,3.9,0,0,0,38.49,216a7.35,7.35,0,0,0,4.58.36q2.41-.69,4.83-1.42c1.94-.6,3.85-1.35,5.82-1.83a96.76,96.76,0,0,0,16-5.44c6.34-2.75,11.81-6.81,17.09-11.19a4.69,4.69,0,0,0,1.6-5.47c-1-3.07-1.84-6.2-3.58-9-3.36-5.4-6.64-10.84-9.93-16.28-2.18-3.59-4.29-7.21-6.48-10.79-2-3.27-4.08-6.5-6.12-9.75Zm48.42,33.39c-1.5,4.81-.22,8.44,3.8,10.83,1.44.85,3,1.49,4.42,2.38a21.08,21.08,0,0,0,6.32,2.48c2,.49,4,.93,5.95,1.3,3.4.63,6.8,1.38,10.24,1.71a70.62,70.62,0,0,0,9,.06c3.21-.1,6.11-1,8.27-3.61a18.92,18.92,0,0,1,2.32-2.24,4.66,4.66,0,0,0,1.62-4.52c-.65-3.56-.48-7.15-.59-10.73a5.1,5.1,0,0,0-.38-1.16l-2.35.82a33.26,33.26,0,0,1-5.43,1.81,116.76,116.76,0,0,1-13.15,1.58c-5.5.26-11,.12-16.52,0C117,174.76,112.62,174.42,107.93,174.16ZM158,167.77a11.51,11.51,0,0,0-5.68-2.23c-2.6-.41-5.22-.64-7.83-1a56.38,56.38,0,0,0-12.18-.17c-3.22.23-6.42.73-9.62,1.2a57.7,57.7,0,0,0-12.21,2.82,6.14,6.14,0,0,0-1.93.91c-.33.29-.29,1-.41,1.48.41.21.61.39.83.41,5.12.51,10.23,1.15,15.36,1.45A109.79,109.79,0,0,0,149,171.21C152.07,170.71,155.11,170,158,167.77ZM53.85,133.87a4.41,4.41,0,0,0-1,.21,210,210,0,0,1-23.41,9c-8.51,2.85-15.87,7.75-23,13.08a12,12,0,0,0-2.54,3c-.66,1-.52,1.55.29,3.25,2.33-1.43,4.67-2.85,7-4.29,3.14-2,6.2-4.07,9.41-5.9a55.26,55.26,0,0,1,7.15-3.33c6.78-2.69,13.83-4.59,20.79-6.75l9.48-3C56.55,136.21,56.13,135.68,53.85,133.87Zm115.46,56.28c1.29.36,2.06-.3,2.85-.79a7.18,7.18,0,0,0,1.12-11.4,26,26,0,0,0-3.92-3.13,9.16,9.16,0,0,0-7-1.1c-.11.8-.23,1.5-.28,2.19a17.32,17.32,0,0,0-.06,2.16,5,5,0,0,0,.25,2c.9-1.9,1.19-2.25,1.79-2.34a3.23,3.23,0,0,1,2.59,1,5.42,5.42,0,0,1,.71.8,8.2,8.2,0,0,1,1.94,4.92C169.33,186.41,169.31,188.3,169.31,190.15Zm-15.37,27.18c0,.53,0,.77,0,1,.2,2.48,1.22,3.74,3.52,4.34,2.12.55,3.28,0,4.76-2.16a6.38,6.38,0,0,0,.79-1.59,2.85,2.85,0,0,0,.07-1.39,6.06,6.06,0,0,0-5.13-4.37c-2.54-.26-3.75.77-4,3.38C154,216.91,154,217.26,153.94,217.33Z"/><path class="cls-1" d="M82,53.67c-.37-.91,0-1.4.6-1.59a9.4,9.4,0,0,1,2.46-.42c4-.11,7.86.21,11.32,2.61a28.27,28.27,0,0,1,7.08,6.54,73.25,73.25,0,0,1,7.32,11.93c1.36,2.93,2.85,5.81,4.29,8.71a22.55,22.55,0,0,0,11,10.91,97.11,97.11,0,0,0,12.68,5c1,.31,2,.72,3.1.95a15.08,15.08,0,0,1,9.2,6.44c2.76,3.87,4.14,10.54.84,15.21a8.94,8.94,0,0,1-3.72,3.28,5.58,5.58,0,0,1-4.53,0,2.75,2.75,0,0,1-.9-4.68,18.89,18.89,0,0,1,2-1.47,7.58,7.58,0,0,0,2.7-3.73,6.06,6.06,0,0,0-1.06-6.4,16.72,16.72,0,0,0-7.31-5,80.89,80.89,0,0,0-11.88-2.76A28.63,28.63,0,0,1,110.6,89.9a29.54,29.54,0,0,1-4.91-8.73c-2.21-5.31-4.28-10.67-6.45-16-.63-1.55-1.37-3.06-2.1-4.57a9.63,9.63,0,0,0-6.83-5.35c-2.09-.49-4.23-.81-6.35-1.2Z"/><path class="cls-1" d="M105,37.23a53.87,53.87,0,0,1,22.57,5.39,35,35,0,0,1,13.68,11.92A80,80,0,0,1,154.1,82.48c.92,3.84,2.12,7.62,3.3,11.39,1.77,5.66,4.87,10.67,7.89,15.71,2.1,3.49,4.15,7,6.2,10.54a25.36,25.36,0,0,1,3,8c1,5.39-.42,10.19-3.27,14.69a3.22,3.22,0,0,1-.24.28c-.44.44-1,.82-1.57.48a1.7,1.7,0,0,1-.74-1.11,11.72,11.72,0,0,1,.09-2.51,12,12,0,0,1,.44-1.74c1.52-5.4.48-10.41-2.13-15.25-3.13-5.81-6.25-11.63-9.18-17.53a86.85,86.85,0,0,1-6.78-18.16c-1.07-4.43-2.11-8.88-3.49-13.21a62.86,62.86,0,0,0-9.69-18.37c-5.48-7.4-13-11.4-21.73-13.74a43.12,43.12,0,0,0-12.09-1.52c-7.45.16-14.83,1.15-21.46,5.07-1.7,1-2.78,1.1-2.8.48,0-1.24,1.1-1.49,1.84-2,1.81-1.18,3.7-2.23,5.55-3.33,4-2.33,8.41-2.67,12.8-3.24C101.67,37.27,103.36,37.31,105,37.23Z"/><path class="cls-1" d="M120.26,310.24c3.47,0,7-.2,10.42.05,4.42.32,8.82.66,13.26.72a19.35,19.35,0,0,1,3.87.71,2.5,2.5,0,0,1,1.25.64,1.78,1.78,0,0,1,.42,1.22c0,.24-.44.6-.73.66a6.25,6.25,0,0,1-1.78,0c-.84-.09-1.65-.36-2.49-.4-6.21-.29-12.43-.58-18.65-.81-1.19-.05-2.38.19-3.58.22-1.79,0-3.58,0-5.37,0-2.27,0-4.54,0-6.8.1-2.64.1-5.26.35-7.9.42-9.34.23-18.68.41-28,.59-4.43.08-8.87.11-13.3.13-1.61,0-2.4-.43-2.22-1.12.28-1.08,1.21-1,2-1.08,1.07-.13,2.15-.29,3.22-.33q13.83-.46,27.65-.87c3.24-.1,6.48-.07,9.71-.18,1.91-.06,3.82-.3,5.72-.43s3.59-.24,5.39-.27c2.63,0,5.27,0,7.91,0Z"/><path class="cls-1" d="M210.94,315.43c-6-.12-11.94-.26-17.91-.34-2.87,0-5.74.08-8.6.05a9.77,9.77,0,0,1-2.79-.47,1.36,1.36,0,0,1-.72-1.07c0-.36.44-.78.78-1a2.06,2.06,0,0,1,1-.19c5.72-.35,11.44-.88,17.17-.95a61.6,61.6,0,0,1,13.51,1.43c.8.17,1.71.36,1.85,1.4.1.7-.88,1.31-2.19,1.43-.24,0-.48,0-.72,0h-1.43Z"/><path class="cls-1" d="M105.64,126.58a13.3,13.3,0,0,0-2.12,1.49,15.11,15.11,0,0,0-1.36,2.1c-2.1,3.2-4.28,6.35-7.57,8.46a46.25,46.25,0,0,1-4.7,2.54,3,3,0,0,1-2.77,0,1.82,1.82,0,0,1-1.25-1.58,1.74,1.74,0,0,1,1-1.72,4.6,4.6,0,0,1,1.35-.42A12.52,12.52,0,0,0,95.82,133c1.49-1.7,2.83-3.54,4.16-5.36.8-1.09,1.34-2.25.39-3.61a1,1,0,0,1,.38-1.49,2.12,2.12,0,0,1,1.65.19A10.76,10.76,0,0,1,105.64,126.58Z"/><path class="cls-1" d="M98.33,87.7c2.22.44,4.45.84,6.66,1.33a5.07,5.07,0,0,1,1.55.83.92.92,0,0,1-.11,1.5,6,6,0,0,1-2,.52,45.18,45.18,0,0,0-10,.78,5.19,5.19,0,0,1-1.42,0,1.51,1.51,0,0,1-1.51-1.27,1.56,1.56,0,0,1,.7-1.87,48.08,48.08,0,0,1,4.69-1.62,5.24,5.24,0,0,1,1.43,0Z"/><path class="cls-1" d="M168.59,149.21c-.7,2.17-1.47,4.14-3.19,5.56a1.07,1.07,0,0,1-1,0,1.09,1.09,0,0,1-.52-.84,10.3,10.3,0,0,1,2.25-5.53,1.12,1.12,0,0,1,1.59-.28A4.73,4.73,0,0,1,168.59,149.21Z"/><path class="cls-1" d="M93.8,103.17a1.83,1.83,0,0,1-1.57-2,1.9,1.9,0,0,1,1.68-1.59,1.85,1.85,0,0,1,1.76,1.89A1.79,1.79,0,0,1,93.8,103.17Z"/><path class="cls-1" d="M69.17,101.55a1.61,1.61,0,1,1,0,3.21,1.61,1.61,0,0,1,0-3.21Z"/><path class="cls-1" d="M134.46,106.23a8.34,8.34,0,0,1-1.16-1.88c-.14-.61.74-1.27,1.41-1.2s1.44.82,1.19,1.42A8.27,8.27,0,0,1,134.46,106.23Z"/><path class="cls-1" d="M70,169.45a9.93,9.93,0,0,1,1.83,1.67c1.74,2.87,3.46,5.75,5.06,8.69,1.43,2.63,2.59,5.41,4.09,8a6.34,6.34,0,0,1-.66,7.95c-1,1.2-2,2.38-3.08,3.51a6,6,0,0,1-1.48.76,6.76,6.76,0,0,1,0-2.25,20.51,20.51,0,0,1,1.82-3.09,5.49,5.49,0,0,0,.47-5.77c-2.2-4.66-3.91-9.53-6.53-14A22,22,0,0,1,70,171.29,6.74,6.74,0,0,1,70,169.45Z"/><path class="cls-1" d="M999.52,255c-.61-1.32-1.06-2.41-1.6-3.45-2.17-4.14-4.38-8.26-6.57-12.39a13.4,13.4,0,0,1-1.07-2.27,1.19,1.19,0,0,1,1.72-1.35,6.47,6.47,0,0,1,1.69,1.77c1.69,2.77,3.3,5.57,4.94,8.37,1.09,1.85,2.16,3.71,3.36,5.76a7.37,7.37,0,0,0,1.57-.86A116.22,116.22,0,0,1,1021,236.73c3.12-2,6.33-3.9,9.58-5.7,3-1.68,6.18-3.16,9.27-4.74.2-.1.32-.35.65-.71a24.09,24.09,0,0,0-1.09-2.43c-2.28-3.94-4.6-7.86-6.9-11.79a149.18,149.18,0,0,0-14-19.17,35.6,35.6,0,0,0-5.4-5.16,5.16,5.16,0,0,0-1.11.59,93.26,93.26,0,0,0-17,19.92,38.34,38.34,0,0,1-2.19,3.29c-.82,1.1-1.66,1.38-2.43,1s-1.06-1.25-.59-2.5a23.6,23.6,0,0,1,1.2-2.61,61.11,61.11,0,0,1,10.11-13.48c2.41-2.5,5-4.86,7.46-7.29.42-.41.78-.87,1.28-1.44a15.85,15.85,0,0,0-1.71-1.88c-1.39-1.13-2.83-2.22-4.31-3.24A180.55,180.55,0,0,0,983.18,167a46.92,46.92,0,0,0-9-3.56,25,25,0,0,1-4-1.43,1.65,1.65,0,0,1-.64-1.46c.12-.43.79-.81,1.3-1a2.62,2.62,0,0,1,1.41.06,57.08,57.08,0,0,1,6.61,1.67,166.83,166.83,0,0,1,21.93,9.91,83.65,83.65,0,0,1,18.78,13.83,69.12,69.12,0,0,1,5,5.66,170.15,170.15,0,0,1,19.27,28.57c3,5.63,6,11.2,8.14,17.21a165.21,165.21,0,0,1,6.41,21c.44,2.11,1.2,4.15,1.61,6.26,1,5.29,1.94,10.6,2.89,15.91a5.48,5.48,0,0,1,.12,1.07c0,1.5-.82,2.67-2.3,2.72a10.62,10.62,0,0,0-5,1.86c-6.79,3.85-14,6.84-21.07,10.08-3.48,1.59-6.78,3.59-10.17,5.38a4.93,4.93,0,0,0-2.66,4.37c-.22,3-.55,6-.77,8.95a113.53,113.53,0,0,1-3.32,19.47c-.61,2.41-1.48,4.76-2.26,7.13a1.63,1.63,0,0,1-1.64,1.15c-.6,0-1.2-.17-1.79-.16-2.87.06-5.75.11-8.62.26s-5.72.51-8.59.62c-3.48.12-7,.07-10.44.1a11,11,0,0,0-2.15.09,1.46,1.46,0,0,0-1,.77c-.17.71.43,1.07,1,1.12,1.44.12,2.87.18,4.31.2,7.2.1,14.4.14,21.59.27,1.79,0,3.58.3,5.37.49a2.1,2.1,0,0,1,1,.35,1.31,1.31,0,0,1,.54.84,1.07,1.07,0,0,1-.43.89,6.06,6.06,0,0,1-2.05.51c-1.67.08-3.36.06-5,.06-7.08,0-14.16,0-21.24-.08-7.91-.14-15.82-.3-23.72-.78-4.43-.26-8.85-.55-13.29-.41-6.83.21-13.66.45-20.49.65a212.11,212.11,0,0,1-24.44-.81c-3-.25-5.93-.84-8.89-1.27a3,3,0,0,1-2.83-2.35,3.6,3.6,0,0,0-1.82-2.12,92.27,92.27,0,0,1-10.76-9q-5.76-5.42-11.55-10.81a5.55,5.55,0,0,0-1.1-.91c-1-.52-2-.94-2.32-2.11-.47-1.85-1.15-3.71-.65-5.64a4.85,4.85,0,0,1,1.22-1.65c.45-.5,1-.95,1.65-1.65a17.23,17.23,0,0,0-2.42-1.2c-4.93-1.5-9.86-3-14.83-4.39a58.1,58.1,0,0,1-8.76-3.2A116.85,116.85,0,0,1,824,290.85a21.08,21.08,0,0,1-3.47-3.07,1.9,1.9,0,0,1,.17-2.62,2.08,2.08,0,0,1,2.62-.36,3,3,0,0,1,.57.43c2.14,2.36,5.07,3.59,7.61,5.38,4.56,3.2,9.73,5.16,14.69,7.57a21.32,21.32,0,0,0,2.34.9c7.5,2.51,15,5,22.5,7.53a29.9,29.9,0,0,0,13.11,1.27c1.9-.21,3.82-.34,5.73-.47a5.62,5.62,0,0,1,1.79.07,1.49,1.49,0,0,1,1,.87,1.33,1.33,0,0,1-.46,1.19,17.93,17.93,0,0,1-3.33,1.29c-4.53,1.21-9.21,1.53-13.85,2l-2,.2c.49,1.48,1.73,2,2.7,2.74,4.41,3.31,8.87,6.55,13.32,9.82l2.83,2a19.1,19.1,0,0,0,.66-1.81,9.66,9.66,0,0,0,.25-1.78c.51-9,1.13-17.95,1.47-26.93.21-5.63.14-11.28,0-16.91s-.67-11.25-1.05-16.87a11.07,11.07,0,0,0-.45-2.81c-.4-1.19.08-2.09.71-3.21l2-.17,9.31-.64c1.91-.13,3.83-.27,5.74-.43,7.64-.61,15.27-1.5,23-1.32,2.39,0,4.78-.19,7.18-.3a7.67,7.67,0,0,1,1.07,0c6.47.79,13,.18,19.42.29,2.87,0,5.74-.23,8.62-.31,2.15-.05,4.32-.06,6.47,0q4.68.13,9.34.39c3.35.18,6.69.44,10,.64A6.66,6.66,0,0,0,999.52,255ZM895,333.5a9.33,9.33,0,0,0,5.57,2.62c6.67.72,13.32,1.62,20,2.06,7.17.48,14.37.59,21.56.74,5,.11,10.08.08,15.12,0,6.83-.08,13.66-.24,20.49-.35,1.07,0,2.15.1,3.23.11,5.27.05,10.55.28,15.82.06,4.79-.2,9.56-.64,14.37-.43a20.21,20.21,0,0,0,2.57-.2c1.57-7.13,2.8-14.2,3.68-21.33.43-3.45.67-6.92,1-10.38.41-5.26.85-10.51,1.15-15.77.39-6.94.64-13.89,1-20.83,0-.84.24-1.66.29-2.5a30.22,30.22,0,0,0,0-6.45,51.58,51.58,0,0,0-11.11-1.69c-6.21-.51-12.45-.67-18.67-.94-4.43-.19-8.86-.37-13.3-.46-3.11-.07-6.23,0-9.35,0-2.75.06-5.5.25-8.25.31q-3.6.09-7.19,0c-3-.07-6-.24-9-.33-1.56-.05-3.12-.08-4.68,0-3.47.11-6.94.27-10.42.4-2.39.09-4.8.08-7.19.26-5.37.39-10.74.86-16.11,1.34-2.95.26-5.9.62-8.94.95a16.47,16.47,0,0,0-.08,4.42c.19,3.59.43,7.17.62,10.76.08,1.68.12,3.36.15,5,.09,4.2.34,8.4.2,12.58-.3,8.74-.8,17.48-1.24,26.22-.19,3.59-.43,7.17-.71,10.76A26.28,26.28,0,0,1,895,333.5Zm127.59-36.29c1-.52,1.59-.86,2.21-1.18,2.88-1.46,5.74-3,8.66-4.37,2.38-1.13,4.83-2.1,7.25-3.16,1.53-.68,3.07-1.36,4.58-2.08,4.1-1.94,8.2-3.91,12.45-5.94a152,152,0,0,0-6.13-27.44c-4.86-14.7-7.6-21.41-9.86-24.34-.5.16-1.07.29-1.61.51a59.3,59.3,0,0,0-10.07,5.52c-3.72,2.41-7.35,5-10.93,7.59A95.54,95.54,0,0,0,1005.51,254c-.46.49-1.16.93-.73,2,.36.07.8.17,1.25.23,2.61.33,5.24.57,7.84,1,2.94.48,5.86,1,8.72.07,1.32,1.27,1.11,2.77,1.08,4.17q-.25,10.8-.61,21.58c-.09,2.63-.37,5.26-.47,7.89C1022.51,292.85,1022.57,294.77,1022.57,297.21ZM894.16,334.49c-1.26-.93-2.43-1.73-3.54-2.62s-2.35-2.05-3.58-3q-9-6.94-17.95-13.83a5.48,5.48,0,0,0-1.36-.51c-.27,1.31-.26,2.21.71,3.1,5,4.61,9.95,9.37,15.06,13.91,2.86,2.54,6,4.76,9,7.12a5.83,5.83,0,0,0,2.91,1.28c1.31.17.78,2,1.86,2.43a7.78,7.78,0,0,0,2.32.83c3.7.32,7.4.56,11.11.75,2.52.12,5,.13,7.56.13,4.2,0,8.39,0,12.59-.12,8.27-.2,16.54-.49,24.81-.68a36.76,36.76,0,0,1,5.74.31c4.66.64,9.33.38,14,.41.48,0,.92-.21.78-1.08a15.88,15.88,0,0,0-2.25-.29c-4.68,0-9.36,0-14,0-9.23,0-18.46-.05-27.69-.53-7.66-.4-15.32-.73-22.93-1.72-4-.53-8-1.29-12-2.15C894.63,337.65,894.48,337.26,894.16,334.49Z"/><path class="cls-1" d="M979.22,130.2c-.67-.43-1.13,0-1.54.42a11.44,11.44,0,0,1-4,2.95,11.28,11.28,0,0,1-1.69.59c-1.38.32-2.22-.19-2.71-1.63A12.74,12.74,0,0,1,969,131a32.75,32.75,0,0,1-8.23,2.9c-8.5,2.28-18.53-5-19.6-13.15-.14-1.07-.47-2.11-.62-3.18s-.16-2.14-.24-3.31c-2.16-1.74-4.64-1.61-7.14-1.15a1.93,1.93,0,0,0-1.65,1.68,14.48,14.48,0,0,0-.43,2.48c.1,3.91-1.11,7.57-2,11.28-.11.44-.15.9-.24,1.44l1.08.28c1.47.37,1.89.88,1.61,2.18-.23,1-.61,2.07-.87,3.12-.42,1.68.12,2.59,1.87,2.64,2.15.05,4.3-.17,6.45-.32.71-.05,1.4-.31,2.12-.37a2.85,2.85,0,0,1,2.54,1.08,1.35,1.35,0,0,1-.43,2.12A34.48,34.48,0,0,1,933,142.89a6.8,6.8,0,0,1-2.78-.61,5.32,5.32,0,0,1-3.23-7c.27-.79.74-1.51,1-2.3a13.07,13.07,0,0,0,.41-1.85,7,7,0,0,0-1.55,0,57.51,57.51,0,0,1-15.28,1.9,11.08,11.08,0,0,1-5.21-1.17,8.51,8.51,0,0,1-4.42-4.51c-1.46-3.93-2.94-7.85-4.28-11.82a20.86,20.86,0,0,1-.56-3.8,3.05,3.05,0,0,0-.88,0c-1.08.47-2.15,1-3.25,1.49,2.63,3.07,2.61,3.12-1.18,3.87a7.67,7.67,0,0,0-5.92,9.83,8.52,8.52,0,0,0,5.31,5.94c1.12.41,2.28.71,3.43,1.06.8.25,1.62.45,2.4.76s1.3.64,1.32,1.51c0,.68-.67,1.09-1.94,1.11-1.06,0-2.13,0-3.11,0-2.34,5.3-4.4,6.75-10.16,7.2-1.2.09-2.4.06-3.59.21-.8.1-1.65.32-1.83,1.32.19.83.87.79,1.42.85,1.42.18,2.86.26,4.28.47a3.59,3.59,0,0,1,3.27,2.44c.55,1.74-.32,3-1.54,4.11a23,23,0,0,1-2.35,1.65c-.9.59-1.82,1.15-2.74,1.72-1.82,1.13-.81,3.17.48,3.68a12.73,12.73,0,0,0,1.76.34c2.89.65,3.44,1.59,2.72,4.59a7.11,7.11,0,0,0-.08.94,5.39,5.39,0,0,0,1.57.21c.94-.17,1.84-.53,2.77-.76a26.89,26.89,0,0,1,3.16-.66c1.93-.21,3.15.25,3.05,1.06-.16,1.35-1.4,1.46-2.37,1.84-2.79,1.08-5.59,2.16-8.4,3.21A109.72,109.72,0,0,0,869,178.9c-2.08,1.18-4.28,2.16-6.41,3.26-.73.37-1.42.81-2,1.16-.17,1,.44,1.23.92,1.53a50.4,50.4,0,0,1,9.19,7.47,32.09,32.09,0,0,1,2.92,3.64,3.15,3.15,0,0,1,.4,1.68.74.74,0,0,1-1,.71,13.24,13.24,0,0,1-2.35-1.58c-2.7-2.18-5.34-4.45-8.08-6.58a19.09,19.09,0,0,0-6.08-3.19,60,60,0,0,0-5.91,8.19,159.13,159.13,0,0,0-9,16.77c-2,4.61-4.28,9.12-6.39,13.69-.65,1.4-1.2,2.84-1.85,4.38a13.32,13.32,0,0,0,1.75,1.43c4.72,2.61,9.47,5.16,14.2,7.75,6.42,3.52,12.86,7,18.7,11.43.74.56,1.6,1,2.56,1.55,1.76-2.32,3.4-4.52,5.07-6.67q2.21-2.85,4.5-5.62a5.75,5.75,0,0,1,1.32-1.19,1.32,1.32,0,0,1,1,.06.7.7,0,0,1,.29.61,4.47,4.47,0,0,1-.41,1.7c-1.27,2-2.55,4.06-4,6a53,53,0,0,0-5,7.46c.6,1.41,1.79,2.29,2.66,3.41,1.25,1.61,2.63,3.13,3.74,4.82s.62,3.27-1.16,4.21a6.54,6.54,0,0,1-2.39.65,11,11,0,0,1-5.25-1c-.34-.14-.52-.68-.77-1,.37-.25.72-.67,1.12-.72,1.25-.14,2.53-.14,3.93-.21-1.5-2.13-1.85-2.4-5.06-4.08a3.18,3.18,0,0,0-.78.68c-1.69,2.74-3.35,5.51-5,8.16a4.21,4.21,0,0,0,2.13,2.53c2.41,1.78,4.87,3.49,7.27,5.28q5.47,4.07,10.9,8.21a5.52,5.52,0,0,1,1.16,1.34,1.19,1.19,0,0,1-.2,1.63,2.12,2.12,0,0,1-1.58.5c-1.79-.51-3-1.9-4.39-3-3.24-2.67-6.48-5.32-9.78-7.91-2.26-1.77-4.65-3.38-6.93-5.13-3.71-2.85-7.37-5.75-11.05-8.64-1.43-1.13-1.86-2.06-1.21-2.57,1-.8,1.85.07,2.6.52,1.74,1,3.39,2.24,5.09,3.37.88.59,1.77,1.15,2.77,1.81,2.61-2.78,4.17-6,5.85-8.94-.46-1.33-1.49-1.77-2.35-2.4a115.45,115.45,0,0,0-14.38-8.86q-7.17-3.77-14.43-7.34a13.89,13.89,0,0,0-5.49-1.79,20.61,20.61,0,0,0-3,6.91q-4,14-7.78,28.06c-.79,3-1,6.14-1.61,9.2a5.35,5.35,0,0,1-.75,2,1.38,1.38,0,0,1-1.2.48,1.56,1.56,0,0,1-.86-1,4.63,4.63,0,0,1-.05-1.78,106.26,106.26,0,0,1,1.56-11c2.08-8.62,4.43-17.17,6.72-25.74a47.65,47.65,0,0,1,1.65-4.75c.74-1.89,1.72-3.72.77-5.67C828,233,828,233,828.87,230.62c1.21-3.26,2.54-6.48,3.53-9.81,1.24-4.16,3.23-8,4.83-12a31.44,31.44,0,0,1,1.73-3.55q4.75-8.47,9.55-16.91c.77-1.35,1.69-2.61,2.58-4a10.35,10.35,0,0,1-.32-1.33c-.09-.83.36-1.62,1.09-1.59,2.38.1,4-1.38,5.85-2.43s3.59-1.93,5.43-2.8c6.29-2.94,12.49-6.12,19.33-7.93-.94-1.07-1.62-2-.34-3.27-1.17-.42-2.07-.72-3-1.06-2.3-.89-3.17-2.81-3.48-5.05a3.26,3.26,0,0,1,1.14-2.92,44.42,44.42,0,0,1,3.7-2.81c.94-.68,2.23-.89,2.92-2.3a3.84,3.84,0,0,0-1.13-.59c-1.3-.17-2.64-.15-3.93-.38a7.62,7.62,0,0,1-2.69-.93,3.35,3.35,0,0,1-.05-5.7,9.44,9.44,0,0,1,4.75-1.47,43.84,43.84,0,0,0,6-.82c2-.45,3.85-1.4,4.3-3.95-.57-.36-1.2-.69-1.74-1.11a32.6,32.6,0,0,1-4.15-3.39c-5.18-5.69-3.52-14.91,3.35-17.9.43-.19.85-.41,1.49-.72a4.33,4.33,0,0,1,1.71-3.24c1-.68,1.83-1.5,2.8-2.32a22,22,0,0,1-1.83-2.36,4.34,4.34,0,0,1,3.22-6.25,1.68,1.68,0,0,1,1.17.63,1.1,1.1,0,0,1,.07,1c-.43.83-1,1.62-1.6,2.63a23.76,23.76,0,0,1,2.38,2.13,20.37,20.37,0,0,1,1.72,2.55c.39,0,.69,0,.84-.08,2.85-2.18,6.3-2.91,9.64-3.78a16.5,16.5,0,0,1,8.54.16,33.68,33.68,0,0,1,11.11,5c.38.28.8.51,1.32.84a11.45,11.45,0,0,1,11,.93l2.66-3.08a13,13,0,0,1,8.79-4.36,44,44,0,0,1,10.39.13,5.87,5.87,0,0,1,4.49,2.62c.71,1.07,1.45,2.13,2.28,3.35,2-1.95,4-1.4,6-.31a9.66,9.66,0,0,1,5.24,6.9,13.9,13.9,0,0,1-1.36,9.76,21.29,21.29,0,0,0-1.21,2.19c-.15.37,0,.87.09,1.31Zm-8.39-.43c5.26-2.48,7.85-7.12,6.95-12.41a5.56,5.56,0,0,0-2.14-3.61c-1.21-.92-2.4-2-4.11-1.64-.79,1.2-.29,2.41-.29,3.56,0,4.54.37,9.1-1,13.53-.07.27-.13.54-.2.81Zm-3.13-10.68h.1c0-1.44,0-2.87,0-4.31a11.88,11.88,0,0,0-1.37-5.5,4.24,4.24,0,0,0-4.16-2.81c-2.63,0-5.27-.16-7.88.08a20.53,20.53,0,0,0-5.15,1.41,9.68,9.68,0,0,0-4.64,4.32,2.84,2.84,0,0,0-.48,1.67c.26,2.36.59,4.73,1,7.08,1,5.84,7.42,11,14.14,9.87a52.72,52.72,0,0,0,5.19-1.34,3.76,3.76,0,0,0,2.78-3,15.69,15.69,0,0,0,.46-2.81C967.76,122.2,967.7,120.65,967.7,119.09Zm-65.3-3.43c.19.21.25.33.35.38,3,1.57,2.6,1.47,1.81,4a2.67,2.67,0,0,0-.2,1.37,36.51,36.51,0,0,0,1.63,5.1,5.31,5.31,0,0,0,1.94,2,6.71,6.71,0,0,0,3.74,1,51.88,51.88,0,0,0,12.13-.71c1.17-.24,1.94-.67,2.2-1.94.68-3.27,1.47-6.52,2.15-9.79.28-1.37,1-2.7.53-4.46-1.89-1.09-3.88-2.41-6-3.44a19.25,19.25,0,0,0-11.15-1.94,50.32,50.32,0,0,0-7.28,1.82,3.79,3.79,0,0,0-2.71,2.28C901.82,112.77,902.13,114.28,902.4,115.66Zm68.53-4.76-.22.24.41,0Z"/><path class="cls-1" d="M969.43,78.81c-1.84-10.48-7.31-18.38-16.89-23.13a39.79,39.79,0,0,0-17.74-4,35.24,35.24,0,0,0-19.73,5.74c-2.2,1.45-4.36,3-6.5,4.5A26.56,26.56,0,0,0,900,72.3c-1.34,2.81-2.54,5.69-3.6,8.61a38.67,38.67,0,0,0-.74,4.24,44.34,44.34,0,0,1-1.44,4.77c-.1.28-.76.48-1.17.48-.24,0-.65-.44-.69-.72-.36-2.47-1.13-4.93-.35-7.46.57-1.83,1-3.72,1.67-5.49,2.44-6.18,5.42-12.07,10.34-16.68a82.34,82.34,0,0,1,13.36-10.29,28.43,28.43,0,0,1,12.91-4.16c9.45-.64,18.69.3,27.26,4.81a35.22,35.22,0,0,1,16,16.93,88.11,88.11,0,0,1,3.13,8.79c1.2,3.51.66,7.1.37,10.67a2.62,2.62,0,0,1-3.52,2.06c-3.33-1-6.68-1.91-10-3.06a48,48,0,0,0-13.36-2.62c-1.91-.11-3.81-.38-5.73-.45a82.72,82.72,0,0,0-42.52,10A32.09,32.09,0,0,0,898.7,95a15.83,15.83,0,0,1-2.37,1.59,2.1,2.1,0,0,1-1.66-.12,1.63,1.63,0,0,1-.67-1.89,2.36,2.36,0,0,1,.25-.67c2.57-4.6,5.11-9.19,9.09-12.84s8.06-6.78,13.09-8.69a26.3,26.3,0,0,0,2.35-1.2A9.64,9.64,0,0,1,922,64.25a14,14,0,0,1,7.74-3.49,8.44,8.44,0,0,1,3.53.29,20.61,20.61,0,0,1,9.82,5.71,5.63,5.63,0,0,0,3,1.71c2.33.55,4.61,1.3,6.9,2a38.1,38.1,0,0,1,13.47,7.38,18.78,18.78,0,0,0,2.39,1.49l.56.29Zm-63.82,4-.27.87c.32,0,.67.19.93.1s.54-.43.81-.65c.52-.29,1-.6,1.56-.87,4.84-2.46,10.05-3.77,15.26-5.11a84.84,84.84,0,0,1,28.43-2.36,19.14,19.14,0,0,1,2.78.6,13.38,13.38,0,0,0,2,.73c.44.09,1.12.37,1.37-.63L954.92,74c-1.25-.4-2.5-.81-3.76-1.2a57.46,57.46,0,0,0-11.26-2.25c-6.23-.6-12.17.73-18,2.75-4.19,1.45-8.34,3-11.88,5.86C908.53,80.35,907.09,81.61,905.61,82.84Zm34-15.63c-3.72-3.26-7.41-5-11.89-3.59a9.72,9.72,0,0,0-6.82,6.73c3.24-.81,6.07-1.7,9-2.18S936,67.55,939.65,67.21Z"/><path class="cls-1" d="M937.14,189.66c-3.38-.37-6.95-.74-10.52-1.17a15.56,15.56,0,0,1-8.16-3.47,50,50,0,0,1-5-4.62,8.49,8.49,0,0,1-2.6-6.84c.08-.65.39-1.21,1.06-1.23a1.75,1.75,0,0,1,1.24.56,5.12,5.12,0,0,1,1,1.9c1,4.25,8.27,9,12.29,9.52a83.55,83.55,0,0,0,16.5.61,31.59,31.59,0,0,0,10.4-2.66,16.91,16.91,0,0,0,7.31-6.72c1.17-1.8,2-3.81,3-5.7a16.77,16.77,0,0,1,2-2.94,1.69,1.69,0,0,1,1.59-.26,2.08,2.08,0,0,1,.9,1.4,3,3,0,0,1-.31,1.73c-2.27,4.5-4.53,9-8.12,12.65a19.06,19.06,0,0,1-7.2,4.63,31.06,31.06,0,0,1-10.86,2.23C940.2,189.27,938.77,189.52,937.14,189.66Z"/><path class="cls-1" d="M983.73,110.61c-.94-.67-1.82-1.27-2.69-1.9-2.59-1.89-3-3.71-1.26-6.47.69-1.12,1.58-2.1,2.34-3.18.39-.57.68-1.2,1.12-2a8.44,8.44,0,0,0-1.73-1.34c-1.53-.66-3.14-1.16-4.7-1.75a12.17,12.17,0,0,1-2.59-1.18,2.13,2.13,0,0,1-.61-1.53,1.46,1.46,0,0,1,1.64-1.07c3.13,1.46,6.63,2.08,9.49,4.13a3.39,3.39,0,0,1,1,4.75c-.59,1-1.38,2-2,3-.5.78-.93,1.62-1.45,2.55.67.59,1.15,1.09,1.71,1.49s1.27.69,1.84,1.12c2.65,1.94,3,3.42,1.45,5.72a4,4,0,0,0-.29.92c.45.89,1,1.92,1.49,3a10.94,10.94,0,0,1,.94,3.06,2.48,2.48,0,0,1-2.15,3c-.21-.43-.56-.83-.57-1.23a5.27,5.27,0,0,0-1.58-3.52c-.32-.36-.58-.77-.88-1.14-1.32-1.63-1.78-3.37-.69-5.32A4,4,0,0,0,983.73,110.61Z"/><path class="cls-1" d="M979.19,130.23l2.43-.46a8,8,0,0,1,4.22.53c3.47,1.2,4.09,3.64,1.56,6.22-.92.93-2,1.69-3,2.55a5.17,5.17,0,0,0-2.23,3.66c.67.46,1.34.92,2,1.37a30.21,30.21,0,0,1,3,2,4.42,4.42,0,0,1,1.23,5.79,10.22,10.22,0,0,1-4.89,5.05c-.93.43-1.85.5-2.47-.62.19-1.44,1.57-2,2.25-3.13a7.59,7.59,0,0,0,1.65-3.76,17.14,17.14,0,0,0-1.35-1.36,11.38,11.38,0,0,0-1.78-1.21c-4.23-2.33-3.6-6-.92-8.93.8-.87,1.85-1.51,2.74-2.3.68-.61,1.28-1.31,2-2-1.83-1.78-4-1.21-6.07-1.34-.11-.74-.2-1.4-.3-2.07Z"/><path class="cls-1" d="M958.75,165.34l2.1,2.74c-.16,1-.8,1.12-1.36.95a8.69,8.69,0,0,1-5.12-4.24,1.25,1.25,0,0,1,1.12-2,3.2,3.2,0,0,0,2.47-1.22c1.75-2.26,3.63-4.46,5.19-6.85,2.51-3.83,3-8.29,3.42-12.7.09-1,.07-1.92.23-2.86a1.14,1.14,0,0,1,1.28-1,1.74,1.74,0,0,1,1.09.77,5.56,5.56,0,0,1,.43,3.86c-.45,2.83-1,5.66-1.62,8.46-.81,3.46-2.89,6.27-5.05,9C961.6,161.94,960.21,163.56,958.75,165.34Z"/><path class="cls-1" d="M914.23,168.54c-1.27-2.77-1.29-2.75-3.83-5a12.09,12.09,0,0,1-2.12-2.4,32,32,0,0,1-4.64-10c-.52-2.32-1-4.65-1.44-7a6.13,6.13,0,0,1,.08-2.13,1.58,1.58,0,0,1,1.46-1.36,1.49,1.49,0,0,1,1.61,1.13,6.79,6.79,0,0,1,.26,1.75,33.14,33.14,0,0,0,4.79,15.21,15.41,15.41,0,0,0,5.05,5c2.07,1.34,2.17,2.2.45,3.84A10.57,10.57,0,0,1,914.23,168.54Z"/><path class="cls-1" d="M882.7,112.24c.31,4.32-2.71,6.48-5.44,8.81A.8.8,0,0,1,876,121a1.13,1.13,0,0,1-.14-1,15.11,15.11,0,0,1,1.48-2.44,6.94,6.94,0,0,0,1.86-4.89c-.12-1.62.93-2.65,2.15-3.5s2.35-1.58,3.63-2.44c-.44-1-.84-1.89-1.16-2.77a4.93,4.93,0,0,1,1.67-6.08,8.73,8.73,0,0,1,4.86-2.1c.53,0,.64,0,1.73,1.18a8,8,0,0,1-1.06.83,35.25,35.25,0,0,0-3.15,1.7c-1.68,1.16-1.86,2.1-1,4,0,.1.1.21.16.31,1.6,2.6,1.8,4-1.68,6.6C884.6,111,883.8,111.49,882.7,112.24Z"/><path class="cls-1" d="M969.64,96.43c1.49.48,2.51.75,3.49,1.12,2.78,1.07,3.22,2.87,1.3,5.23-.22.28-.51.5-.73.78a4.66,4.66,0,0,0-.42.78c.07.32.17.78.25,1.24s.13.87.18,1.24c-1.26.8-2,.13-2.62-.59-1.26-1.44-1.37-2.3-.77-5.13a20.69,20.69,0,0,1-2.11-1.14c-2.07-1.4-2.74-3.26-1.8-5.58a11.56,11.56,0,0,1,2-2.93,1.39,1.39,0,0,1,1.94-.24,1.5,1.5,0,0,1,.63,1.87C970.58,94.07,970.18,95,969.64,96.43Z"/><path class="cls-1" d="M918.79,101.94l-5.7.49a7.83,7.83,0,0,1-1.78.17,2.22,2.22,0,0,1-1.46-.76c-.36-.58.12-1.18.67-1.44a30.49,30.49,0,0,1,9.9-3A4.24,4.24,0,0,1,924,98.68a3.42,3.42,0,0,1,.79,1.87c.07.73-.81,1.48-1.73,1.52-1.43.08-2.86,0-4.3,0Z"/><path class="cls-1" d="M944.9,152.25a11.93,11.93,0,0,1,4.56,1.84,1.47,1.47,0,0,1,.58,1.16c-.06.33-.67.88-.94.83-1.62-.3-2.63.59-3.77,1.51a18.72,18.72,0,0,1-7.45,3.28,4.76,4.76,0,0,1-1.06.1,1.85,1.85,0,0,1-1.81-.9c-.26-.47.24-1.24,1.09-1.6,1.64-.69,3.33-1.28,4.94-2C942.86,155.58,944.76,154.72,944.9,152.25Z"/><path class="cls-1" d="M950.17,101.15c-1.31,0-2.62,0-3.93,0a12.06,12.06,0,0,1-2.47-.35,1.54,1.54,0,0,1-1.21-1.57,1.81,1.81,0,0,1,1-1.74,4.43,4.43,0,0,1,1.72-.41,27.42,27.42,0,0,1,9.17,1.27c.23.07.45.16.67.25,1.25.55,1.86,1.38,1.51,2.08-.49.93-1.39.8-2.2.77-1.44,0-2.87-.14-4.3-.22Z"/><path class="cls-1" d="M950.93,172.38a5,5,0,0,1-.35,1.44c-.24.36-.61.81-1,.87a1.72,1.72,0,0,1-1.21-.51,3,3,0,0,1-.7-1.22c-.65-1.91-1.29-3.82-1.88-5.76a3.22,3.22,0,0,1-.13-1.73,2,2,0,0,1,1.1-1.23c.45-.13,1.07.23,1.58.45a.94.94,0,0,1,.42.56C949.54,167.74,950.28,170.23,950.93,172.38Z"/><path class="cls-1" d="M941.81,172.31c-.31,1.32-.54,2.59-.94,3.81a1.4,1.4,0,0,1-1.09.69,1.53,1.53,0,0,1-1-.79,5.82,5.82,0,0,1-.39-1.72c-.21-1.65-.39-3.31-.57-5a5.63,5.63,0,0,1,0-1.42,1.6,1.6,0,0,1,1.3-1.5,1.43,1.43,0,0,1,1.68,1C941.21,169,941.46,170.66,941.81,172.31Z"/><path class="cls-1" d="M939.13,221.6a2,2,0,0,1,2,1.2,1.74,1.74,0,0,1-.25,2,25,25,0,0,1-3.06,2.94,2.39,2.39,0,0,1-3.13-3.58C935.84,222.77,937.15,221.58,939.13,221.6Z"/><path class="cls-1" d="M918,224.76c0-3,.88-4.21,3.08-4.82a2.43,2.43,0,0,1,2.6.72,2.34,2.34,0,0,1,.23,3,13.13,13.13,0,0,1-2.19,2.34c-1,.82-2.32,1-3,.35A4.31,4.31,0,0,1,918,224.76Z"/><path class="cls-1" d="M907.9,221.81a4.92,4.92,0,0,1-4.18,4.66,1.71,1.71,0,0,1-1.38-.83c-1-2.55,0-4.63,2.5-5.84C906.59,219,908,219.86,907.9,221.81Z"/><path class="cls-1" d="M952.14,227.84c-1.69,0-2.54-1-2.29-2.17a4.62,4.62,0,0,1,2.11-3.13,2.46,2.46,0,0,1,3.47.46,2.57,2.57,0,0,1-.54,3.76A12.43,12.43,0,0,1,952.14,227.84Z"/><path class="cls-1" d="M932.44,168.57a11.4,11.4,0,0,1-1.66,5.4,1.66,1.66,0,0,1-1.42.66,1.7,1.7,0,0,1-.82-1.37,52.45,52.45,0,0,1,.88-5.57,1.57,1.57,0,0,1,1.81-1.33C932,166.49,932.42,167.17,932.44,168.57Z"/><path class="cls-1" d="M924.48,168.19a12.63,12.63,0,0,1-1,2c-.17.24-.87.24-1.28.15-.26-.06-.66-.51-.63-.74a15.18,15.18,0,0,1,.55-3.08,1,1,0,0,1,1.45-.63,2.53,2.53,0,0,1,.83,1.05C924.49,167.14,924.43,167.42,924.48,168.19Z"/><path class="cls-1" d="M955.11,75.42c-.06-.47-.13-1-.19-1.42l3.53,1.52c-.25,1-.93.72-1.37.63A13.38,13.38,0,0,1,955.11,75.42Z"/><path class="cls-1" d="M905.61,82.84l1.47.31c-.27.23-.5.56-.81.66s-.61-.06-.93-.1Z"/><path class="cls-1" d="M959.75,290.61a17.54,17.54,0,0,1,2.83.4c2.14.69,3.94,1.87,4.36,4.29a5.93,5.93,0,0,1-2.67,6.52,8.17,8.17,0,0,1-7.51,1,3.54,3.54,0,0,1-2.64-3.08,2.18,2.18,0,0,1,.62-1.55,1,1,0,0,1,1.54.28,5.41,5.41,0,0,0,2.84,2.07,4.08,4.08,0,0,0,3.14-.13,3.78,3.78,0,0,0,2.59-3.52c0-1.64-.79-2.7-2.64-3.43-3.19-1.27-6-.24-7.84,2.89a6.31,6.31,0,0,1-.34.63,1.18,1.18,0,0,1-1.82-.23,2.21,2.21,0,0,1,.22-2.37A8.06,8.06,0,0,1,959.75,290.61Z"/><path class="cls-1" d="M953.74,119.56a8.55,8.55,0,0,1,2.15,0,2.29,2.29,0,0,1,1.26,1.07,1.46,1.46,0,0,1-.37,1.28,5.82,5.82,0,0,1-5.25,1.7,2.19,2.19,0,0,1-1.84-2.3,2,2,0,0,1,1.9-1.81l.36,0h1.79Z"/><path class="cls-1" d="M916.54,121.52a12.15,12.15,0,0,1,1.8.24,1.33,1.33,0,0,1,.55,2.26,6,6,0,0,1-5.69.93,2,2,0,0,1-1-2.11,1.58,1.58,0,0,1,1.49-1.31C914.45,121.47,915.16,121.52,916.54,121.52Z"/><path class="cls-1" d="M366.46,107.38c-.85-3.32-1.73-6.3-2.37-9.33a20.47,20.47,0,0,1,.1-8.57c.44-2.08,1.23-4.16.65-6.46a13.31,13.31,0,0,0-1.52-.87,9.8,9.8,0,0,1-5.38-6.41,64,64,0,0,1-1.76-7,8.63,8.63,0,0,1,4.44-9.68c.62-.37,1.26-.7,2-1.12a11.36,11.36,0,0,1,.72-2.26,2.11,2.11,0,0,1,1.35-.92c.27,0,.78.5,1,.88a4,4,0,0,1,.5,1.71c.13,3,.22,6,.24,9a1.31,1.31,0,0,1-.77,1,1.36,1.36,0,0,1-1.15-.58c-.67-1.53-1.21-3.1-1.87-4.84A3,3,0,0,0,359.73,64a7,7,0,0,0-.42,4.23c.16.94.49,1.86.67,2.8a11.94,11.94,0,0,0,8.51,9.76,3.44,3.44,0,0,1,.69.42c.21.59.46,1.25.68,1.85-1.6,1.73-1.6,1.73-2.17,4.36-.05.23-.12.46-.19.69-2.37,7.35,1,18.16,7.09,23.25.37.31.77.57,1.22.9a18.12,18.12,0,0,1,2-.73c.72-.17,1.62.54,1.45,1.19-.57,2.35-1.5,4.51-3.62,5.9-.14.09-.44-.07-.67-.11-.77-2.51-.78-2.5-3-4.57-.69-.65-1.31-1.38-2-2.09-1.08.09-1.27,1.06-1.63,1.71A18.38,18.38,0,0,1,358,122c-1.45.53-2.86,1.17-4.36,1.79.46,2,1.79,3,3.05,4.08a54.93,54.93,0,0,0,19.91,10.48c7.38,2.17,14.88,2.41,22.45,1.89a21.18,21.18,0,0,0,7.89-2.35,17.36,17.36,0,0,1,2.61-1.17,1.56,1.56,0,0,1,1.93.56,3.84,3.84,0,0,1,.23,2,2.17,2.17,0,0,1-.73,1.21,17.91,17.91,0,0,1-3.34,2.66,31.52,31.52,0,0,1-12.74,3.52,70.63,70.63,0,0,1-12.91-.56,51.21,51.21,0,0,1-19.29-6.52,67.19,67.19,0,0,1-12-8.49c-1.49-1.38-3.12-2.59-4.55-3.76a3.91,3.91,0,0,0-1,0c-6.18,2.3-12.47,4.33-18.37,7.31-4.61,2.33-9.31,4.46-13.83,6.93a36.45,36.45,0,0,0-6.37,4.65,59.59,59.59,0,0,0-8.92,9.85A48.68,48.68,0,0,0,291,170.07c-.93,2.84-1.52,5.79-2.2,8.71a4.3,4.3,0,0,0,.12,3.38c.47-.3,1.06-.49,1.33-.89a27.15,27.15,0,0,1,4.93-5.7,48.35,48.35,0,0,1,4.38-3.13,5.57,5.57,0,0,1,4.83-.53,16.36,16.36,0,0,1,7.76,5c1,1.17,1.94,2.43,3,3.82l4.74-1.51a27.05,27.05,0,0,1,2.72-.9c3.57-.74,5.85.69,7.42,4.67a17.56,17.56,0,0,0,7.35,2.86l1-1.35c1.66-2.12,3.38-2.52,5.63-1.27a12.81,12.81,0,0,1,5.51,6.88,3.36,3.36,0,0,1-.58,3.4,16.13,16.13,0,0,1-2.1,1.92c.6,1.52,1.22,2.82,1.62,4.19.6,2.06,1.05,4.17,1.57,6.26a4.55,4.55,0,0,1-.43,3.14,2.66,2.66,0,0,1-2.48,1.77c-.45,0-.91.08-1.52.13l1,2.56a5.37,5.37,0,0,1-1.47,1,2.55,2.55,0,0,0-1.54,1.4c-1,1.64-2,3.26-3,4.92q-6.6,11.35-13.18,22.72c-.53.92-1,1.88-1.66,3.15a7.51,7.51,0,0,0,2.2.1,11.13,11.13,0,0,0,4.84-3c3.41-3.55,6.95-7,10.31-10.56A28.7,28.7,0,0,1,358.16,225a36,36,0,0,1,5.68-.72,2,2,0,0,1,1.49.77,11.91,11.91,0,0,1,1.61,5.46,1.52,1.52,0,0,1-1.59,1.58,9.38,9.38,0,0,1-1.06-.18A14.49,14.49,0,0,0,351.08,236a55.61,55.61,0,0,0-6.14,7,47.27,47.27,0,0,1-8.84,8.92c-3.84,3-8.26,4.33-13.19,3.16-.81-.19-1.64-.28-2.55-.44-1.69,2.08-3.44,4.06-6.27,4.69a125.1,125.1,0,0,0,0,14.1c.06,1.07.18,2.15.22,3.23q.32,10.43,1.45,20.8c.52,4.77,1,9.54,1.45,14.31a14.49,14.49,0,0,1,0,2.87,1.74,1.74,0,0,1-1.67,1.59,1.58,1.58,0,0,1-1.49-1.34,16.91,16.91,0,0,1-.54-2.82c-.54-6.45-1.75-12.83-1.77-19.33,0-2.86-.48-5.71-.81-9.38-.39,1.26-.61,1.74-.7,2.24a130.83,130.83,0,0,1-3.6,15.4,69.3,69.3,0,0,1-5.09,12.27c-.49.94-.91,1.9-1.47,3.07,1.37.77,2.71.5,3.95.65s2.62.29,3.93.39,2.88.11,4.32.23,2.61.35,3.93.47,2.63.16,3.94.29,2.62.36,3.93.48,2.64.16,3.95.29,2.85.37,4.28.5,2.64.14,4,.29,2.56.42,4.15.69c-.37.63-.5,1.19-.81,1.31a6.55,6.55,0,0,1-2.4.55c-4.92-.08-9.84-.15-14.75-.39-6-.3-12-.79-17.95-1.16-7.3-.45-14.6-.86-21.9-1.3-4.19-.25-8.38-.49-12.56-.8a14.16,14.16,0,0,1-3.13-.7c-.37-.12-.63-.61-.91-.91a2.74,2.74,0,0,1,2.65-1.14c2.28,0,4.56,0,6.84-.06.8,0,1.6-.16,2.6-.26-.18-1-.27-1.81-.48-2.6-1-3.82-2.32-7.58-3.07-11.46a113.93,113.93,0,0,1-2.36-17.08,58,58,0,0,0-.69-6.43c-.85-5.49-.52-11-.64-16.52-.05-2.4-.23-4.79-.32-7.18a24.81,24.81,0,0,1,0-2.86c.25-3.82.54-7.63.83-11.66-.62-.68-1.37-1.45-2.07-2.26-2.3-2.65-2.42-4.54-.27-7.39a25.88,25.88,0,0,1,3.63-4,10.14,10.14,0,0,0,3.35-7.26c.46-5,1-10,1.74-15,1.39-9.63,3.5-19.1,5.71-28.54,1.66-7.11,3.58-14.21,7.17-20.66a48.4,48.4,0,0,1,18.85-19.32A106.3,106.3,0,0,1,325.71,128c1.58-.55,3.09-1.29,4.63-2A75,75,0,0,1,345,121.14a116.46,116.46,0,0,0,11.73-3.4,14.09,14.09,0,0,0,8-6.83C365.43,109.67,366,108.35,366.46,107.38Zm-50.82,142c-1.24.33-2.38.33-3.1-1a3.12,3.12,0,0,1,.26-3.39,4.62,4.62,0,0,1,6.25-1.64c1.25.65,2.44,1.41,3.61,2.1,4.83-11.84,11.7-22.3,18.51-32.89-4-3.1-7.93-6-11.72-9.13s-6.94-7.15-10.11-11.13a6.18,6.18,0,0,0-.45.86c-.5,1.88-1.56,2.89-3.65,2.58a2.93,2.93,0,0,0-1.72.3,26,26,0,0,0-5.52,4,22.4,22.4,0,0,1,.73,2.46c.46,2.54-1,4.23-3.63,4a23.62,23.62,0,0,1-3.82-.93c-1.25-.34-2.41-1-3.49-1-2.8,2.49-5.37,4.82-8,7.1a49.39,49.39,0,0,0-8.32,8.89c-2.11,3-2.13,6,.21,8.89.83,1,1.85,1.89,2.69,2.9a123.08,123.08,0,0,0,19,18,68.1,68.1,0,0,0,7.23,4.67,4.94,4.94,0,0,0,4.18.33,3.05,3.05,0,0,0,2-1.75c-.19-1.52-.32-2.56-.46-3.6a4.91,4.91,0,0,1,3.5.1c1.23.45,2.54.69,3.78,1.12,3.48,1.18,6.66.23,9.58-1.58a33.25,33.25,0,0,0,8.88-7.76q1.88-2.4,3.8-4.77a19.34,19.34,0,0,1,6.88-5.64,25.24,25.24,0,0,1,9.6-2.67c.61,0,1.21-.15,1.31-.92s-.52-1.25-1.39-1.24a4.87,4.87,0,0,0-1.08.08c-5.9,1.28-11.57,3.07-15.91,7.63-1.49,1.56-2.95,3.14-4.42,4.72-2.27,2.46-4.55,4.91-6.8,7.39a14.35,14.35,0,0,1-5.41,3.43,6,6,0,0,1-5.22-.12c-1.69-.87-3.27-2-4.92-2.91a18.68,18.68,0,0,0-2.05-.84C316.14,247.28,315.89,248.3,315.64,249.33ZM276.5,226.08c-1.94,2-3.59,3.59-5.06,5.3-1.33,1.54-1.26,2.94.08,4.51,1,1.18,2.14,2.25,3.33,3.51-.1,2.07-.28,4.21-.3,6.36-.07,6.71-.23,13.42-.05,20.12.13,4.78,1,9.54,1.11,14.31a174.53,174.53,0,0,0,1.69,17.87,41.86,41.86,0,0,0,2.93,11.45,37.5,37.5,0,0,1,1.32,4.46c.19.66.34,1.33.51,2,1.35.21,2.52.44,3.71.55s2.63.12,4,.14c6.13.11,6.08.08,9-5.46a76.57,76.57,0,0,0,4.85-12.36,133.89,133.89,0,0,0,5.47-23.75q.34-2.67.84-5.32a41,41,0,0,0,.22-11.09l-4.06-2.21a2.18,2.18,0,0,0-2.34.06c-1.1.61-2.2.11-2-.87.37-1.93-.8-2.87-2-3.87A164.41,164.41,0,0,1,286,238.58c-1.46-1.55-2.89-3.13-4.38-4.75-.56.24-1,.38-1.42.6-1.28.66-2.53,1.37-3.81,2a1.34,1.34,0,0,1-1.66-.13,1.42,1.42,0,0,1-.08-2,25.8,25.8,0,0,1,2.56-2.45c.5-.45,1-.86,1.63-1.34ZM306,192.34c1.43-3.12,1.46-3.31.52-5.23-.48-1-1.07-1.87-1.53-2.85a5.25,5.25,0,0,1-.43-1.71,1.14,1.14,0,0,1,.41-.92c.38-.19,1-.35,1.3-.15a8.15,8.15,0,0,1,2.28,2.21c1.52,2.76,3.8,4.91,5.66,7.39a8.27,8.27,0,0,0,1.44,1,16.14,16.14,0,0,0-.55-2.59c-1-2.3-2.09-4.57-3.16-6.84a15.84,15.84,0,0,0-5.61-6.4,4.89,4.89,0,0,0-2.67-.83,6.18,6.18,0,0,0-4.86,1.83A39,39,0,0,0,289.05,193a5.46,5.46,0,0,0-.26,1c-.53,4.27-1.06,8.54-1.54,12.82-.06.53-.24,1.2.71,1.68,2-.95,3.21-2.95,5-4.07.16-1.05.29-1.95.41-2.74,4.28-1.33,7.83,1.24,12,1.72-.25-.77-.26-1.31-.54-1.53a12.06,12.06,0,0,0-5.45-2.57c-1.63-.29-3.24-.69-5.13-1.09.27-.71.31-1.39.66-1.66a3.27,3.27,0,0,1,2.74-.44,25.83,25.83,0,0,0,3.92.43,8.29,8.29,0,0,0,2.07-.49,9.1,9.1,0,0,0-2.81-5.12c-.76-.77-1.56-1.49-2.27-2.29a1,1,0,0,1-.15-1,1.67,1.67,0,0,1,1.12-.64,2.94,2.94,0,0,1,1.66.52,28.22,28.22,0,0,1,2.61,2.41C304.48,190.66,305.07,191.36,306,192.34Zm20.45-3.81c2.65,4,9.42,11,14.86,15.28a20.13,20.13,0,0,0,5.58,3.65,6.67,6.67,0,0,0,.15-1.92,15.8,15.8,0,0,0-2.16-5.28,31.14,31.14,0,0,1-2.4-4c-1.08-2.18-.49-3.4,1.87-4.37a12.1,12.1,0,0,0,1.55-.9c-1.07-2-2.05-3.71-4-4.48a2.23,2.23,0,0,0-.42.25,10.41,10.41,0,0,0-.62.86c-1.27,1.95-1.75,2.17-3.76,1.41-1.67-.64-3.31-1.37-5-2.09a4.54,4.54,0,0,0-3.2-.53ZM330.52,200l.59-.47c-.31-.45-.61-.91-.95-1.34q-2.57-3.19-5.16-6.37a9.1,9.1,0,0,0-1.66-1.83,8.9,8.9,0,0,0-2.49-.59A49.47,49.47,0,0,0,330.52,200Zm-19.77-9a6.4,6.4,0,0,1-3.69,4c-.84.33-1.13,1.15-.29,2.12a48.25,48.25,0,0,0,5.93-3.54Zm11.09-4c2.35-.16,3.17-1.47,3.92-2.84a1.25,1.25,0,0,0-1.05-2,10.17,10.17,0,0,0-1.84.12C322.55,183.72,322.25,185.08,321.84,187Zm-2.51-3.16-2.49.59a10.23,10.23,0,0,0,1.48,4.07c.15.29.65.4,1.31.77ZM281.6,214.2c2.78-1.43,2.06-3.49,1.82-5.85C282.14,210.27,282.09,212.1,281.6,214.2Zm7.11-30.91-.39-.32a1.59,1.59,0,0,0-.22.55c0,.11.23.22.35.33C288.54,183.66,288.62,183.47,288.71,183.29Z"/><path class="cls-1" d="M428.72,93.84c3-1.78,4.88-4.51,6.45-7.5.39-.74.63-1.55,1.07-2.26a1.34,1.34,0,0,1,2.33.31,4.39,4.39,0,0,1,.21,2.09,12.23,12.23,0,0,1-2.8,6.14,33.28,33.28,0,0,1-3.34,3.27c-2.33,2-3.13,2.09-6.39,1.34a20.75,20.75,0,0,0-1.2,2.07c-3.08,7.15-8.38,12.48-14.17,17.43-.27.23-.59.41-.87.63-2.63,2-2.48,2.89.66,4.36a47.76,47.76,0,0,0,12,3.57c5.41,1,10.76,2.33,16.14,3.52a2,2,0,0,1,.35.09c8.26,3.78,17,6.75,23.9,13a41.91,41.91,0,0,1,9.52,11.64c4.12,7.86,8.09,15.8,10.73,24.32a119.44,119.44,0,0,1,4.78,20.63c.76,6.06,1.68,12.11,2.52,18.16.1.71.16,1.43.21,2.15.43,5.73,1,11.46,1.21,17.21a86.5,86.5,0,0,1-.65,11.47c-.26,2.46-1.58,3.45-4.1,3.67-.36,0-.73-.06-1.08,0a2.65,2.65,0,0,0-2.51,2.57c-.22,2.27-.45,4.54-.54,6.81-.32,8.39-.58,16.78-.86,25.17a228.14,228.14,0,0,1-2.52,26.47c-.53,3.56-1.11,7.1-1.64,10.66a5.79,5.79,0,0,0,.12,1.25,15.64,15.64,0,0,0,1.86.72c4.4,1.18,8.81,2.31,13.21,3.48a16.68,16.68,0,0,1,2.39.78c1.28.53,1.79,1.22,1.66,2.06s-.93,1.39-2.22,1.37a20.39,20.39,0,0,1-3.22-.28c-8-1.43-16-2.85-24.05-4.35A159.11,159.11,0,0,0,447.6,325c-5-.29-10-1.11-15-1.67-2.86-.33-5.72-.61-8.58-.93q-6.24-.72-12.47-1.48a4.28,4.28,0,0,1-1.69-.52c-.3-.18-.39-.7-.68-1.26,3.12-.68,6-.32,8.83-.34s5.52.06,8.27.17,5.74.36,8.61.51,5.52.27,8.27.32,5.68.93,8.71.31c.23-11.42.46-22.78.7-34.14,0-1.91.27-3.83.23-5.74-.17-7.44-.17-14.88-.69-22.29-.6-8.49-1.64-16.94-2.56-25.4-.68-6.19-1.5-12.37-2.19-18.56-.19-1.66-.18-3.35-.22-5a2.52,2.52,0,0,1,.21-1.39,2.37,2.37,0,0,1,1.36-.91,1.43,1.43,0,0,1,1.08.74,7.25,7.25,0,0,1,.53,2.07c.83,5.69,1.67,11.38,2.45,17.08.82,6.06,1.59,12.12,2.39,18.18a3.68,3.68,0,0,0,.3.76c1,.93,2.34,1,3.59,1.22a82.44,82.44,0,0,0,10.68,1.42,32.26,32.26,0,0,0,12.34-2.09,10.49,10.49,0,0,0,1.89-1,2.51,2.51,0,0,0,1.22-2.44c-.36-5.14-.69-10.28-1.06-15.42-.2-2.75-.52-5.5-.68-8.25a114.3,114.3,0,0,0-3.92-23.36c-.87-3.23-1.57-6.52-2.17-9.82a74.31,74.31,0,0,0-12.48-29.21c-1-1.48-2.08-2.93-3.15-4.38a36.66,36.66,0,0,0-19.17-13.31c-11-3.46-21.85-7.24-33.1-9.75a9.5,9.5,0,0,1-7.33-6.36l-3,.29c-.47.91-.87,1.77-1.35,2.59s-1,1.39-2,1.21a1.65,1.65,0,0,1-1.14-2c.34-2.12.78-4.23,1.33-6.31a1.63,1.63,0,0,1,2.24-1.25c2.64,1,4.74-.25,6.72-1.53,6.95-4.49,12.76-10.07,16.66-17.53,1.66-3.18,3.71-6.15,5.6-9.21a4.73,4.73,0,0,1,1-1,.71.71,0,0,1,.65-.15c.29.16.69.46.69.71a7.38,7.38,0,0,1-.29,2.09c-.27.92-.68,1.79-1,2.68L428,94Zm53.65,154.4a29.69,29.69,0,0,1-5.56,1.25c-4.28.16-8.59.1-12.87-.09a53.49,53.49,0,0,1-6-1c-.58-.09-1.22.09-1,1.25,2.8.51,5.69,1.27,8.62,1.51a59.15,59.15,0,0,0,9.69,0c2.57-.21,5.17-.79,7.17-2.72a4.81,4.81,0,0,0,.65-.18c.1,0,.16-.15.24-.23-.19-.08-.4-.25-.55-.2S482.53,248.08,482.37,248.24Zm-25.87,5.63c0,1.32-.09,2.37,0,3.42.2,4.66.57,9.33.61,14,.06,6.71.08,13.41-.43,20.12-.35,4.65-.17,9.35-.39,14a79.11,79.11,0,0,1-1.35,13.21c-.14.65-.23,1.32-.36,2,3.66.39,7.1.75,10.54,1.15s6.91,1.59,10.62,1.75l.23-2.31c.32-3.34.61-6.68,1-10,.58-5.35,1.34-10.69,1.8-16.05.44-5.13.58-10.28.87-15.42q.41-7.35.83-14.71c0-.83.25-1.66.31-2.49.23-2.86.43-5.71.63-8.57,0-.09-.14-.19-.33-.44a91.93,91.93,0,0,1-11.86,1.92C464.93,255.75,460.91,254.47,456.5,253.87Z"/><path class="cls-1" d="M388.17,276.41c4.5.22,8.29,2.06,12.18,3.61a8.79,8.79,0,0,1,2.67,1.72c1.26,1.17.86,2.77-.76,3.42a7.37,7.37,0,0,1-1.74.42c-.82.12-1.66.16-2.78.26a19.62,19.62,0,0,0,.6,2c1.74,4.21,3.54,8.4,4.3,12.93.45,2.71.83,5.44,1.07,8.18a10.92,10.92,0,0,1-1.92,7.51,4.91,4.91,0,0,1-3.17,2.19,15.54,15.54,0,0,1-4.62.48,35.88,35.88,0,0,0-6.8.15,127.49,127.49,0,0,1-17.26-.23c-3.81-.26-7.66,0-11.49,0a25.47,25.47,0,0,1-5.32-.4,5.94,5.94,0,0,1-2.56-1.84,2.51,2.51,0,0,0-3.29-.51c.84,3.27-.38,6.62.48,9.91a3.12,3.12,0,0,0,1,.4c4,0,7.92.17,11.86-.06a128.12,128.12,0,0,1,18.69,0c.12,0,.23,0,.35,0q11.51.5,23,1a6.64,6.64,0,0,0,1.25-.27,9.21,9.21,0,0,0-.18-2c-.32-1-.81-2-1.21-3a14.93,14.93,0,0,1-.65-1.68c-.15-.58-.17-1.25.45-1.58a1.07,1.07,0,0,1,1.48.61c.79,1.49,1.56,3,2.26,4.5.46,1,.76,2,1.2,3a6.56,6.56,0,0,1,.41,4.55c-.31,1.14-.47,2.32-.67,3.33-1.29,1.11-2.65.9-3.95.86-7.67-.23-15.33-.51-23-.74-2.4-.07-4.8,0-7.2,0s-5-.24-7.52-.36l-2.52-.12c-5.15-.29-10.29-.55-15.44-.88-2.21-.15-3-1.05-2.92-3.22.13-3.6.31-7.19.5-10.78a9,9,0,0,1,.37-2.11,10.45,10.45,0,0,1,.7-1.48c-1.71-.66-3.28-1.2-4.81-1.86a7.07,7.07,0,0,1-4.17-5.5,14,14,0,0,1,.11-6.77c1-3.57,2-7.15,3.29-10.64a15.64,15.64,0,0,1,2.64-4.65A10.94,10.94,0,0,1,351,282.4a9.83,9.83,0,0,0,1.41-.22c.09,0,.16-.13.26-.22.18-.81-.4-1-1-1.13-1.47-.33-1.87-1.37-1.83-2.69a2.41,2.41,0,0,1,1.91-2.34,50.72,50.72,0,0,1,5.56-1.38,19.86,19.86,0,0,0,5.4-1.37c-1.71-4-3.3-8-5.13-11.86-1.72-3.68-3.09-7.56-5.48-10.91a4.76,4.76,0,0,1-.64-1.67,2.81,2.81,0,0,1,1.52-3.32,9,9,0,0,1,4.47-1.18c4,0,7.91,0,11.87,0L391,244a37.33,37.33,0,0,1,4,.09c1.05.11,2.36.17,3.06.81,1.64,1.49,3.42,1.41,5.36,1.24a12.52,12.52,0,0,1,5.64.89c4.15,1.58,6.12,5.66,3.56,9.91a22.3,22.3,0,0,1-8.62,8.48c-2.64,1.41-5.31,2.79-8,4a33,33,0,0,1-4.57,1.29A20.94,20.94,0,0,0,388.17,276.41Zm5.75-10c2.86-1.46,5.74-2.89,8.56-4.41a18.49,18.49,0,0,0,7.16-7.33c1.06-1.83.61-3.16-1.3-4.08a6.86,6.86,0,0,0-2.37-.72,14,14,0,0,0-5.28.26,6.69,6.69,0,0,0-.66.92c-1.9,4.11-3.82,8.22-5.66,12.35a15.52,15.52,0,0,0-.71,2.74c-.05.23-.09.46-.14.68Zm-34.23,23a7.59,7.59,0,0,0-.92,1.15c-1.1,2.13-2.19,4.26-3.21,6.43-3.08,6.55-1.38,12.74,1.38,19,1.71-.12,3.25-.29,4.79-.33,2-.05,4,0,6.08,0,1.31,0,2.62.19,3.93.28s2.63.14,3.94.23c2,.14,4.05.44,6.07.4,4.55-.08,9.09-.3,13.63-.53,2.85-.15,4.05-1.35,4.33-4.25a30.46,30.46,0,0,0,0-3.94c-.27-6.08-2.21-11.72-4.55-17.25-.08-.19-.35-.3-.36-.31-2.77.18-5.38.44-8,.49-4.07.08-8.14,0-12.21,0a35.15,35.15,0,0,1-9.59-1.17A14.77,14.77,0,0,0,359.69,289.36Zm-2.63-42.3a8.64,8.64,0,0,0,1.74,4.64,78.25,78.25,0,0,1,5.63,11.62c1.55,3.63,2.8,7.38,4.12,11.1a2.35,2.35,0,0,1-1,3.12,8.24,8.24,0,0,1-5,1.68,10.68,10.68,0,0,0-1.79.07c-.44.07-1.08-.28-1.35.58a32.37,32.37,0,0,0,3.51.75c3.09.31,6.2.51,9.3.76,5.37.44,10.73.94,16.09,1.29,2.51.17,5,.1,7.54.05.46,0,.91-.44,1.65-.82a15,15,0,0,0-1.54-.88,22.42,22.42,0,0,0-8.71-1.89c-2.34,0-3.26-1.39-2.51-3.56a17.76,17.76,0,0,1,1.59-3.21,65,65,0,0,0,4.1-8.38c1.88-4.53,4-9,6-13.44.36-.82.57-1.72.91-2.76a18.82,18.82,0,0,0-2.58-.83,18.28,18.28,0,0,0-2.87-.13l-32.34.06C358.8,246.88,358.09,247,357.06,247.06Zm-3.49,38c-5.37.81-8.25,3.8-9.92,8.05a101.56,101.56,0,0,0-3.45,10.18,17.23,17.23,0,0,0-.3,5.33,3,3,0,0,0,2.63,3,12.76,12.76,0,0,0,5.75-.19,9.53,9.53,0,0,0,0-1.86,22.53,22.53,0,0,1,.08-9.25,68,68,0,0,1,3.76-11.57C352.53,287.64,353,286.56,353.57,285.06Zm51.69,45.28-9.73-.64c-3.22-.2-6.44-.45-9.67-.56s-6.22-.09-9.33-.12-6.47,0-9.7,0-6.23-.24-9.34-.08-6.35-1.13-9.5-.08c-.1,2.34.07,2.61,1.78,2.75.71.06,1.43.06,2.15.07,7.54.05,15.08.09,22.62.16q3.24,0,6.46.19c3.94.2,7.88.46,11.82.7,1.79.1,3.58.26,5.37.28,2.23,0,4.49.38,6.83,0C405.1,332.06,405.16,331.39,405.26,330.34Zm-51.42-46.22c.07-.07.19-.14.19-.21s-.1-.17-.16-.25-.18.14-.19.22S353.78,284,353.84,284.12Z"/><path class="cls-1" d="M424.87,15.92a17.21,17.21,0,0,0,0,2,70.27,70.27,0,0,1-.22,19.7,9.9,9.9,0,0,1-.56,2.07,2,2,0,0,1-2.34,1.21,2,2,0,0,1-1.49-1.82,3.51,3.51,0,0,1-.06-1.07c.89-6.21.5-12.45.59-18.68,0-1.78.29-3.55.49-5.75a21.92,21.92,0,0,1-3.49-6.9,4.58,4.58,0,0,0-5.37-3.22,21.61,21.61,0,0,0-4.14,1.16,13.19,13.19,0,0,1-5.26,1,5.48,5.48,0,0,1-1.37-.33,1,1,0,0,1-.27-1.53c.18-.15.36-.38.57-.41,3-.41,5.58-2.13,8.46-2.92A12.27,12.27,0,0,1,413.6,0a7.64,7.64,0,0,1,7.45,5.19c.38,1,.61,2.07,1,3.07,1,2.47,2.35,3.6,4.95,3.23,5.79-.82,9.72,1.83,12.7,6.34,2.57,3.89,5.1,7.84,7.38,11.91s4.11,8.12,6.12,12.21a53.47,53.47,0,0,1,4,11.14,8.89,8.89,0,0,1-2,8,13.33,13.33,0,0,1-4.73,3.79c-1.73.83-3.4,1.77-5.13,2.61A12,12,0,0,0,439.1,75a13.31,13.31,0,0,1-2.26,4.85,5.82,5.82,0,0,1-1.65,1.31A1.19,1.19,0,0,1,433.52,80a1.42,1.42,0,0,1,0-.36c1.44-3.41,2.27-7.1,4.56-10.12a15.87,15.87,0,0,1,2.19-2.37c2.08-1.79,4.19-3.58,6.38-5.24a6.59,6.59,0,0,0,2.76-5.55,32.19,32.19,0,0,0-1.15-7.81C446,38.83,441.65,30,436.4,21.67a18.76,18.76,0,0,0-2-2.57C432,16.41,429.18,15.46,424.87,15.92Z"/><path class="cls-1" d="M393.14,3.1c1.2,0,2.4,0,3.59,0a1.88,1.88,0,0,1,2,1.17c.27.78-.26,1.51-1.54,2.07a14.9,14.9,0,0,1-2,.73c-7,1.92-13.15,5.65-19.08,9.74a45.63,45.63,0,0,0-8.81,8.41c-2.53,3-3.41,6.83-3.71,10.69a36.71,36.71,0,0,0,.71,12.49c.06.23.09.47.13.7.24,1.46,0,2.3-.71,2.47-1.16.28-1.75-.54-2.33-1.3a6.68,6.68,0,0,1-.92-1.54c-3.65-9.29-3.85-18.55,1.32-27.28A39.76,39.76,0,0,1,375.5,8a31.36,31.36,0,0,1,11.93-4.7c1.88-.28,3.8-.3,5.7-.44Z"/><path class="cls-1" d="M415,41.94c.54.51,1.18.84,1.33,1.32A2.17,2.17,0,0,1,416,44.9a14.23,14.23,0,0,1-2.13,2.39,25,25,0,0,1-6.05,3.82c-3,1.47-5.86,2-8.47-.54a18.49,18.49,0,0,0-8.22,13,17.48,17.48,0,0,1,2.65.87,4.65,4.65,0,0,1,1.59,1.37,1.44,1.44,0,0,1-1.05,2.37c-1.07.08-2.15,0-3.22.12a2.27,2.27,0,0,0-2.24,2c-.31,1.64-.52,3.3-.81,4.94a14.21,14.21,0,0,1-.53,2c-.05.15-.41.28-.61.27a.8.8,0,0,1-.57-.35,3.35,3.35,0,0,1-.35-1.36c.06-2.14.19-4.28.3-6.68a8.74,8.74,0,0,0-1.82-.12c-.94.13-1.85.5-2.79.6a1,1,0,0,1-.82-1.84,35.49,35.49,0,0,1,3.89-2.53,29,29,0,0,1,3.15-1.34c.43-1.26.93-2.59,1.34-3.95,1.54-5.1,4.79-9,8.54-12.62a32.53,32.53,0,0,1,10-6.78A39.66,39.66,0,0,1,412.53,39a5.79,5.79,0,0,1,2.12,0c.83.09,1.23.95.93,1.93A6.42,6.42,0,0,1,415,41.94Zm-14.44,7.85c1.55-.14,3.14-.1,4.51-1,2.33-1.47,4.64-3,6.92-4.48.28-.19.35-.68.57-1.17-4.32.35-8.6,2.59-12.33,6.29l-.37.7Zm13.35-7-.24-.22,0,.42Z"/><path class="cls-1" d="M374.8,231.32c.31,1.76.61,3.52.93,5.32a9.22,9.22,0,0,0,4.54.89c5.39,0,10.77,0,16.16,0,1.56,0,3.11.08,4.66.2a2,2,0,0,1,2,1.25,2.41,2.41,0,0,1-.93,2.54c-1,1-1.7.75-2.34-.67l-.47-1.1c-1,0-2.11-.1-3.17-.11-6.11-.06-12.21-.1-18.32-.18a5.56,5.56,0,0,0-3.71.93,5,5,0,0,1-2.72.6c-3.23.07-6.46,0-9.7,0h-3.56c-.28.6-.47,1-.67,1.45A1,1,0,0,1,356,243a4.67,4.67,0,0,1-1.09-.9c-1.5-1.62-1-3.22,1.2-3.55a34.32,34.32,0,0,1,5.37-.2c3.11,0,6.22.2,9.34.24a9.34,9.34,0,0,0,2.07-.47c-.61-3.59-1-7.05-4.44-9.28.83-1.09,1.67-2,1.33-3.41-.19-.78.67-1.47,1.51-1.79a1.54,1.54,0,0,1,1.93.49,1.88,1.88,0,0,1,.1,1.66,13.86,13.86,0,0,1-2.1,2.11l2,1.59a8.36,8.36,0,0,1,1.8-1.67,3.91,3.91,0,0,1,2.1-.06,1.49,1.49,0,0,1,1.37,1.43,1.42,1.42,0,0,1-1.31,1.47,10.56,10.56,0,0,1-1.78,0l-.83-.2Z"/><path class="cls-1" d="M413.71,191.28c-4.67,0-9.34.06-14,0a44.42,44.42,0,0,1-6.41-.6,5.63,5.63,0,0,1-2.44-1.35,1.5,1.5,0,0,1,.66-2.56,7.33,7.33,0,0,1,1.41-.14,252.27,252.27,0,0,1,32.64,1.13c1.31.11,2.64.08,3.94.22a14,14,0,0,1,2.78.65,1.54,1.54,0,0,1,1.1,1.66,1.47,1.47,0,0,1-1.38,1.42,21.66,21.66,0,0,1-3.22.1c-5-.18-10.05-.39-15.07-.6Z"/><path class="cls-1" d="M400.84,324.49a4.09,4.09,0,0,1-1.18.54,26.51,26.51,0,0,1-3.22.18q-20.85,0-41.69.06a14.74,14.74,0,0,1-3.18-.33c-.3-.06-.68-.74-.65-1.1a1.37,1.37,0,0,1,.83-1,8,8,0,0,1,2.14-.17c11.74.05,23.48.07,35.22.18,3.35,0,6.69.31,10,.5C399.83,323.41,400.63,323.33,400.84,324.49Z"/><path class="cls-1" d="M431.22,66.34c-.74-.59-1.48-1.16-2.22-1.76a6.33,6.33,0,0,1-2.56-5.3c0-1.19.14-2.39.26-3.58.08-1,.24-1.9.34-2.85a6.62,6.62,0,0,0-2.18-6.17,4.12,4.12,0,0,1-.63-1c.32-.33.6-.87.94-.92a3.76,3.76,0,0,1,2.06.17,5.08,5.08,0,0,1,2.46,3,8.86,8.86,0,0,1,.51,4.59c-.32,1.77-.5,3.57-.83,5.33a4.21,4.21,0,0,0,2.14,4.88c4,2.25,3.31,4.27,2,7.18A45.1,45.1,0,0,0,429.58,81a2.49,2.49,0,0,1-.69,1.22,1.35,1.35,0,0,1-.95.24.7.7,0,0,1-.45-.48,10.11,10.11,0,0,1-.08-2.13,30.7,30.7,0,0,1,2.28-8.66A15.6,15.6,0,0,0,431.22,66.34Z"/><path class="cls-1" d="M398.3,99.08a22.17,22.17,0,0,1-2.88-1.1c-.37-.19-.6-1-.6-1.49,0-.28.63-.69,1-.78a38.25,38.25,0,0,1,3.88-.63,2.55,2.55,0,0,0,2.41-2.24c.38-1.86.87-3.71,1.13-5.6a23.41,23.41,0,0,1,3.05-8.72,10.56,10.56,0,0,1,2.11-2.37,1.39,1.39,0,0,1,1.3-.09,1.28,1.28,0,0,1,.29,1.19c-.31.9-.82,1.73-1.19,2.6a26.28,26.28,0,0,0-2.25,7.88,56.65,56.65,0,0,1-1.17,6.32C404.62,97.58,402.61,99.15,398.3,99.08Z"/><path class="cls-1" d="M415.6,66.74a27.28,27.28,0,0,1,3.63.94c2,.83,3.9,1.82,5.83,2.77a2.15,2.15,0,0,1,.83.65c.19.28.38.74.27,1s-.6.84-1,.88a6.08,6.08,0,0,1-2.11-.25,26.55,26.55,0,0,0-10.64-1c-1.55.21-2.35-.29-2.68-1.24s.18-2,1.8-2.64C412.91,67.36,414.32,67.09,415.6,66.74Z"/><path class="cls-1" d="M382.27,47.09a24.39,24.39,0,0,1-.51,2.55,49.69,49.69,0,0,0-2.6,16.23,6.42,6.42,0,0,1-1,4.32c-.38-.38-.86-.64-.95-1a24.4,24.4,0,0,1-.59-3.52c-.11-1.31,0-2.63-.15-3.94-.47-5,1.44-9.38,3.84-13.59a4.48,4.48,0,0,1,1-1C381.43,47.09,381.59,47.13,382.27,47.09Z"/><path class="cls-1" d="M383.86,100.15a13.51,13.51,0,0,1,1.19,1.53,13.09,13.09,0,0,0,5.1,5.33l.31.19a1.65,1.65,0,0,1,.64,2.17,2,2,0,0,1-2.42,1,6,6,0,0,1-1.48-1,16,16,0,0,1-4.34-6.84A1.76,1.76,0,0,1,383.86,100.15Z"/><path class="cls-1" d="M390.22,119.69a20.21,20.21,0,0,1-2,6.56,2.31,2.31,0,0,1-1.05.9,1.23,1.23,0,0,1-1,0,1.07,1.07,0,0,1-.45-.85c.53-2.58,1.12-5.14,1.72-7.7a1,1,0,0,1,.33-.61c.38-.23.86-.56,1.23-.49a1.7,1.7,0,0,1,1,.9A4.36,4.36,0,0,1,390.22,119.69Z"/><path class="cls-1" d="M383.17,114.88c.25.2.53.3.6.48a1.57,1.57,0,0,1,.13,1c-.82,2.21-1.66,4.42-2.57,6.6a2,2,0,0,1-1,1,1.57,1.57,0,0,1-1.29,0c-.31-.19-.67-.88-.55-1.14,1.2-2.56,2.48-5.08,3.78-7.58C382.42,115,382.9,115,383.17,114.88Z"/><path class="cls-1" d="M402.5,107.4a5.32,5.32,0,0,1-.44,1.48,1.78,1.78,0,0,1-1.08.79,1.37,1.37,0,0,1-1.18-.54,58.6,58.6,0,0,1-1.84-5.77,1.71,1.71,0,0,1,.85-1.39,1.91,1.91,0,0,1,1.61.33C402.1,103.62,402,105.65,402.5,107.4Z"/><path class="cls-1" d="M414.85,90.42a1.76,1.76,0,0,1-1.92-1.64,2,2,0,0,1,2-1.71,1.63,1.63,0,0,1,1.85,1.26A1.9,1.9,0,0,1,414.85,90.42Z"/><path class="cls-1" d="M387.82,100.42c-.22-.42-.73-.92-.66-1.31A2.7,2.7,0,0,1,389.27,97a1.45,1.45,0,0,1,1.23.43,1.4,1.4,0,0,1,.17,1.28A4.14,4.14,0,0,1,387.82,100.42Z"/><path class="cls-1" d="M389.05,82.16a1.8,1.8,0,0,1,1.72,1.5,1.9,1.9,0,0,1-2.11,1.85,1.7,1.7,0,0,1,.39-3.35Z"/><path class="cls-1" d="M394,105.69c-.28-.42-.7-.78-.71-1.15,0-1.2-.84-2.6.67-3.49a.72.72,0,0,1,.64.13C395.6,102.27,395.4,104,394,105.69Z"/><path class="cls-1" d="M482.5,248.41c-2,1.92-4.6,2.5-7.17,2.71a59.15,59.15,0,0,1-9.69,0c-2.93-.24-5.82-1-8.62-1.51-.26-1.16.38-1.34,1-1.25a53.49,53.49,0,0,0,6,1c4.28.19,8.59.25,12.87.09a29.69,29.69,0,0,0,5.56-1.25Z"/><path class="cls-1" d="M482.37,248.24c.16-.16.29-.39.47-.45s.36.12.55.2c-.08.08-.14.19-.24.23a4.81,4.81,0,0,1-.65.18Z"/><path class="cls-1" d="M376.54,310.74c-3.69.3-7.39.54-11.07.92-2,.21-4.05.59-5.39,2.43a1.09,1.09,0,0,1-1.59.23,1.32,1.32,0,0,1-.42-1.61,4.08,4.08,0,0,1,2.16-2.29,17.38,17.38,0,0,1,5.83-1.64c6.33-.9,12.66-.46,19,0a25,25,0,0,1,8.28,2.24,6.31,6.31,0,0,1,1.73,1.22c.18.17.12.68,0,1a.69.69,0,0,1-.56.35,5.93,5.93,0,0,1-1.39-.22c-2.2-.58-4.38-1.21-6.58-1.76C383.27,310.84,379.9,311,376.54,310.74Z"/></g></g></svg>