<svg width="45" height="35" viewBox="0 0 45 35" fill="none" xmlns="http://www.w3.org/2000/svg">
<path d="M38.5004 0H6.49961C2.91239 0 0 2.88345 0 6.43503V28.565C0 32.1165 2.91239 35 6.49961 35H38.5004C42.0876 35 45 32.1165 45 28.565V6.43503C45 2.88345 42.0876 0 38.5004 0ZM38.5004 3.07099C38.7609 3.07099 39.0213 3.10616 39.2699 3.16477L25.7735 18.3322C24.9448 19.2582 23.749 19.7974 22.5059 19.7974C21.2628 19.7974 20.0671 19.2699 19.2384 18.3322L5.74191 3.16477C5.99053 3.10616 6.25099 3.07099 6.51144 3.07099H38.5122H38.5004ZM41.8863 28.565C41.8863 30.4169 40.371 31.9173 38.5004 31.9173H6.49961C4.62904 31.9173 3.11365 30.4169 3.11365 28.565V6.43503C3.11365 5.98962 3.20837 5.55592 3.36227 5.15739L16.8942 20.36C18.3149 21.9541 20.3512 22.8684 22.4941 22.8684C24.6369 22.8684 26.6732 21.9541 28.0939 20.36L41.6259 5.15739C41.7916 5.5442 41.8745 5.97789 41.8745 6.43503V28.565H41.8863Z" fill="white"/>
</svg>
