<svg width="36" height="35" viewBox="0 0 36 35" fill="none" xmlns="http://www.w3.org/2000/svg">
<g clip-path="url(#clip0_82_73)">
<path d="M27.5351 6.2522C26.3974 6.2522 25.4873 7.17221 25.4873 8.29996C25.4873 9.42772 26.4073 10.3477 27.5351 10.3477C28.6628 10.3477 29.5828 9.42772 29.5828 8.29996C29.5828 7.17221 28.6628 6.2522 27.5351 6.2522Z" fill="white"/>
<path d="M18.4143 8.88354C13.6659 8.88354 9.79785 12.7516 9.79785 17.5C9.79785 22.2484 13.6659 26.1164 18.4143 26.1164C23.1627 26.1164 27.0307 22.2484 27.0307 17.5C27.0307 12.7516 23.1627 8.88354 18.4143 8.88354ZM18.4143 23.0201C15.3674 23.0201 12.8942 20.5469 12.8942 17.5C12.8942 14.4531 15.3674 11.9799 18.4143 11.9799C21.4612 11.9799 23.9344 14.4531 23.9344 17.5C23.9344 20.5469 21.4612 23.0201 18.4143 23.0201Z" fill="white"/>
<path d="M25.2498 35H11.2815C5.48439 35 0.765625 30.2812 0.765625 24.4842V10.5158C0.765625 4.71877 5.48439 0 11.2815 0H25.2597C31.0568 0 35.7755 4.71877 35.7755 10.5158V24.4941C35.7755 30.2911 31.0568 35.0099 25.2597 35.0099L25.2498 35ZM11.2815 3.29423C7.30463 3.29423 4.05986 6.52911 4.05986 10.5158V24.4941C4.05986 28.4709 7.29474 31.7157 11.2815 31.7157H25.2597C29.2365 31.7157 32.4813 28.4808 32.4813 24.4941V10.5158C32.4813 6.53901 29.2464 3.29423 25.2597 3.29423H11.2815Z" fill="white"/>
</g>
<defs>
<clipPath id="clip0_82_73">
<rect width="35" height="35" fill="white" transform="translate(0.765625)"/>
</clipPath>
</defs>
</svg>
