<svg width="32" height="46" viewBox="0 0 32 46" fill="none" xmlns="http://www.w3.org/2000/svg">
<path d="M25.0478 0H6.71725C3.01567 0 0 3.00956 0 6.70365V38.605C0 42.2991 3.01567 45.3087 6.71725 45.3087H25.0478C28.7493 45.3087 31.765 42.2991 31.765 38.605V6.70365C31.765 3.00956 28.7493 0 25.0478 0ZM6.71725 3.09218H25.0478C27.0464 3.09218 28.6666 4.70908 28.6666 6.70365V32.2672H3.09845V6.70365C3.09845 4.70908 4.71863 3.09218 6.71725 3.09218ZM25.0478 42.2283H6.71725C4.71863 42.2283 3.09845 40.6114 3.09845 38.6168V35.3712H28.6784V38.6168C28.6784 40.6114 27.0582 42.2283 25.0596 42.2283H25.0478Z" fill="white"/>
<path d="M15.4566 7.55341C16.1425 7.55341 16.6983 6.99871 16.6983 6.31418C16.6983 5.62965 16.1425 5.07495 15.4566 5.07495C14.7707 5.07495 14.2148 5.62965 14.2148 6.31418C14.2148 6.99871 14.7707 7.55341 15.4566 7.55341Z" fill="white"/>
<path d="M15.4566 37.2952C14.7707 37.2952 14.2148 37.8499 14.2148 38.5344C14.2148 39.2189 14.7707 39.7736 15.4566 39.7736C16.1425 39.7736 16.6983 39.2189 16.6983 38.5344C16.6983 37.8499 16.1425 37.2952 15.4566 37.2952Z" fill="white"/>
</svg>
