<?xml version="1.0" encoding="UTF-8"?><svg id="_ар_2" xmlns="http://www.w3.org/2000/svg" viewBox="0 0 87.25 87.54"><defs><style>.cls-1{fill:#fecd07;}</style></defs><g id="_48"><g><g><path class="cls-1" d="M26.25,71.35c.08-.08,.85,.56,2.2,1.79,.22,.21,.46,.43,.72,.66,.13,.12,.27,.23,.41,.36,.07,.06,.14,.13,.2,.19l.07,.07,.06,.07c.03,.09,.1,.15,.16,.18,.06,.03,.12,.02,.17,.03,.06-.1,.1-.15,.19-.13,.05-.03,.1-.07,.15-.11,.05-.05,.08-.08,.17-.18,.15-.17,.3-.35,.45-.54,.3-.37,.75-.62,1.02-1.08,.17-.56,.96-.52,1.1-1.16,.34-.44,.75-.83,1.18-1.23,.57-.26,.84-.84,1.26-1.31,.62-.26,.99-.79,1.33-1.38,.71-.21,1.15-.72,1.4-1.44,.48-.49,1.07-.89,1.46-1.5,.49-.52,.96-1.08,1.52-1.56,.36-.69,.9-1.22,1.58-1.62,.36-.72,.99-1.2,1.64-1.67,.66-.46,.97-1.29,1.69-1.72,.59-.57,1.12-1.2,1.74-1.77,.66-.52,1.35-1.04,1.79-1.81,.56-.65,1.11-1.33,1.83-1.85,.43-.81,1.14-1.35,1.87-1.88,.6-.66,1.37-1.16,1.91-1.91,.67-.61,1.21-1.37,1.94-1.94,.71-.59,1.41-1.19,1.94-1.94,.52-.76,1.33-1.23,1.91-1.91,.81-.45,1.2-1.32,1.88-1.87,.6-.64,1.33-1.13,1.84-1.83,.57-.64,1.14-1.27,1.81-1.79,.32-.87,1.25-1.11,1.76-1.74,.69-.46,1.13-1.16,1.72-1.69,.51-.61,1.24-.99,1.67-1.64,.57-.52,.99-1.17,1.62-1.58,.39-.66,1.15-.93,1.56-1.53,.25-.25,.5-.5,.75-.75l.09-.09,.03-.03,.06-.05s.08-.07,.14-.11c.03,0,.07-.02,.1-.03,.07-.09-.07-.22-.18-.3h-.02s-.03-.04-.04-.05l-.09-.07-.19-.14c-.12-.1-.25-.19-.36-.3-.44-.49-1.03-.79-1.33-1.38-.42-.46-.75-.98-1.26-1.31-.45-.38-.5-1.13-1.18-1.23-.44-.34-.55-.99-1.1-1.16-.54-.19-.69-.74-1.02-1.08-.33-.35-.64-.68-.94-1-2.67-2.86-4.15-4.55-4.03-4.67,.13-.13,2.21,1.71,5.66,4.97,.35,.33,.85,.53,1.08,1.02,.36,.36,.86,.63,1.16,1.1,.59,.19,.83,.76,1.23,1.18,.42,.41,.79,.9,1.31,1.26,.55,.32,.83,.95,1.38,1.33,.08,.14,.17,.27,.27,.39,.05,.06,.1,.12,.15,.18l.08,.08,.11,.11c.35,.34,.74,.67,1.22,1.06-.04,.05-.07,.1-.11,.15-.26,.2-.48,.4-.69,.59-.1,.1-.2,.2-.3,.3l-.14,.15-.09,.1c-.23,.27-.44,.55-.69,.8-.69,.32-1.08,.96-1.53,1.56-.46,.59-1.09,1.03-1.58,1.62-.58,.51-1.05,1.14-1.64,1.67-.47,.65-1.01,1.25-1.69,1.72-.52,.64-1.15,1.17-1.74,1.77-.52,.67-1.2,1.18-1.79,1.81-.57,.65-1.41,1.03-1.83,1.85-.59,.65-1.28,1.21-1.87,1.88-.66,.61-1.32,1.21-1.91,1.92-.84,.44-1.37,1.21-1.94,1.94-.59,.71-1.27,1.33-1.94,1.94-.62,.66-1.27,1.29-1.91,1.91-.57,.69-1.34,1.17-1.88,1.87-.53,.7-1.32,1.14-1.85,1.83-.55,.66-1.11,1.29-1.81,1.79-.59,.59-1.36,.99-1.77,1.74-.54,.62-.88,1.41-1.72,1.69-.49,.63-1.25,.98-1.67,1.64-.75,.34-1.09,1.07-1.62,1.59-.56,.49-1.15,.93-1.56,1.53-.41,.6-1.05,.95-1.5,1.46-.37,.6-1.11,.8-1.44,1.4-.49,.44-.9,.93-1.38,1.33-.16,.71-.87,.86-1.31,1.26-.45,.38-.63,1-1.23,1.18-.18,.6-.74,.79-1.16,1.1-.42,.3-.62,.8-1.08,1.02-.09,.24-.28,.39-.47,.51-.08,.05-.24,.17-.36,.26-.12,.1-.24,.2-.34,.33-.18,.11-.33,.24-.49,.39-.25-.25-.52-.47-.76-.74-.05-.05-.1-.09-.15-.13-.05-.04-.1-.09-.14-.13-.07-.06-.14-.13-.2-.2-.12-.14-.23-.28-.33-.43-.23-.26-.45-.5-.66-.73-1.21-1.37-1.84-2.15-1.76-2.22Z"/><path class="cls-1" d="M22.44,67.5c.08-.08,.15-.15,.22-.22l.03-.03s.02-.02,.03-.03c.02-.02,0,0,.03-.03-.04,.04,0,0,.03-.03,.04-.04-.06,.06,.03-.03,.2-.2-.22,.22,.03-.03,.05-.05,.04-.04,.03-.03-.15,.15,0,0,.03-.03-.18,.18-.1,.1,.02-.02-.25,.25-.21,.21,.02-.02,0,0-.09,.09,.02-.02,.02-.02,.06-.06,.02-.02,.17-.17,.16-.16,.02-.02,.18-.18,.11-.11,.02-.02-.1,.1,.16-.16,.01-.01-.01,.01,.04-.04,.01-.01-.07,.07-.16,.16,0,0,.05-.04,.1-.1,0,0,.19-.19,.11-.11,0,0,.03-.03-.11,.1,0,0-.03,.03,.09-.08,0,0-.06,.06-.11,.11,0,0,.12-.12-.05,.05,0,0-.18,.18,.06-.06,0,0,.02-.02-.1,.1,0,0,.03-.03,.07-.07,0,0,.28-.27-.07,.07-.01,.01-.12,.12,.02-.02-.01,.01,.05-.05-.13,.13-.02,.02-.02,.02,.09-.09-.02,.02,.14-.14-.12,.11-.02,.02,0,0,0,0-.02,.02-.22,.21-.04,.04-.02,.02-.02,.02,.12-.12-.02,.02-.02,.02-.11,.11-.03,.03,.03-.03-.31,.31-.03,.03,.05-.05-.22,.22-.03,.03,.18-.18-.02,.02-.03,.03l-.03,.03c-.09,.09-.2,.2-.32,.32-.13,.13-.25,.25-.35,.34,0,0-.16,.16-.03,.03,0,0-.12,.11-.03,.03-.2,.2-.04,.04-.03,.03-.01,0,.06-.05-.03,.03-.12,.11,.06-.06-.02,.02,.12-.12,.09-.09-.02,.02,.12-.12-.02,.03-.02,.02,.19-.18,.06-.06-.02,.02-.07,.07,.03-.03-.02,.02,.04-.04-.05,.05-.02,.02-.09,.08-.12,.12-.01,.01-.06,.06-.01,.01-.01,.01-.07,.07,0,0,0,0-.04,.04,.2-.19,0,0-.03,.03,.03-.03,0,0,.02-.03,.05-.05,0,0,.2-.2,.08-.08,0,0-.06,.06-.03,.03,0,0-.02,.02,0,0,0,0-.06,.06,.09-.09,0,0-.09,.08,.09-.09,0,0-.06,.06-.09,.09,0,0,0,0,.18-.18,.01-.01-.04,.04-.27,.26,.01-.01-.07,.07,.14-.13,.02-.02,.21-.2,0-.01,.02-.02,.04-.04,.11-.11,.02-.02-.1,.1,.05-.05,.02-.02-.12,.12,.15-.15,.02-.02,.02-.02-.01,0,.02-.02-.28,.27,0,0,.02-.02,.04-.04-.18,.18,.03-.03-.21,.21-.03,.03,.03-.03,.06-.06-.09,.09,.03-.03-.15,.15,.08-.08,.03-.03,.04-.04,.02-.02,.03-.03l.03-.03,.03-.03c.07-.07,.14-.14,.22-.22Z"/><path class="cls-1" d="M18.64,63.65c.08-.08,.15-.15,.22-.22l.03-.03s.02-.02,.03-.03l.03-.03s.02-.02,.03-.03c.02-.02-.01,.01,.03-.03l.03-.03s.02-.02,.03-.03c.03-.02,.02-.02,.03-.02,.02-.02,.01-.01,.02-.02,.02-.01,0,0,.02-.02,0,0,0,0,.02-.02l.02-.02,.02-.02,.02-.02h.01v-.03h.02v-.02h.01s0,0,0,0c-.03,.03,.08-.08,0,0-.06,.06-.11,.11,0,0h0s0,0,0,0c0,0,0,0,0,0h0s0,.02-.01,.02c-.02,.02,0,0-.01,.01,0,0,0,0-.02,.02,0,0,0,0-.02,.02l-.02,.02s0,0-.02,.02c-.02,.03-.02,.02-.02,.02,0,0,0,0-.02,.02l-.02,.02s0,0-.03,.03c0,0,0,0-.03,.03-.03,.03-.03,.03-.03,.03l-.03,.03c-.09,.09-.2,.2-.32,.31-.13,.13-.25,.25-.35,.35,0,0,0,0-.03,.03,0,0,0,0-.03,.03-.03,.03-.02,.03-.03,.03,0,0,.01,0-.03,.03-.03,.03,0,0-.02,.02-.02,.02,0,0-.02,.02-.02,.02-.02,.02-.02,.02l-.02,.02s0,0-.02,.02l-.02,.02h-.01s-.01,.02-.01,.02c-.02,.01,0,0-.01,0,0,0,0,0,0,0h0c.2-.19,.08-.07,0,0-.06,.06-.03,.03,0,0h0v-.02h.02s0,0,.01-.02c0,0,0,0,.01-.01l.02-.02s.02-.02,.02-.02c0,0,0,0,.02-.02,.02-.02,.01-.01,.02-.02,.02-.02,0,0,.02-.02,.02-.02,0,0,.02-.02l.03-.03s0,0,.03-.03c.03-.03,.02-.02,.03-.03,.02-.02,0,0,.03-.03l.03-.03s.02-.02,.03-.03c.02-.02,0,0,.03-.03l.03-.03c.07-.07,.14-.14,.22-.22Z"/><path class="cls-1" d="M56.95,12.52c.08,.08-.41,.72-1.38,1.82-.16,.18-.34,.38-.52,.59-.18,.22-.37,.45-.6,.66-.32,.12-.27,.64-.67,.73-.29,.2-.51,.5-.74,.8-.23,.3-.61,.49-.81,.87-.09,.49-.81,.37-.88,.93-.26,.37-.6,.67-.94,.99-.48,.18-.68,.67-1,1.05-.54,.17-.82,.61-1.06,1.11-.62,.12-.96,.54-1.11,1.16-.38,.4-.87,.7-1.17,1.21-.39,.42-.75,.88-1.22,1.26-.25,.59-.69,1.01-1.27,1.3-.26,.62-.77,.99-1.31,1.34-.55,.35-.75,1.06-1.35,1.38-.47,.45-.89,.97-1.39,1.42-.55,.4-1.11,.8-1.43,1.45-.44,.53-.87,1.08-1.47,1.48-.3,.69-.89,1.1-1.5,1.51-.48,.54-1.12,.91-1.53,1.53-.54,.48-.95,1.12-1.55,1.56-.58,.46-1.15,.93-1.56,1.55-.39,.64-1.08,.97-1.53,1.53-.68,.33-.95,1.07-1.51,1.5-.48,.51-1.09,.88-1.48,1.46-.45,.52-.9,1.03-1.45,1.43-.2,.75-1.01,.87-1.42,1.39-.58,.35-.9,.94-1.38,1.35-.4,.5-1.02,.76-1.34,1.31-.46,.41-.77,.95-1.3,1.27-.28,.56-.95,.72-1.26,1.22-.41,.4-.79,.81-1.21,1.17-.6,.17-.8,.73-1.16,1.12-.39,.35-.61,.85-1.11,1.06-.18,.17-.39,.31-.57,.47-.09,.08-.18,.16-.26,.25l-.06,.07s-.05,.05-.05,.06c-.01,.03-.02,.05-.03,.08-.03,.05-.1,.07-.19,.1-.09,.03-.21,.08-.31,.14,.02,.08,.15,.18,.38,.18,.05,.03,.07,.07,.09,.11v.04s.02,.03,.04,.05c.03,.05,.05,.1,.08,.14,.11,.19,.24,.36,.48,.41,.47,.12,.55,.6,.81,.88,.26,.28,.5,.55,.74,.81,2.11,2.32,3.26,3.71,3.15,3.82-.13,.13-1.81-1.33-4.58-3.94-.28-.26-.71-.39-.86-.82-.15-.15-.32-.27-.49-.4-.04-.03-.08-.07-.12-.1-.02-.01-.05-.05-.08-.08l-.09-.09c-.12-.13-.24-.26-.33-.4-.32-.16-.6-.39-.81-.62,.34-.33,.75-.62,1.07-.93l.2-.2,.14-.13c.09-.08,.18-.16,.26-.24,.18-.17,.35-.34,.48-.56,.24-.47,.77-.66,1.06-1.11,.49-.25,.84-.66,1.12-1.16,.51-.27,.76-.81,1.17-1.21,.59-.22,.87-.76,1.22-1.26,.35-.49,.88-.82,1.27-1.3,.47-.4,.83-.92,1.31-1.34,.36-.54,.79-1.02,1.35-1.38,.4-.52,.92-.94,1.39-1.42,.4-.55,.96-.95,1.43-1.45,.45-.52,1.17-.78,1.47-1.48,.47-.52,1.03-.96,1.5-1.51,.53-.48,1.07-.96,1.53-1.53,.71-.31,1.11-.96,1.55-1.56,.46-.58,1.01-1.07,1.56-1.56,.49-.53,1.02-1.03,1.53-1.53,.45-.56,1.09-.92,1.51-1.5,.41-.58,1.08-.9,1.48-1.47,.43-.54,.88-1.05,1.45-1.43,.48-.47,1.13-.76,1.42-1.39,.42-.5,.65-1.18,1.38-1.35,.38-.52,1.03-.76,1.34-1.31,.64-.23,.87-.85,1.3-1.27,.46-.38,.94-.72,1.26-1.22,.31-.5,.86-.75,1.21-1.17,.27-.5,.92-.61,1.16-1.11,.4-.34,.71-.75,1.11-1.06,.08-.63,.69-.69,1.05-1,.37-.29,.47-.84,.99-.94,.1-.52,.59-.64,.93-.88,.35-.23,.48-.66,.87-.81,.12-.42,.61-.45,.8-.74,.34-.15,.49-.47,.74-.67,.19-.26,.41-.45,.66-.6,.21-.19,.41-.36,.59-.52,1.1-.96,1.74-1.46,1.82-1.38Z"/><path class="cls-1" d="M60.8,11.81c-.08,.08-.15,.15-.22,.22l-.03,.03s-.02,.02-.03,.03l-.03,.03s0,0-.03,.03,.06-.06-.03,.03c-.2,.2,.22-.22-.03,.03-.05,.05-.04,.04-.03,.03,.15-.15,0,0-.03,.02,.18-.18,.1-.1-.02,.02,.25-.25,.21-.21-.02,.02,0,0,.09-.09-.02,.02-.02,.02-.06,.06-.02,.02-.17,.17-.16,.16-.02,.02-.18,.18-.11,.11-.02,.02,.1-.1-.16,.16-.01,.01,.01-.01-.04,.04-.01,.01,.07-.07,.16-.16,0,.01-.04,.04-.1,.1,0,0-.19,.19-.11,.11,0,0-.03,.03,.1-.1,0,0,.03-.03-.08,.08,0,0,.06-.06,.11-.11,0,0-.12,.12,.05-.05,0,0,.18-.18-.06,.06,0,0-.02,.02,.1-.1,0,0-.03,.03-.07,.07,0,0-.28,.28,.07-.07,.01-.01,.12-.12-.02,.02,.01-.01-.05,.05,.13-.13,.02-.02,.02-.02-.09,.09,.02-.02-.14,.14,.11-.12,.02-.02,0,0,0,0,.02-.02,.21-.21,.04-.04,.02-.02,.02-.02-.12,.12,.02-.02,.02-.02,.11-.11,.03-.03-.03,.03,.31-.31,.03-.03-.05,.05,.22-.22,.03-.03-.18,.18,.02-.02,.03-.03l.03-.03c.09-.09,.2-.2,.32-.32,.13-.13,.25-.25,.35-.35,.01-.01,.16-.16,.03-.03,0,0,.11-.12,.03-.03,.2-.2,.04-.04,.03-.03,0-.01-.05,.05,.03-.03,.12-.11-.06,.06,.02-.02-.12,.12-.09,.09,.02-.02-.12,.12,.03-.03,.02-.02-.18,.18-.06,.06,.02-.02,.07-.07-.03,.03,.02-.02-.04,.04,.05-.05,.02-.02,.09-.09,.12-.12,.01-.01,.06-.06,.01-.01,.01-.01,.07-.07,0,.01,0,0,.04-.04-.2,.2,0,0,.03-.03-.03,.03,0,0-.03,.03-.05,.05,0,0-.2,.2-.08,.08,0,0,.06-.06,.03-.03,0,0,.02-.02,0,0,0,0,.06-.06-.09,.09,0,0,.08-.09-.09,.09,0,0,.06-.06,.09-.09,0,0,0,0-.18,.18-.01,.01,.04-.04,.27-.27-.01,.01,.07-.07-.13,.13-.02,.02-.2,.21,0,.01-.02,.02-.04,.04-.11,.11-.02,.02,.1-.1-.05,.05-.02,.02,.12-.12-.15,.15-.02,.02-.02,.02,0,0-.02,.02,.28-.28,0,0-.03,.03-.04,.04,.18-.18-.03,.03,.21-.21,.03-.03-.03,.03-.06,.06,.09-.09-.03,.03,.15-.15-.08,.08-.03,.03-.04,.04-.02,.02-.03,.03-.02,.02,0,0-.03,.03l-.03,.03c-.07,.07-.14,.14-.22,.22Z"/><path class="cls-1" d="M64.62,15.64c-.08,.08-.15,.15-.22,.22l-.03,.03s-.02,.02-.03,.03c-.02,.02,0,0-.03,.03l-.03,.03s.01,0-.03,.03l-.03,.03s-.02,.02-.03,.03c-.02,.03-.02,.02-.03,.03-.02,.02-.01,.01-.02,.02l-.02,.02s0,0-.02,.02l-.02,.02-.02,.02s0,0-.02,.01h-.01v.02h-.02v.02h-.01s0,0,0,0c.03-.03-.08,.08,0,0,.06-.06,.11-.11,0,0,0,0,0,0,0,0,0,0,0,0,0,0,0,0,0,0,0,0h.01s0-.02,.01-.02c.02-.02,0,0,.01-.01,0,0,0,0,.01-.02,0,0,0,0,.02-.02l.02-.02s0,0,.02-.02c.03-.03,.02-.02,.02-.02,0,0,0,0,.02-.02,0,0,0,0,.03-.03,0,0,0,0,.03-.03,0,0,0,0,.03-.03s.03-.03,.03-.03l.03-.03c.09-.09,.2-.2,.32-.32,.13-.13,.25-.25,.35-.35l.03-.03s0,0,.03-.03c.03-.03,.02-.02,.03-.03,0,0,0,0,.03-.03,.03-.03,0,0,.02-.02l.02-.02s.02-.02,.02-.02c.02-.02,.01-.01,.02-.02,.02-.02,0,0,.02-.02h.02v-.03s.02-.01,.03-.01c.01-.01,0,0,0,0,0,0,0,0,0,0,0,0,0,0,0,0h0c-.2,.2-.08,.07,0,0,.06-.06,.03-.03,0,0h0v.02h-.02s0,0-.01,.02c0,0,0,0-.01,.01h-.02s-.02,.03-.02,.03l-.02,.02-.02,.02s0,0-.02,.02c-.02,.02,0-.01-.02,.02-.03,.03-.02,.02-.02,.02,0,0,0,0-.03,.03-.03,.03-.02,.02-.03,.03-.02,.02,0,0-.03,.03-.03,.03-.02,.02-.03,.03-.04,.04-.02,.02-.03,.03l-.03,.03-.03,.03c-.07,.07-.14,.14-.22,.22Z"/></g><path class="cls-1" d="M74.2,25.21c-.08,.08-.71-.41-1.82-1.38-.18-.16-.38-.33-.59-.52-.22-.18-.45-.37-.66-.6-.12-.32-.65-.27-.73-.67-.2-.29-.5-.51-.8-.74-.31-.23-.49-.61-.87-.81-.49-.09-.37-.81-.93-.88-.37-.26-.67-.6-.99-.94-.18-.48-.67-.68-1.05-1-.17-.53-.61-.82-1.11-1.06-.12-.62-.54-.96-1.16-1.12-.4-.38-.7-.87-1.21-1.17-.42-.39-.88-.75-1.26-1.22-.59-.25-1.01-.69-1.3-1.27-.12-.05-.23-.11-.33-.18l-.04-.02s-.02-.02-.05-.04l-.13-.11c-.09-.08-.17-.16-.26-.24-.34-.32-.65-.67-.91-.99,.22-.18,.43-.36,.65-.53,.24-.19,.43-.38,.62-.59l.14-.16,.07-.1,.15-.2c.19-.26,.39-.52,.7-.68,.47-.45,.89-.97,1.39-1.42,.55-.4,1.11-.8,1.43-1.45,.44-.53,.87-1.08,1.47-1.48,.31-.69,.89-1.1,1.5-1.51,.24-.27,.52-.5,.79-.74l.05-.04,.08-.08,.18-.17c.12-.11,.23-.23,.35-.34,.23-.24,.45-.48,.69-.78h.01c.24,.24,.47,.47,.71,.7l.37,.35,.19,.17,.09,.09,.05,.04c.27,.24,.54,.5,.76,.8,.47,.58,.93,1.15,1.55,1.56,.64,.39,.98,1.08,1.53,1.53,.33,.69,1.07,.95,1.5,1.51,.51,.48,.88,1.09,1.47,1.48,.52,.45,1.03,.9,1.43,1.45,.75,.2,.87,1.01,1.39,1.42,.35,.58,.93,.9,1.35,1.38,.5,.4,.76,1.02,1.31,1.34,.41,.46,.95,.77,1.27,1.3,.56,.28,.72,.95,1.22,1.26,.4,.41,.81,.79,1.17,1.21,.04,.15,.11,.28,.19,.39,.04,.05,.09,.11,.13,.15l.09,.09,.12,.1c.31,.27,.69,.55,1.01,.86l.09,.09c-.29,.29-.53,.58-.81,.89-.07,.08-.14,.15-.21,.22l-.11,.11s-.05,.04-.08,.07c-.09,.08-.19,.14-.31,.19-.37,.34-.81,.58-1.05,1-.3,.36-.97,.34-.99,.94-.26,.36-.83,.39-.93,.88-.12,.47-.59,.55-.87,.81-.28,.26-.55,.51-.8,.74-2.31,2.12-3.69,3.29-3.8,3.17-.13-.13,1.32-1.82,3.91-4.61,.26-.28,.39-.71,.81-.87,.29-.29,.48-.71,.88-.93,.11-.51,.6-.67,.94-.99,.32-.34,.73-.62,1-1.05,.06-.11,.13-.21,.21-.29l.06-.06s.01-.01,.02-.02c.01-.01,.03-.02,.05-.03,.07-.04,.18-.1,.19-.16-.01,0-.03-.01-.04-.02,.06-.07,0-.17-.09-.25-.01,0-.02-.02-.04-.03h-.02l-.04-.05c-.05-.04-.11-.08-.16-.12-.11-.08-.23-.15-.36-.22-.27-.51-.81-.76-1.21-1.17-.22-.59-.76-.87-1.26-1.22-.49-.35-.82-.88-1.3-1.27-.4-.47-.92-.83-1.34-1.31-.54-.36-1.02-.79-1.38-1.35-.52-.4-.94-.92-1.42-1.39-.55-.4-.95-.96-1.45-1.43-.52-.45-.78-1.17-1.48-1.46-.52-.47-.96-1.03-1.51-1.5-.48-.53-.96-1.07-1.53-1.53-.31-.71-.96-1.11-1.56-1.55-.29-.23-.56-.48-.81-.75l-.05-.05h0v-.02l-.02-.03s-.02-.05-.03-.08h0s-.03,.04-.04,.06l-.02,.02-.07,.07c-.26,.25-.52,.5-.78,.75-.45,.57-1.09,.92-1.51,1.5-.41,.58-1.08,.9-1.48,1.47-.43,.54-.88,1.06-1.45,1.43-.47,.47-1.13,.76-1.42,1.39-.21,.25-.37,.55-.58,.8-.05,.06-.1,.13-.16,.18-.03,.03-.06,.06-.09,.08h-.01s-.07-.04-.2-.05c0,.03,0,.04-.03,.06,.01,.03,0,.07,.02,.13,0,.01,.01,.03,.02,.04,0,0,0,.01,.01,.02l.06,.05c.09,.08,.18,.16,.29,.22,.23,.64,.85,.87,1.27,1.3,.38,.46,.72,.94,1.22,1.26,.5,.31,.75,.85,1.17,1.21,.5,.27,.61,.92,1.12,1.16,.34,.4,.75,.71,1.06,1.11,.63,.08,.69,.7,1,1.05,.29,.37,.84,.47,.94,1,.52,.1,.64,.59,.88,.93,.23,.35,.66,.49,.81,.87,.42,.12,.45,.61,.74,.8,.15,.34,.48,.49,.67,.73,.25,.19,.45,.41,.6,.66,.19,.21,.36,.41,.52,.59,.96,1.1,1.46,1.74,1.38,1.82Z"/><g><path class="cls-1" d="M19.78,64.76c-.08,.08-.74-.45-1.9-1.48-.19-.17-.4-.36-.62-.56-.23-.19-.47-.39-.69-.64-.13-.34-.67-.3-.77-.72-.21-.31-.53-.54-.84-.79-.32-.25-.51-.65-.91-.86-.5-.11-.4-.85-.98-.93-.02-.01-.05-.04-.07-.05l-.03-.02s-.04-.03-.06-.04c-.04-.03-.07-.06-.11-.09-.07-.07-.14-.15-.21-.24-.03-.08-.06-.14-.09-.19-.05,.02-.09,.17-.1,.3-.02,.14-.01,.27-.03,.35-.04,0-.07,.02-.1,.04-.02,.01-.03,.02-.04,.04-.02,.03-.04,.06-.05,.09-.07,.12-.12,.24-.16,.37-.08,.26-.11,.54-.12,.83-.53,.39-.67,.94-.57,1.6-.19,.55-.53,1.05-.6,1.67-.19,.57-.35,1.17-.62,1.74,0,.67-.23,1.27-.65,1.8,0,.7-.32,1.28-.67,1.86-.37,.58-.27,1.34-.7,1.92-.26,.64-.43,1.32-.72,1.97-.35,.63-.71,1.26-.74,2.02-.2,.7-.37,1.42-.76,2.07,0,.79-.38,1.45-.78,2.11-.23,.72-.67,1.37-.8,2.14-.31,.71-.43,1.49-.81,2.18-.09,.18-.17,.35-.26,.53l-.12,.26-.06,.13-.03,.07s0,.01-.01,.02c-.04,.08-.06,.19,.03,.18,.09-.02,.08-.02,.03,.06,0,.02-.01,.04,0,.05,.01,0,.05,0,.09-.03,0,.07,.04,.08,.08,.07,.02,0,.04-.02,.06-.03h.01v-.02h.03l.13-.07c.34-.17,.67-.36,1.03-.44,.69-.28,1.43-.38,2.07-.76,.66-.3,1.32-.59,2.02-.74,.53-.61,1.36-.4,1.97-.72,.71-.09,1.28-.5,1.92-.69,.6-.3,1.31-.29,1.87-.67,.62-.2,1.17-.57,1.81-.65,.52-.4,1.22-.28,1.74-.62,.57-.21,1.12-.43,1.67-.59,.65,.08,1.09-.35,1.6-.56,.53-.16,.96-.54,1.53-.53,.5-.16,1.03-.21,1.45-.5,.45-.21,1.07,.07,1.37-.47,.41-.23,.97-.03,1.28-.43,.32-.39,.81-.27,1.19-.4,.19-.06,.38-.12,.56-.18l.12-.04,.08-.02c.05-.01,.1-.03,.16-.05,.24-.07,.47-.14,.69-.21-.12-.15-.24-.29-.35-.42-.06-.07-.12-.14-.18-.21-.03-.04-.06-.07-.09-.11-.04-.05-.08-.09-.12-.14-.33-.38-.61-.71-.83-.98-.44-.54-.65-.85-.6-.9,.05-.05,.36,.16,.89,.61,.27,.22,.59,.5,.97,.84,.05,.04,.1,.09,.15,.14,.06,.06,.13,.12,.2,.18,.14,.13,.28,.26,.42,.4,.3,.29,.63,.59,.97,.91-.44,.18-.9,.37-1.39,.57-.24,.1-.49,.2-.75,.3-.19,.08-.37,.15-.57,.23-.37,.15-.69,.5-1.16,.48-.41,.15-.77,.46-1.25,.51-.34,.43-.87,.38-1.34,.54-.46,.19-.97,.28-1.43,.57-.44,.34-1.03,.3-1.51,.6-.58,.03-1.09,.27-1.58,.62-.6,.04-1.09,.44-1.65,.65-.66-.03-1.17,.35-1.72,.67-.56,.31-1.2,.41-1.79,.69-.63,.18-1.21,.52-1.85,.71-.59,.35-1.21,.63-1.91,.73-.62,.32-1.3,.5-1.96,.75-.63,.34-1.34,.49-2.01,.76-.66,.3-1.47,.25-2.06,.78-.34,.15-.69,.27-1.05,.39l-.36,.13-.49,.18c-.33,.12-.66,.25-1,.39-.73,.25-1.43,.49-2.16,.76,.22-.58,.42-1.14,.59-1.72,.44-.78,.69-1.35,.91-2l.04-.11,.02-.07,.04-.14,.07-.29c.04-.19,.08-.39,.12-.58,.2-.76,.51-1.47,.82-2.17,.24-.73,.52-1.44,.81-2.14,.19-.74,.64-1.37,.8-2.1,.15-.74,.64-1.34,.78-2.06,.18-.71,.39-1.4,.77-2.01,.25-.66,.74-1.23,.75-1.96,.19-.67,.13-1.42,.74-1.91,.14-.66,.65-1.18,.72-1.85,.5-.51,.47-1.2,.7-1.79,.27-.57,.58-1.11,.67-1.72,.08-.61,.49-1.09,.65-1.65,.05-.6,.6-1,.63-1.58,.11-.25,.2-.51,.3-.76,.05-.13,.09-.25,.14-.38l.1-.24c.04-.1,.09-.2,.13-.3,0-.45,.13-.89,.28-1.22,.16-.34,.33-.56,.47-.8,.09,.12,.18,.23,.27,.32,.28,.33,.55,.51,.85,.76,.15,.12,.3,.26,.43,.42,.07,.08,.13,.16,.19,.24,.03,.04,.05,.08,.08,.13,.02,.04,.02,.07,.03,.1,.54,.12,.67,.62,.92,.99,.24,.37,.69,.52,.85,.92,.43,.14,.47,.64,.78,.85,.16,.36,.5,.52,.71,.78,.27,.2,.48,.44,.63,.7,.2,.22,.38,.43,.55,.62,1.02,1.17,1.54,1.84,1.46,1.92Z"/><path class="cls-1" d="M23.59,68.62c-.08,.08-.15,.15-.22,.22l-.03,.03-.03,.03-.03,.03s0,0-.03,.03c-.04,.04,.06-.06-.03,.03-.2,.2,.22-.22-.03,.03-.05,.05-.04,.04-.03,.03,.15-.15,0,0-.03,.03,.18-.18,.1-.1-.02,.02,.25-.25,.21-.21-.02,.02,0,0,.09-.09-.02,.02-.02,.02-.06,.06-.02,.02-.17,.17-.16,.16-.02,.02-.18,.18-.11,.11-.02,.02,.1-.1-.16,.16-.01,.01,.01-.01-.04,.04-.01,.01,.07-.07,.16-.16-.01,.01-.04,.04-.11,.1,0,0-.19,.19-.11,.11,0,0-.03,.03,.1-.1,0,0,.03-.03-.08,.08,0,0,.06-.06,.11-.11,0,0-.12,.12,.05-.05,0,0,.18-.18-.06,.06,0,0-.02,.02,.1-.1,0,0-.03,.03-.07,.07,0,0-.28,.27,.07-.07,.01-.01,.12-.12-.02,.02,.01-.01-.05,.05,.13-.13,.02-.01,.02-.02-.09,.09,.02-.02-.14,.13,.12-.12,.02-.02,0,0,0,0,.02-.02,.22-.21,.04-.04,.02-.02,.02-.02-.12,.12,.02-.02,.02-.02,.11-.11,.03-.03-.03,.03,.31-.31,.03-.03-.05,.05,.22-.22,.03-.03-.18,.18,.02-.02,.03-.03l.03-.03c.09-.09,.2-.2,.32-.31,.13-.13,.25-.25,.35-.34,.01,0,.16-.16,.03-.03,0,0,.11-.11,.03-.03,.2-.2,.04-.04,.03-.03,.01,0-.05,.05,.03-.03,.12-.11-.06,.06,.02-.02-.12,.12-.09,.09,.02-.02-.12,.12,.03-.03,.02-.02-.19,.18-.06,.05,.02-.02,.07-.07-.03,.03,.02-.02-.04,.04,.05-.05,.02-.02,.09-.09,.12-.12,.01-.01,.06-.06,.01-.01,.01-.01,.07-.07,0,0,0,0,.04-.04-.2,.19,0,0,.03-.03-.03,.03,0,0-.03,.03-.05,.05,0,0-.2,.2-.08,.08,0,0,.06-.06,.03-.03,0,0,.02-.02,.01-.01,0,0,.06-.06-.09,.09,0,0,.09-.08-.09,.09,0,0,.06-.06,.09-.09-.01,0,0,0-.18,.18-.01,.01,.04-.04,.27-.26-.01,.01,.07-.07-.14,.13-.02,.01-.21,.2-.01,.01-.02,.02-.04,.04-.11,.11-.02,.02,.1-.1-.05,.05-.02,.02,.12-.12-.15,.15-.02,.02-.02,.02,0-.01-.02,.02,.28-.27,0,0-.03,.02-.04,.04,.18-.18-.03,.03,.21-.21,.03-.03-.03,.03-.06,.06,.09-.09-.03,.03,.15-.15-.08,.08-.03,.03-.04,.04-.02,.02-.03,.03-.02,.02,0,0-.03,.03l-.03,.03c-.07,.07-.14,.14-.22,.22Z"/><path class="cls-1" d="M27.39,72.47c-.08,.08-.15,.15-.22,.22l-.03,.03-.03,.03s0,0-.03,.03c-.02,.02-.02,.01-.03,.03-.02,.02,.01-.01-.03,.03-.02,.02,0,0-.03,.03-.03,.03-.02,.02-.03,.03l-.03,.03-.02,.02-.02,.02s0,0-.02,.02c0,0,0,0-.02,.02-.01,.01,0,0-.02,.02h-.02s0,.01-.01,.03h-.01v.02h-.02v.02s-.09,.08,0,0c.06-.06,.11-.11,0,0h0s0,0,0,0c0,0,0,0,0,0h.01s0-.02,.01-.02c.02-.02,0,0,.01-.01h.02s0-.01,.02-.03c.02-.02,0,0,.02-.02,0,0,0,0,.02-.02,.03-.03,.02-.02,.02-.02,0,0,0,0,.02-.02,0,0,0,0,.03-.02,0,0,0,0,.03-.03,0,0,0,0,.03-.03,.03-.03,.03-.03,.03-.03l.03-.03c.09-.09,.2-.2,.32-.31,.13-.13,.25-.25,.35-.35l.03-.03,.03-.03s.03-.03,.03-.03c0,0,0,0,.03-.03,.03-.03,0,0,.02-.02,.02-.01,0,0,.02-.02,.02-.02,.02-.02,.02-.02l.02-.02s0,0,.02-.02c.01-.01,0,0,.02-.02,0,0,0,0,.01-.01,.02-.02,.01-.01,.01-.01,.01-.01,0,0,0,0,0,0,0,0,0,0,0,0,0,0,0,0h0c-.2,.2-.08,.07,0,0,.06-.06,.03-.03,0,0h0v.02h-.02s0,0-.01,.02c0,0,0,0-.01,.01h-.02s-.02,.03-.02,.03l-.02,.02s-.01,.01-.02,.02c-.02,.02,0,0-.02,.02-.02,.02,.01,0-.02,.02-.03,.03-.02,.02-.02,.03,0,0,0,0-.03,.03-.03,.03-.02,.02-.03,.03-.02,.02,0,0-.03,.03-.03,.03-.02,.02-.03,.03-.05,.04-.02,.02-.03,.03-.02,.02,0,0-.03,.03l-.03,.03c-.07,.07-.14,.14-.22,.22Z"/></g><path class="cls-1" d="M12.3,80.67c-.11,0-.22-.1-.31-.26-.02-.03-.03-.06-.05-.09-.03-.03-.06-.06-.05-.1,.14-.04-.27-.05-.06-.1,.06-.04,0-.08-.05-.12-.05-.04,.08-.09-.05-.12-.28,0,.29-.13-.06-.13-.08-.03-.07-.08-.06-.14,.2-.09-.01-.1-.06-.14,.24-.1,.12-.14-.07-.14,.33-.14,.26-.19-.07-.15-.03-.05,.08-.14-.08-.15-.04-.05-.12-.08-.08-.15-.24,.03-.25-.02-.09-.15-.25,.05-.18-.04-.1-.15,.1-.12-.25,0-.1-.16-.02-.06-.12-.08-.11-.15,.06-.11,.11-.24-.12-.15-.09-.02-.19-.02-.13-.15-.25,.12-.2,0-.14-.15-.07-.02,.01-.2-.15-.15-.02-.08-.18-.01-.15-.14,0-.11,0-.22-.16-.14-.16,.09-.06-.15-.16-.13,.09-.25-.17-.01-.17-.13-.07-.02-.04-.2-.17-.12-.08,0-.17,.01-.17-.12-.25,.31-.07-.15-.17-.11,.01-.18-.13-.04-.17-.11-.09,.04-.05-.22-.17-.1-.05-.06-.17,.07-.17-.1-.13,.16-.06-.2-.16-.09-.06-.02-.12-.03-.16-.09,.04-.31-.09-.09-.15-.09-.05-.05-.16,.13-.15-.08-.04-.04-.06-.18-.14-.08-.06,.03,.01-.46-.14-.07-.06,.06-.02-.32-.13-.07-.1,.23-.08-.05-.12-.07-.04-.02-.07-.04-.11-.07-.32-.2-.5-.36-.49-.53,.01-.18,.31-.33,.8-.37,.05,0,.14-.2,.15,0,.05,.01,.14-.13,.17,0,.12-.26,.12-.02,.18,0,.06,0,.1,.1,.19,.01,.11-.14,.1,.12,.2,.02,.01,.19,.09,.17,.21,.04,.01,.18,.15,.01,.21,.04-.02,.27,.11,.12,.22,.05,.11-.06,.13,.1,.23,.07,.05,.08,.18,0,.23,.08,.13-.08,.23-.07,.24,.1,.12-.04,.16,.07,.24,.11,.13-.04,.15,.1,.24,.12,.11,0,0,.33,.24,.14,.1,.03,.13,.15,.24,.16,.06,.09,.11,.18,.24,.18-.1,.28,.08,.21,.23,.2,.13,0,.18,.11,.22,.21,.09,.05,.15,.13,.2,.22,.13,.02,.04,.23,.19,.23,.16,0,.01,.23,.17,.24,.13,.03,.22,.08,.15,.24,.05,.08-.12,.29,.13,.24,.09,.05,.42-.01,.11,.25,.13,.04-.09,.24,.09,.25-.23,.19,.05,.16,.07,.24-.02,.1-.09,.2,.06,.24,.16,.03-.02,.17,.04,.22,.18,.03-.17,.2,.02,.22-.02,.08,.06,.13,.02,.21,.4-.02,.02,.13,0,.2-.05,.07,.28,.08,0,.18,.3,.01,.06,.11-.02,.17-.08,.06,.13,.09-.03,.16,.21,.03-.1,.11-.03,.14-.13,.05,0,.09-.03,.13,.05,.04,.03,.08-.04,.11-.01,.04-.03,.07-.04,.1-.09,.18-.19,.28-.3,.28Z"/><path class="cls-1" d="M59.22,21.08c.08,.08-.25,.55-.91,1.35-.11,.13-.23,.27-.36,.43-.12,.16-.25,.33-.41,.48-.26,.06-.13,.51-.47,.53-.22,.13-.36,.35-.52,.58-.16,.23-.45,.32-.57,.62,0,.4-.64,.2-.61,.67-.17,.27-.41,.49-.66,.71-.39,.08-.48,.48-.7,.75-.43,.07-.61,.4-.74,.79-.51,.01-.74,.32-.78,.83-.27,.28-.64,.46-.82,.86-.27,.3-.51,.64-.86,.89-.13,.46-.44,.76-.89,.93-.13,.49-.51,.73-.92,.95-.42,.22-.48,.8-.95,.98-.34,.31-.62,.7-.98,1-.41,.26-.83,.52-1.01,1.03-.3,.39-.59,.8-1.03,1.05-.16,.54-.6,.81-1.06,1.07-.33,.39-.82,.62-1.08,1.09-.39,.33-.65,.81-1.1,1.1-.43,.31-.85,.62-1.1,1.1-.24,.49-.78,.67-1.09,1.08-.54,.18-.65,.77-1.07,1.06-.33,.37-.8,.59-1.05,1.04-.31,.38-.61,.75-1.03,1.01-.06,.61-.74,.6-1,.98-.44,.21-.63,.67-.98,.95-.27,.37-.76,.5-.95,.92-.33,.28-.52,.7-.93,.89-.16,.43-.7,.47-.89,.86-.29,.29-.56,.58-.86,.82-.49,.06-.58,.51-.83,.78-.29,.24-.39,.64-.79,.74-.27,.23-.6,.38-.75,.7-.2,.27-.78,.15-.71,.66-.17,.27-.65,.21-.67,.61-.03,.38-.43,.38-.62,.57-.2,.18-.39,.35-.58,.52-1.66,1.47-2.67,2.26-2.78,2.15-.13-.13,.86-1.36,2.66-3.36,.18-.2,.23-.55,.56-.62,.21-.21,.31-.53,.61-.67,.02-.42,.41-.49,.66-.71,.22-.24,.53-.42,.7-.75,.13-.36,.56-.45,.74-.79,.38-.14,.62-.44,.78-.83,.39-.15,.53-.58,.82-.86,.47-.1,.63-.52,.85-.89,.23-.36,.63-.57,.89-.92,.34-.27,.57-.67,.92-.95,.23-.4,.52-.76,.95-.98,.27-.39,.65-.67,.98-1.01,.26-.41,.68-.67,1.01-1.03,.31-.38,.89-.5,1.03-1.05,.32-.38,.74-.67,1.06-1.07,.38-.33,.77-.67,1.08-1.09,.56-.16,.81-.65,1.1-1.1,.31-.43,.71-.76,1.1-1.1,.34-.38,.71-.73,1.08-1.08,.3-.42,.8-.63,1.07-1.06,.26-.44,.79-.61,1.05-1.04,.29-.4,.59-.77,1.03-1.01,.33-.34,.85-.48,1-.98,.29-.37,.38-.92,.98-.95,.25-.39,.77-.5,.95-.92,.51-.1,.62-.6,.92-.89,.34-.26,.7-.48,.89-.85,.19-.38,.62-.51,.86-.82,.16-.39,.7-.39,.83-.78,.29-.24,.5-.54,.79-.74-.03-.52,.49-.49,.75-.7,.27-.2,.28-.65,.71-.66,.01-.43,.41-.46,.67-.61,.27-.15,.32-.49,.62-.57,.04-.34,.45-.29,.58-.51,.27-.08,.35-.33,.53-.47,.12-.19,.29-.33,.48-.41,.15-.13,.29-.25,.42-.36,.8-.66,1.27-.99,1.35-.91Z"/><path class="cls-1" d="M66.44,28.3c.08,.08-.25,.55-.91,1.35-.11,.13-.23,.27-.36,.43-.12,.16-.25,.33-.41,.48-.26,.06-.14,.51-.47,.53-.22,.13-.36,.35-.52,.58-.15,.23-.45,.32-.57,.62,0,.4-.64,.2-.61,.67-.17,.28-.41,.49-.66,.71-.39,.08-.48,.48-.7,.75-.43,.07-.61,.4-.74,.79-.51,.01-.74,.32-.78,.83-.27,.28-.64,.47-.82,.86-.27,.3-.51,.64-.86,.89-.13,.46-.44,.76-.89,.93-.13,.49-.51,.73-.92,.95-.42,.22-.48,.8-.95,.98-.34,.32-.62,.7-.98,1-.41,.26-.83,.52-1.01,1.03-.3,.39-.59,.79-1.03,1.05-.16,.54-.6,.81-1.06,1.07-.33,.39-.82,.62-1.08,1.08-.39,.34-.65,.82-1.1,1.1-.43,.31-.85,.62-1.1,1.1-.24,.49-.78,.67-1.09,1.08-.54,.18-.65,.77-1.07,1.06-.33,.37-.8,.59-1.05,1.03-.31,.38-.62,.75-1.03,1.01-.06,.61-.74,.6-1.01,.98-.44,.21-.63,.67-.98,.95-.27,.37-.76,.5-.95,.92-.33,.28-.52,.7-.93,.89-.16,.43-.7,.47-.89,.86-.29,.29-.56,.58-.86,.82-.49,.06-.58,.51-.83,.78-.28,.24-.39,.64-.79,.74-.27,.23-.6,.38-.75,.7-.2,.27-.78,.15-.71,.66-.17,.27-.65,.21-.67,.61-.03,.38-.43,.38-.62,.57-.2,.18-.39,.35-.58,.52-1.66,1.47-2.67,2.26-2.78,2.15-.13-.13,.86-1.36,2.66-3.36,.18-.2,.23-.55,.56-.62,.21-.2,.31-.53,.61-.67,.02-.42,.41-.49,.66-.71,.23-.25,.53-.42,.7-.75,.13-.37,.56-.45,.74-.79,.38-.14,.62-.44,.78-.83,.39-.15,.53-.58,.82-.86,.47-.1,.63-.52,.86-.89,.23-.37,.63-.57,.89-.92,.34-.27,.57-.67,.92-.95,.23-.4,.52-.76,.95-.98,.27-.39,.65-.67,.98-1.01,.26-.41,.69-.66,1.01-1.03,.31-.38,.89-.5,1.03-1.05,.32-.38,.74-.67,1.06-1.07,.38-.33,.77-.67,1.08-1.09,.56-.16,.81-.65,1.1-1.1,.31-.43,.71-.76,1.1-1.1,.34-.38,.71-.73,1.09-1.08,.3-.42,.8-.63,1.07-1.06,.27-.43,.79-.61,1.05-1.03,.29-.4,.59-.77,1.03-1.01,.33-.33,.85-.48,1.01-.98,.29-.37,.38-.92,.98-.95,.25-.39,.76-.5,.95-.92,.51-.1,.62-.6,.93-.89,.34-.26,.7-.48,.89-.86,.19-.38,.62-.51,.86-.82,.16-.39,.7-.39,.83-.78,.29-.23,.5-.53,.79-.74-.03-.52,.49-.49,.75-.7,.28-.19,.28-.64,.71-.66,.01-.43,.41-.46,.67-.61,.27-.14,.32-.49,.62-.56,.04-.34,.45-.29,.58-.52,.27-.08,.34-.33,.53-.47,.12-.19,.28-.33,.48-.41,.15-.13,.29-.25,.43-.36,.8-.66,1.27-.99,1.35-.91Z"/><path class="cls-1" d="M77.29,19.3v-.02s-.02,0-.03,0c-.01,0-.02,.01-.04,.01-.03,0-.06,0-.1,0-.08-.01-.18-.05-.3-.11-.04-.02-.08-.04-.13-.07-.05-.02-.11-.03-.14-.08,.06-.14-.27,.1-.15-.09,0-.09-.08-.09-.16-.11-.08-.01-.03-.16-.17-.12-.25,.14,.12-.32-.19-.13-.11,0-.15-.07-.2-.15,.09-.21-.12-.12-.21-.16,.12-.24-.02-.23-.21-.17,.19-.31,.08-.34-.22-.18-.08-.06-.05-.23-.23-.19-.09-.06-.21-.08-.24-.2-.24,.09-.31,0-.24-.21-.26,.1-.26-.05-.25-.22,.02-.18-.32,0-.26-.23-.07-.09-.21-.12-.26-.24,0-.16-.01-.32-.26-.24-.13-.04-.28-.07-.27-.25-.28,.11-.28-.07-.27-.26-.12-.06-.08-.28-.28-.27-.06-.12-.27-.1-.28-.27-.04-.15-.07-.3-.28-.27-.21,.03-.13-.23-.27-.27,.09-.27-.24-.12-.26-.27-.11-.07-.07-.28-.25-.27-.12-.05-.24-.1-.25-.26-.36,.19-.1-.24-.24-.26,.03-.2-.18-.14-.23-.25-.13-.03-.03-.29-.22-.25-.05-.1-.24-.06-.21-.24-.21,.06-.03-.26-.2-.24-.07-.07-.15-.13-.19-.23,.14-.28-.1-.17-.18-.22-.04-.09-.25,0-.17-.21-.04-.08-.01-.24-.16-.21-.09-.03,.19-.43-.15-.2-.11,0,.11-.33-.13-.19-.23,.13-.08-.12-.12-.18-.04-.06-.07-.11-.11-.17-.3-.48-.42-.81-.31-.93,.13-.13,.53,.03,1.1,.4,.06,.04,.26-.07,.18,.12,.05,.05,.22-.01,.19,.13,.25-.15,.15,.07,.2,.14,.07,.05,.07,.17,.21,.16,.18-.06,.07,.18,.22,.17-.05,.19,.04,.22,.23,.18-.05,.19,.16,.11,.23,.19-.11,.25,.09,.2,.24,.2,.14,0,.12,.18,.25,.21,.04,.11,.2,.11,.25,.22,.17,0,.28,.04,.26,.23,.14,.02,.18,.15,.26,.24,.16,.01,.16,.18,.27,.24,.12,.05-.02,.37,.27,.25,.11,.06,.15,.21,.27,.26,.06,.12,.13,.23,.28,.27-.11,.29,.11,.26,.28,.27,.15,.03,.21,.15,.28,.28,.11,.07,.19,.17,.27,.27,.15,.03,.09,.26,.26,.27,.17,0,.08,.27,.25,.27,.14,.03,.26,.08,.25,.26,.08,.08-.01,.35,.24,.26,.12,.04,.43-.1,.23,.26,.15,0,.02,.29,.22,.25-.13,.28,.14,.16,.21,.25,.04,.11,.04,.25,.2,.24,.17-.03,.09,.2,.19,.23,.19-.05-.02,.29,.18,.22,.04,.09,.15,.11,.17,.22,.34-.21,.12,.13,.16,.21,.02,.1,.3-.06,.14,.2,.27-.15,.14,.08,.13,.19,0,.11,.19,.02,.12,.18,.2-.1,0,.17,.1,.17-.05,.14,.08,.09,.09,.16,.07,0,.1,.06,.08,.15,.02,.05,.04,.09,.06,.13,.05,.13,.09,.24,.1,.33,0,.04,0,.08,0,.12v.03s-.01,.01-.02,.03c0,.01,0,.01-.02,.04-.02,.01-.02,0-.03,0Z"/></g></g></svg>