<svg width="422" height="122" viewBox="0 0 422 122" fill="none" xmlns="http://www.w3.org/2000/svg">
<g filter="url(#filter0_d_83_338)">
<path d="M371.722 35.0417C374.084 33.625 376.209 33.1528 378.57 32.9167C378.806 32.9167 379.278 32.9167 379.514 32.9167H411.389V8.125H335.361V105.639H366.764V81.7917H405.722V57C405.722 57 388.25 57 384.236 57C377.861 57.2361 374.084 57.2361 372.431 57C370.778 56.7639 369.597 55.5833 368.181 53.9306C365.584 50.625 364.403 47.5556 365.347 44.25C366.292 40.9444 367.945 37.6389 371.722 35.0417Z" fill="#FFCC00"/>
<path d="M298.528 12.6111C290.5 8.125 281.528 6 271.375 6C261.222 6 252.25 8.125 244.222 12.6111C236.195 17.0972 229.82 23 225.334 30.7917C220.847 38.5833 218.486 47.3194 218.486 57C218.486 66.2083 220.611 74.4722 224.625 82.0278C224.861 82.5 225.097 82.9722 225.334 83.2083C229.82 91 236.195 96.9028 244.222 101.389C252.25 105.875 261.222 108 271.375 108C281.528 108 290.5 105.875 298.528 101.389C306.556 97.1389 312.931 91 317.417 83.2083C317.653 82.7361 317.889 82.2639 318.125 82.0278C322.139 74.7083 324.264 66.2083 324.264 57C324.264 47.3194 321.903 38.5833 317.417 30.7917C312.931 23 306.556 16.8611 298.528 12.6111ZM256.264 44.7222C260.986 37.875 266.417 34.0972 272.792 33.1528C274.681 33.1528 278.931 35.5139 285.07 40.4722C291.209 45.1944 291.917 47.7917 291.917 49.6806C294.278 56.7639 290.5 66.4444 283.181 71.875C273.972 78.7222 265.709 81.0833 257.209 78.7222C252.014 76.3611 249.417 70.4583 249.181 64.3194C249.181 58.1806 251.542 51.5694 256.264 44.7222Z" fill="#FFCC00"/>
<path d="M184.722 12.6111C176.695 8.36111 167.722 6 157.57 6C147.417 6 138.445 8.36111 130.417 12.6111C122.389 16.8611 116.25 23 111.528 30.7917C107.042 38.5833 104.681 47.3194 104.681 57C104.681 66.2083 106.806 74.4722 110.82 81.7917C111.056 82.2639 111.292 82.7361 111.528 83.2083C116.014 91 122.389 96.9028 130.417 101.389C138.445 105.639 147.417 108 157.57 108C167.722 108 176.695 105.875 184.722 101.389C192.75 97.1389 199.125 91 203.611 83.2083C203.847 82.7361 204.083 82.2639 204.32 81.7917C208.333 74.4722 210.458 66.2083 210.458 57C210.458 47.3194 208.097 38.5833 203.611 30.7917C199.125 23 192.75 17.0972 184.722 12.6111ZM157.57 33.1528C161.583 33.1528 165.597 33.625 168.431 35.9861C175.278 42.125 179.528 48.0278 179.528 57C179.528 62.4306 177.167 66.9167 174.097 70.9306C169.847 76.8333 164.181 82.5 157.57 80.8472C151.667 79.4306 146.708 78.25 142.695 74C138.445 69.5139 135.847 63.6111 135.847 56.7639C135.611 43.7778 145.056 33.1528 157.57 33.1528Z" fill="#FFCC00"/>
<path d="M79.8889 75.6528C85.5556 72.5833 90.0417 68.5694 92.875 63.375C95.9444 58.1806 97.3611 52.0417 97.3611 45.1944C97.3611 37.875 95.7083 31.2639 92.1667 25.8333C88.625 20.4028 83.6667 15.9167 77.2917 13.0833C70.9167 10.25 63.3611 8.125 54.8611 8.125H10V105.639H41.4028V81.7917H50.375L65.7222 105.639H99.25L83.6667 81.7917C83.9028 81.7917 79.8889 75.6528 79.8889 75.6528ZM50.375 64.5556C45.6528 65.7361 41.875 64.7917 39.0417 62.9028C37.8611 61.9583 37.3889 60.7778 37.1528 59.125C36.9167 57.4722 36.9167 54.875 37.3889 49.9167C37.625 44.25 37.8611 40.7083 38.3333 39.2917C38.8056 37.875 39.9861 36.6944 41.875 35.5139C45.4167 33.1528 48.9583 32.4444 52.5 33.3889C56.0417 34.3333 61 36.2222 63.5972 40C66.6667 44.9583 66.6667 50.3889 63.5972 56.0556C62.4167 58.4167 61.9444 59.5972 61.7083 60.3056C60.2917 62.1944 55.0972 63.375 50.375 64.5556Z" fill="#FFCC00"/>
</g>
<defs>
<filter id="filter0_d_83_338" x="0" y="0" width="421.389" height="122" filterUnits="userSpaceOnUse" color-interpolation-filters="sRGB">
<feFlood flood-opacity="0" result="BackgroundImageFix"/>
<feColorMatrix in="SourceAlpha" type="matrix" values="0 0 0 0 0 0 0 0 0 0 0 0 0 0 0 0 0 0 127 0" result="hardAlpha"/>
<feOffset dy="4"/>
<feGaussianBlur stdDeviation="5"/>
<feComposite in2="hardAlpha" operator="out"/>
<feColorMatrix type="matrix" values="0 0 0 0 0 0 0 0 0 0 0 0 0 0 0 0 0 0 0.25 0"/>
<feBlend mode="normal" in2="BackgroundImageFix" result="effect1_dropShadow_83_338"/>
<feBlend mode="normal" in="SourceGraphic" in2="effect1_dropShadow_83_338" result="shape"/>
</filter>
</defs>
</svg>
