<svg width="270" height="84" viewBox="0 0 270 84" fill="none" xmlns="http://www.w3.org/2000/svg">
<g filter="url(#filter0_d_82_108)">
<path d="M235.295 24.0884C236.765 23.2061 238.089 22.912 239.559 22.7649C239.706 22.7649 240 22.7649 240.147 22.7649H260V7.32373H212.647V68.0591H232.206V53.2061H256.471V37.7649C256.471 37.7649 245.589 37.7649 243.089 37.7649C239.118 37.912 236.765 37.912 235.736 37.7649C234.706 37.6179 233.971 36.8826 233.089 35.8532C231.471 33.7943 230.736 31.8826 231.324 29.8237C231.912 27.7649 232.942 25.7061 235.295 24.0884Z" fill="#00070E"/>
<path d="M189.705 10.1176C184.705 7.32353 179.117 6 172.794 6C166.47 6 160.882 7.32353 155.882 10.1176C150.882 12.9118 146.911 16.5882 144.117 21.4412C141.323 26.2941 139.853 31.7353 139.853 37.7647C139.853 43.5 141.176 48.6471 143.676 53.353C143.823 53.6471 143.97 53.9412 144.117 54.0883C146.911 58.9412 150.882 62.6177 155.882 65.4118C160.882 68.2059 166.47 69.5294 172.794 69.5294C179.117 69.5294 184.705 68.2059 189.705 65.4118C194.705 62.7647 198.676 58.9412 201.47 54.0883C201.617 53.7941 201.764 53.5 201.911 53.353C204.411 48.7941 205.735 43.5 205.735 37.7647C205.735 31.7353 204.264 26.2941 201.47 21.4412C198.676 16.5882 194.705 12.7647 189.705 10.1176ZM163.382 30.1177C166.323 25.8529 169.705 23.5 173.676 22.9118C174.853 22.9118 177.5 24.3824 181.323 27.4706C185.147 30.4118 185.588 32.0294 185.588 33.2059C187.058 37.6177 184.705 43.6471 180.147 47.0294C174.411 51.2941 169.264 52.7647 163.97 51.2941C160.735 49.8235 159.117 46.1471 158.97 42.3235C158.97 38.5 160.441 34.3824 163.382 30.1177Z" fill="#00070E"/>
<path d="M118.824 10.1176C113.824 7.47059 108.235 6 101.912 6C95.5884 6 90.0001 7.47059 85.0001 10.1176C80.0001 12.7647 76.1766 16.5882 73.2354 21.4412C70.4413 26.2941 68.9707 31.7353 68.9707 37.7647C68.9707 43.5 70.2942 48.6471 72.7942 53.2059C72.9413 53.5 73.0884 53.7941 73.2354 54.0883C76.0295 58.9412 80.0001 62.6177 85.0001 65.4118C90.0001 68.0589 95.5884 69.5294 101.912 69.5294C108.235 69.5294 113.824 68.2059 118.824 65.4118C123.824 62.7647 127.794 58.9412 130.588 54.0883C130.735 53.7941 130.882 53.5 131.03 53.2059C133.53 48.6471 134.853 43.5 134.853 37.7647C134.853 31.7353 133.382 26.2941 130.588 21.4412C127.794 16.5882 123.824 12.9118 118.824 10.1176ZM101.912 22.9118C104.412 22.9118 106.912 23.2059 108.677 24.6765C112.941 28.5 115.588 32.1765 115.588 37.7647C115.588 41.1471 114.118 43.9412 112.206 46.4412C109.559 50.1177 106.03 53.6471 101.912 52.6177C98.2354 51.7353 95.1472 51 92.6472 48.353C90.0001 45.5588 88.3825 41.8824 88.3825 37.6177C88.2354 29.5294 94.1178 22.9118 101.912 22.9118Z" fill="#00070E"/>
<path d="M53.5294 49.3826C57.0588 47.4708 59.853 44.9708 61.6177 41.7355C63.5294 38.5002 64.4118 34.6767 64.4118 30.412C64.4118 25.8532 63.3824 21.7355 61.1765 18.3531C58.9706 14.9708 55.8824 12.1767 51.9118 10.412C47.9412 8.64726 43.2353 7.32373 37.9412 7.32373H10V68.0591H29.5588V53.2061H35.1471L44.7059 68.0591H65.5883L55.8824 53.2061C56.0294 53.2061 53.5294 49.3826 53.5294 49.3826ZM35.1471 42.4708C32.2059 43.2061 29.853 42.6179 28.0882 41.4414C27.3529 40.8532 27.0588 40.1179 26.9118 39.0885C26.7647 38.059 26.7647 36.4414 27.0588 33.3532C27.2059 29.8237 27.3529 27.6179 27.6471 26.7355C27.9412 25.8532 28.6765 25.1179 29.853 24.3826C32.0588 22.912 34.2647 22.4708 36.4706 23.059C38.6765 23.6473 41.7647 24.8237 43.3824 27.1767C45.2941 30.2649 45.2941 33.6473 43.3824 37.1767C42.6471 38.6473 42.353 39.3826 42.2059 39.8237C41.3235 41.0002 38.0882 41.7355 35.1471 42.4708Z" fill="#00070E"/>
</g>
<defs>
<filter id="filter0_d_82_108" x="0" y="0" width="270" height="83.5293" filterUnits="userSpaceOnUse" color-interpolation-filters="sRGB">
<feFlood flood-opacity="0" result="BackgroundImageFix"/>
<feColorMatrix in="SourceAlpha" type="matrix" values="0 0 0 0 0 0 0 0 0 0 0 0 0 0 0 0 0 0 127 0" result="hardAlpha"/>
<feOffset dy="4"/>
<feGaussianBlur stdDeviation="5"/>
<feComposite in2="hardAlpha" operator="out"/>
<feColorMatrix type="matrix" values="0 0 0 0 0 0 0 0 0 0 0 0 0 0 0 0 0 0 0.25 0"/>
<feBlend mode="normal" in2="BackgroundImageFix" result="effect1_dropShadow_82_108"/>
<feBlend mode="normal" in="SourceGraphic" in2="effect1_dropShadow_82_108" result="shape"/>
</filter>
</defs>
</svg>
