<svg width="60" height="18" viewBox="0 0 60 18" fill="none" xmlns="http://www.w3.org/2000/svg">
<g filter="url(#filter0_d_82_113)">
<path d="M52.1023 8.516C50.8782 8.79599 49.9186 8.59807 49.2184 8.1105C48.9442 7.90292 48.7729 7.59396 48.7092 7.1788C48.6455 6.76364 48.6798 6.12159 48.7533 4.86645C48.8022 3.41822 48.8855 2.52514 48.9981 2.18722C49.1107 1.84929 49.4045 1.53068 49.8794 1.22655C50.7803 0.642432 51.6812 0.458989 52.5821 0.676224C53.483 0.893459 54.7708 1.41965 55.3975 2.34169C56.2005 3.60166 56.2005 4.95334 55.3975 6.40158C54.8246 7.5312 53.3264 8.23118 52.1023 8.516Z" fill="black"/>
<path d="M8.38608 1.32031C9.17601 1.32031 9.99909 1.38788 10.5681 1.80291C11.9601 2.82603 12.7887 3.81054 12.7887 5.33073C12.7887 6.2332 12.2916 7.00536 11.7171 7.67618C10.8829 8.64621 9.72842 9.59693 8.3916 9.3315C7.18184 9.09503 6.21514 8.88751 5.39206 8.18774C4.53583 7.45901 4 6.44072 4 5.31143C4 3.10111 5.8616 1.32031 8.3916 1.32031H8.38608Z" fill="black"/>
<path d="M27.2408 3.33796C28.12 2.15054 29.1491 1.47477 30.323 1.32031C30.6901 1.32031 31.4503 1.74025 32.6087 2.57531C33.7619 3.41519 33.8602 3.83995 33.8964 4.19232C34.336 5.39904 33.643 7.10776 32.2881 8.03935C30.566 9.22194 29.0405 9.64188 27.4632 9.21229C26.5065 8.78269 26.01 7.80283 25.9738 6.72644C25.9376 5.65486 26.3565 4.52537 27.2408 3.33313V3.33796Z" fill="black"/>
</g>
<defs>
<filter id="filter0_d_82_113" x="0" y="0.587891" width="60" height="16.7886" filterUnits="userSpaceOnUse" color-interpolation-filters="sRGB">
<feFlood flood-opacity="0" result="BackgroundImageFix"/>
<feColorMatrix in="SourceAlpha" type="matrix" values="0 0 0 0 0 0 0 0 0 0 0 0 0 0 0 0 0 0 127 0" result="hardAlpha"/>
<feOffset dy="4"/>
<feGaussianBlur stdDeviation="2"/>
<feComposite in2="hardAlpha" operator="out"/>
<feColorMatrix type="matrix" values="0 0 0 0 0 0 0 0 0 0 0 0 0 0 0 0 0 0 0.25 0"/>
<feBlend mode="normal" in2="BackgroundImageFix" result="effect1_dropShadow_82_113"/>
<feBlend mode="normal" in="SourceGraphic" in2="effect1_dropShadow_82_113" result="shape"/>
</filter>
</defs>
</svg>
