<svg width="51" height="52" viewBox="0 0 51 52" fill="none" xmlns="http://www.w3.org/2000/svg">
<g filter="url(#filter0_d_82_106)">
<path fill-rule="evenodd" clip-rule="evenodd" d="M41.2955 10.5H13.6703L11.3099 6.26919C11.045 5.79431 10.5438 5.5 10 5.5H7C6.17157 5.5 5.5 6.17157 5.5 7C5.5 7.82843 6.17157 8.5 7 8.5H9.1192L11.4486 12.6753L16.8207 24.5618L16.8262 24.5739L17.2994 25.6208L11.9057 31.3741C11.5179 31.7878 11.3965 32.3848 11.592 32.9171C11.7874 33.4494 12.2663 33.8259 12.8297 33.8903L17.746 34.4522C23.8953 35.1549 30.1047 35.1549 36.2541 34.4522L41.1704 33.8903C41.9934 33.7962 42.5844 33.0528 42.4903 32.2297C42.3963 31.4066 41.6528 30.8156 40.8297 30.9097L35.9134 31.4716C29.9905 32.1485 24.0096 32.1485 18.0866 31.4716L16.1356 31.2486L20.0943 27.0259C20.1326 26.9851 20.1682 26.9427 20.201 26.8989L21.7067 27.0948C23.8165 27.3693 25.9492 27.4231 28.0702 27.2554C33.0172 26.8641 37.602 24.5102 40.8029 20.7181L41.9591 19.3485C41.9979 19.3025 42.0339 19.2542 42.067 19.2039L44.2217 15.9202C45.749 13.5927 44.0794 10.5 41.2955 10.5ZM20.3125 23.8881C19.9817 23.8451 19.6965 23.6349 19.5572 23.3321L19.5545 23.3262L15.1135 13.5H41.2955C41.6932 13.5 41.9317 13.9418 41.7135 14.2743L39.6083 17.4825L38.5105 18.783C35.8264 21.9628 31.9819 23.9366 27.8337 24.2647C25.9206 24.416 23.9968 24.3675 22.0938 24.1199L20.3125 23.8881Z" fill="black"/>
<path d="M16 37C14.3431 37 13 38.3431 13 40C13 41.6569 14.3431 43 16 43C17.6569 43 19 41.6569 19 40C19 38.3431 17.6569 37 16 37Z" fill="black"/>
<path d="M35 40C35 38.3431 36.3431 37 38 37C39.6569 37 41 38.3431 41 40C41 41.6569 39.6569 43 38 43C36.3431 43 35 41.6569 35 40Z" fill="black"/>
</g>
<defs>
<filter id="filter0_d_82_106" x="0.5" y="4.5" width="49.3018" height="47.5" filterUnits="userSpaceOnUse" color-interpolation-filters="sRGB">
<feFlood flood-opacity="0" result="BackgroundImageFix"/>
<feColorMatrix in="SourceAlpha" type="matrix" values="0 0 0 0 0 0 0 0 0 0 0 0 0 0 0 0 0 0 127 0" result="hardAlpha"/>
<feOffset dy="4"/>
<feGaussianBlur stdDeviation="2.5"/>
<feComposite in2="hardAlpha" operator="out"/>
<feColorMatrix type="matrix" values="0 0 0 0 0 0 0 0 0 0 0 0 0 0 0 0 0 0 0.25 0"/>
<feBlend mode="normal" in2="BackgroundImageFix" result="effect1_dropShadow_82_106"/>
<feBlend mode="normal" in="SourceGraphic" in2="effect1_dropShadow_82_106" result="shape"/>
</filter>
</defs>
</svg>
