<?xml version="1.0" encoding="UTF-8"?><svg id="_ар_2" xmlns="http://www.w3.org/2000/svg" viewBox="0 0 69.75 86.56"><defs><style>.cls-1{fill:#c90005;}</style></defs><g id="_48"><g><path class="cls-1" d="M54.21,85.59c0,.06-.62,.11-1.8,.16-1.18,.05-2.93,.1-5.2,.15-.75,.02-1.57,.03-2.43,.05-.87,.03-1.79,.06-2.76,.05-.97-.15-2,.27-3.08,.05-1.08-.07-2.21,0-3.39,.04-1.18,.05-2.41-.09-3.68,.04-1.28,.29-2.6-.32-3.97,.04-1.37,.08-2.78,.06-4.24,.04-1.46-.22-2.96,0-4.5,.04-.5-.09-1.01-.13-1.53-.15h-.39c-.15,0-.3,0-.45,0-.38,0-.77,.02-1.18,.03-.07-.39-.15-.8-.24-1.22-.02-.12-.04-.18-.06-.25l-.05-.21c-.03-.14-.07-.27-.1-.41,.13-1.66-.15-3.29-.72-4.93-.25-1.68-.35-3.42-.75-5.15-.27-1.75-.59-3.53-.78-5.36-.49-1.79-.74-3.65-.8-5.57-.52-1.85-.69-3.79-.83-5.75-.13-1.97-.77-3.9-.85-5.93-.26-2.01-.62-4.03-.87-6.09-.18-2.07-.36-4.17-.89-6.25-.36-2.1-.74-4.22-.9-6.39-.57-2.12-.76-4.31-.92-6.52-.12-.74-.21-1.5-.3-2.25-.05-.39-.09-.78-.14-1.18-.09-.68-.18-1.36-.27-2.04,.64,0,1.28,0,1.93-.01h.37l.27-.02,.54-.03c2.25,.04,4.53-.12,6.81,0,2.29,.08,4.56,.16,6.81,0,2.25-.18,4.49,.07,6.71,0,2.22,.26,4.41-.08,6.59,0,2.17-.03,4.33,.15,6.46,.01,2.13-.05,4.23-.1,6.31,.01,2.08-.4,4.13,.1,6.16,.02,2.03,.17,4.02-.02,5.99,.02,.17,0,.35-.01,.52-.01h.65c.62,0,1.23,.01,1.82,.02-.15,.93-.3,1.85-.45,2.77-.1,.62-.17,1.23-.21,1.85-.3,1.88-.4,3.76-.8,5.57-.06,1.85-.67,3.59-.78,5.37-.25,1.75-.47,3.48-.75,5.15-.54,1.64-.52,3.32-.72,4.93-.26,1.6-.27,3.2-.69,4.69-.24,1.52-.58,2.99-.66,4.45-.16,1.45-.84,2.78-.62,4.19-.12,1.36-.69,2.62-.59,3.92,.08,1.3-.38,2.48-.55,3.64-.18,1.17-.35,2.28-.51,3.35-.74,4.8-1.34,8.57-1.77,11.14-.44,2.57-.71,3.94-.79,3.92-.05,0-.03-.44,.04-1.26,.07-.83,.2-2.05,.38-3.63,.36-3.17,.93-7.8,1.67-13.65,.15-1.17,.1-2.42,.47-3.65,.18-1.26,.2-2.6,.51-3.93-.1-1.39,.33-2.76,.55-4.2,.19-1.44,.49-2.92,.59-4.46,.05-1.55,.51-3.08,.62-4.71,.4-1.58,.58-3.23,.66-4.94,.41-1.66,.44-3.41,.69-5.16,.51-1.72,.57-3.54,.72-5.37,.16-1.84,.55-3.68,.75-5.57,.1-.61,.19-1.22,.27-1.84l.06-.47,.03-.22v-.22c-.06,0-.12,0-.19,0h-.9c-1.97,.11-3.96,.16-5.99,0-2.03,.09-4.08,.02-6.16,.02-2.08,.1-4.18-.01-6.31,.01-2.13,.06-4.28-.28-6.46,.01-2.17,.04-4.37-.05-6.59,0-2.22-.04-4.45-.08-6.71,0-2.25-.29-4.53-.11-6.81,0-2.29,.08-4.56,.04-6.81,0-.32,0-.65,0-.97,.01h-.11c.15,1.16,.31,2.31,.46,3.45,.39,2.18,.49,4.39,.9,6.52,.42,2.14,.47,4.3,.88,6.39,.38,2.1,.71,4.17,.86,6.25,.29,2.06,.31,4.13,.83,6.1,.34,2,.94,3.93,.81,5.94,.37,1.94,.35,3.9,.78,5.76-.03,1.93,.51,3.75,.75,5.57,.2,1.83,.35,3.64,.72,5.37,.38,1.74,.41,3.49,.69,5.16,.4,1.66,.25,3.36,.66,4.94,.03,.26,.06,.52,.1,.78,.01,.09,.02,.18,.04,.27,.09,0,.17,0,.26,0,.23,0,.46,0,.69,0,.51,0,1.02,0,1.52,.03,1.54-.4,3.04,0,4.5,.04,1.46,.06,2.87-.26,4.24,.04,1.37-.3,2.69-.04,3.97,.04,1.27,.09,2.5-.13,3.68,.04,1.18-.21,2.31,.12,3.39,.04,1.08,.14,2.11,0,3.08,.05,.97-.05,1.9-.03,2.76,.05,.87,.02,1.68,.03,2.43,.05,2.26,.05,4.01,.1,5.2,.15,1.18,.05,1.8,.11,1.8,.16Z"/><path class="cls-1" d="M62.19,28.55c0,.11-1.37,.22-3.88,.32-.42,.01-.87,.03-1.35,.05-.48,.03-.99,.06-1.53,.05-.54-.15-1.11,.27-1.71,.05-.6-.07-1.22,0-1.88,.04-.65,.05-1.33-.09-2.04,.04-.71,.28-1.44-.32-2.2,.04-.76,.08-1.54,.06-2.35,.04-.81-.22-1.64,0-2.49,.04-.86-.26-1.73-.15-2.63,.03-.9-.36-1.82-.3-2.76,.03-.94,.01-1.9-.13-2.89,.03-.98,.02-1.98,.09-3.01,.03-1.02,.24-2.06,.23-3.12,.03-1.06,.26-2.13,.16-3.22,.02-1.09-.14-2.2,.23-3.32,.02-1.12-.02-2.26,.06-3.41,.02-1.15-.11-2.32-.23-3.5,.01-1.18,.06-2.37,.15-3.58,.01-.53,.12-1.06,.17-1.59,.16-.13,0-.27,0-.4,0h-.2l-.1-.02h-.2c-.53-.03-1.04-.05-1.52-.08-.02-.29-.05-.58-.07-.88-.04-.28-.09-.57-.12-.84-.02-.15-.04-.31-.06-.46-.03-.31-.06-.61-.09-.92-.06-.62-.14-1.23-.3-1.84-.05-.46-.13-.93-.21-1.39l-.03-.17-.05-.29-.1-.66c-.07-.44-.14-.89-.2-1.33,.61,0,1.24,.01,1.84,.04l.44,.02,.24,.02,.47,.03c.32,.02,.63,.03,.95,.04,.63,0,1.26-.01,1.88-.09,1.25-.18,2.49,.07,3.72,0,1.23,.26,2.45-.08,3.65,0,1.21-.03,2.4,.15,3.58,.01,1.18-.05,2.35-.1,3.5,.01,1.15-.4,2.29,.1,3.41,.02,1.12,.17,2.23-.03,3.32,.02,1.09-.07,2.17,.18,3.22,.02,1.06,.03,2.1-.13,3.12,.03,1.02-.2,2.02,.16,3,.03,.98,0,1.95-.01,2.89,.03,.94,.31,1.86,.05,2.76,.03,.9,.03,1.78-.18,2.63,.03,.86,.02,1.69,.16,2.49,.04,.81-.04,1.59,.45,2.35,.04,.76-.07,1.49,.32,2.2,.04,.71-.25,1.39,.03,2.04,.04,.65,.02,1.28,.03,1.88,.04,.68,.01,1.33,.03,1.95,.04-.06,.39-.12,.76-.18,1.12-.03,.18-.06,.35-.08,.52-.02,.13-.04,.25-.06,.37-.09,.49-.17,.95-.24,1.37-.15,.85-.29,1.57-.4,2.16-.23,1.17-.39,1.78-.47,1.77-.08-.01-.06-.64,.03-1.83,.05-.59,.12-1.32,.2-2.18,.04-.43,.09-.89,.14-1.38,.01-.12,.03-.25,.04-.38,0-.08,.01-.16,.02-.24,.01-.15,.03-.31,.04-.47-.15,0-.31,.01-.47,.02-.08,0-.15,0-.23,0-.14,0-.27,0-.41,0-.56,.01-1.15,.03-1.76,.04-.65,.01-1.33,.23-2.04,.04-.71,0-1.44,.17-2.2,.04-.76,.29-1.54,.05-2.35,.04-.81,.01-1.64-.08-2.49,.04-.85,.17-1.73-.08-2.63,.04-.9-.18-1.82-.13-2.76,.03-.94-.17-1.9,.04-2.89,.03-.98-.27-1.98-.08-3,.03-1.02,.1-2.06-.04-3.12,.03-1.06-.05-2.13,.07-3.22,.02-1.09,.12-2.2,.17-3.32,.02-1.12,.09-2.26,.02-3.41,.02-1.15,.11-2.32-.01-3.5,.01-1.18,.06-2.37-.28-3.58,.01-1.2,.04-2.42-.05-3.65,0-1.23-.04-2.47-.07-3.72,0-.62-.14-1.25-.17-1.88-.15-.31,.01-.63,.04-.95,.06l-.47,.04-.24,.02s-.02,.01-.03,.02c-.03,.02-.05,.04-.07,.04,0,.02,.01,.04,.01,.06,0,0,0,.02,0,.03h0v.05l.03,.17c.05,.47,.1,.93,.15,1.4,.1,.62,.19,1.23,.27,1.85,.04,.31,.08,.61,.12,.92l.06,.46v.06s.02,.02,.03,.04c.03,0,.05,0,.08,.01h.11l.2,.02,.4,.02c.53,.02,1.07,.03,1.59-.02,1.21-.12,2.4,.13,3.58,.01,1.18-.08,2.35-.13,3.5,.01,1.15,0,2.29,.26,3.41,.02,1.12-.06,2.23-.38,3.32,.02,1.09-.1,2.17,.19,3.22,.02,1.06,.29,2.1,.01,3.12,.03,1.02,.06,2.02,.16,3.01,.03,.98-.14,1.95,.08,2.89,.03,.94-.17,1.86,.22,2.76,.03,.9,.04,1.78-.03,2.63,.03,.85-.4,1.69,0,2.49,.04,.81,.06,1.59-.26,2.35,.04,.76-.3,1.49-.04,2.2,.04,.71,.09,1.39-.13,2.04,.04,.65-.21,1.28,.12,1.88,.04,.6,.14,1.17,0,1.71,.05,.54-.05,1.05-.03,1.53,.05,.48,.02,.93,.03,1.35,.05,2.51,.1,3.88,.21,3.88,.32Z"/><path class="cls-1" d="M54.21,85.59c0,.11-1.02,.22-2.88,.32-.31,.02-.65,.03-1,.05-.36,.03-.74,.06-1.14,.05-.4-.15-.82,.27-1.27,.05-.44-.07-.91,0-1.39,.04-.49,.05-.99-.09-1.52,.04-.53,.29-1.07-.32-1.63,.04-.56,.08-1.14,.06-1.75,.04-.6-.22-1.22,0-1.85,.04-.63-.26-1.29-.15-1.96,.03-.67-.36-1.35-.31-2.05,.03-.7,.01-1.42-.13-2.14,.03-.73,.02-1.47,.09-2.23,.03-.76,.24-1.53,.23-2.32,.02-.79,.26-1.58,.16-2.39,.02-.81-.15-1.63,.23-2.47,.02-.83-.02-1.68,.06-2.53,.02-.86-.11-1.72-.23-2.6,.01-.44,.03-.88,.07-1.32,.08-.22,0-.45,0-.67,0-.18,0-.36-.02-.54-.02-.21-.01-.41-.03-.61-.04-.22,.04-.46,.06-.69,.09-.09-.33-.16-.71-.23-1.09-.03-.19-.06-.39-.09-.58l-.02-.17v-.15c-.05-.4-.04-.8-.04-1.2-.17-.9-.11-1.84-.39-2.73-.01-.15-.03-.3-.06-.46-.04-.23-.07-.46-.11-.69-.09-.57-.19-1.15-.28-1.74,.6,0,1.23,0,1.84,.04,.21,.01,.48,.02,.55,.03l.35,.03c.23,.02,.47,.03,.7,.03,.47,.01,.93,0,1.4-.09,.93-.18,1.85,.07,2.76,0,.91,.26,1.82-.08,2.71,0,.9-.02,1.78,.15,2.66,.01,.88-.05,1.74-.1,2.6,.01,.86-.4,1.7,.1,2.54,.02,.83,.17,1.66-.03,2.47,.02,.81-.08,1.61,.18,2.39,.02,.79,.03,1.56-.13,2.32,.02,.76-.2,1.5,.17,2.23,.03,.73,0,1.45-.01,2.14,.03,.7,.31,1.38,.05,2.05,.03,.67,.03,1.32-.17,1.95,.04,.63,.02,1.25,.16,1.85,.04,.6-.05,1.18,.45,1.75,.04,.56-.07,1.11,.32,1.63,.04,.26-.13,.52-.12,.77-.08,.13,.02,.22,.05,.44,.07,.18,.02,.36,.04,.53,.05,.35,0,.7,.02,1.01,.02-.06,.35-.11,.68-.16,1-.13,.8-.19,1.15-.28,1.61-.08,.44-.16,.85-.23,1.23-.14,.76-.27,1.41-.38,1.94-.22,1.05-.38,1.61-.46,1.6-.09-.01-.08-.66,0-1.85,.04-.6,.1-1.33,.19-2.19,.04-.43,.09-.89,.14-1.38,.01-.12,.03-.25,.04-.37,0-.07,0-.14,.02-.21,0-.13,.02-.27,.03-.41-.12,0-.25,.01-.38,.02-.15,0-.19,.06-.5,.1-.25,.03-.51,.04-.77-.06-.53,0-1.07,.17-1.63,.04-.56,.29-1.14,.05-1.75,.04-.6,.01-1.22-.08-1.85,.04-.63,.17-1.29-.08-1.95,.03-.67-.18-1.35-.13-2.05,.03-.7-.17-1.41,.04-2.14,.03-.73-.27-1.47-.08-2.23,.03-.76,.1-1.53-.04-2.32,.03-.79-.05-1.58,.07-2.39,.02-.81,.12-1.63,.17-2.47,.02-.83,.08-1.68,.02-2.54,.02-.86,.11-1.72-.01-2.6,.01-.88,.06-1.76-.28-2.66,.01-.89,.04-1.8-.05-2.71,0-.91-.04-1.83-.08-2.76,0-.46-.15-.93-.17-1.4-.15-.23,.01-.47,.04-.7,.06l-.35,.04s-.14,.02-.13,.02c0,0-.01,.02-.02,.02-.03,.03-.04,.04-.06,.05,0,.03,0,.04,0,.06v.02h0v.08l.02,.11,.04,.46c.16,.92,.27,1.83,.38,2.74,.09,.39,.13,.79,.16,1.18l.02,.28s0,.03,0,.05c0,.03,0,.07,.01,.09,.02,0,.05-.02,.07-.03,.02-.02,.04-.02,.05-.03h.12c.22,0,.45,.02,.67,.04,.44,.03,.88,.07,1.32,0,.88-.08,1.74-.13,2.6,.01,.86,0,1.7,.26,2.53,.02,.83-.06,1.66-.38,2.47,.02,.81-.1,1.61,.19,2.39,.02,.79,.29,1.56,.01,2.32,.02,.76,.06,1.5,.16,2.23,.03,.73-.14,1.45,.08,2.14,.03,.7-.17,1.38,.22,2.05,.03,.67,.04,1.32-.02,1.96,.03,.63-.4,1.25,0,1.85,.04,.6,.06,1.18-.26,1.75,.04,.56-.3,1.11-.04,1.63,.04,.52,.09,1.03-.13,1.52,.04,.49-.21,.95,.12,1.39,.04,.45,.14,.87,0,1.27,.05,.4-.05,.78-.03,1.14,.05,.36,.02,.69,.03,1,.05,1.86,.1,2.88,.2,2.88,.31Z"/><path class="cls-1" d="M67.37,21.45c0,.11-1.73,.22-4.89,.32-.53,.02-1.09,.03-1.7,.05-.61,.03-1.25,.06-1.93,.05-.68-.15-1.4,.27-2.15,.05-.75-.06-1.54,0-2.37,.04-.82,.05-1.68-.09-2.57,.04-.89,.29-1.82-.32-2.77,.04-.96,.08-1.94,.06-2.96,.04-1.02-.22-2.06,0-3.14,.04-1.08-.26-2.18-.15-3.31,.03-1.13-.36-2.29-.3-3.48,.03-1.19,.01-2.4-.13-3.64,.03-1.24,.02-2.5,.09-3.79,.03-1.29,.24-2.6,.23-3.93,.02-1.33,.26-2.69,.16-4.06,.02-1.37-.14-2.77,.23-4.18,.02-1.41-.02-2.85,.06-4.3,.02-1.45-.11-2.92-.22-4.41,.01-.74,.03-1.49,.07-2.24,.08-.38,0-.75,0-1.13,0-.52-.02-1.05-.04-1.58-.07-.24,.02-.48,.04-.73,.06-.07-.3-.14-.62-.21-.95l-.17-.86c-.07-.34-.12-.69-.17-1.04-.09-.7-.14-1.41-.18-2.12-.28-1.52-.33-3.09-.73-4.62-.06-.48-.14-.96-.23-1.44-.07-.38-.13-.76-.2-1.14-.08-.46-.16-.92-.23-1.38,.57,0,1.16,0,1.74,0h.73c.15,.02,.31,.03,.46,.04,1.6,.08,3.19,.16,4.76,0,1.57-.18,3.13,.07,4.68,0,1.55,.26,3.08-.09,4.6,0,1.52-.02,3.02,.15,4.51,.01,1.49-.05,2.96-.1,4.41,.01,1.45-.4,2.88,.1,4.3,.02,1.41,.17,2.81-.02,4.18,.02,1.37-.07,2.73,.18,4.06,.02,1.33,.03,2.64-.13,3.93,.03,1.29-.2,2.55,.17,3.79,.03,1.24,0,2.45-.01,3.64,.03,1.19,.31,2.35,.05,3.48,.03,1.13,.03,2.24-.18,3.32,.04,1.08,.02,2.12,.16,3.14,.04,1.02-.04,2,.45,2.96,.04,.96-.07,1.88,.32,2.77,.04,.89-.26,1.74,.03,2.58,.04,.6,0,1.19,.02,1.73,.02-.1,.59-.19,1.14-.28,1.67-.3,1.67-.57,3.17-.81,4.47-.24,1.3-.45,2.4-.63,3.29-.36,1.79-.59,2.73-.67,2.72-.09-.01,0-1.1,.23-3.11,.12-1,.27-2.24,.46-3.69,.1-.72,.2-1.5,.31-2.33,.06-.41,.12-.84,.17-1.28,.03-.26,.06-.52,.1-.79-.2,0-.41,.01-.63,.02h-.3c-.1,.02-.21,.03-.31,.04-.21,.02-.42,.04-.64,.06-.43,.03-.87,.04-1.31-.06-.89,0-1.81,.17-2.77,.04-.96,.29-1.94,.05-2.96,.04-1.02,.02-2.07-.08-3.14,.04-1.08,.17-2.18-.08-3.32,.03-1.13-.18-2.29-.13-3.48,.03-1.19-.17-2.4,.04-3.64,.03-1.24-.27-2.5-.08-3.79,.03-1.29,.1-2.6-.04-3.93,.02-1.33-.05-2.68,.07-4.06,.02-1.37,.13-2.77,.17-4.18,.02-1.42,.09-2.85,.02-4.3,.02-1.45,.11-2.92-.01-4.41,.01-1.49,.06-2.99-.28-4.51,.01-1.52,.04-3.05-.05-4.6,0-1.55-.04-3.11-.08-4.68,0-1.57-.29-3.16-.11-4.76,0l-.46,.02h-.17l-.02,.02s-.04,.01-.06,.01c0,.02,0,.03,0,.05v.03s0-.01,0,.07l.03,.18c.06,.48,.13,.96,.19,1.45,.27,1.55,.5,3.1,.72,4.63,.15,.7,.24,1.4,.32,2.1,.04,.35,.08,.7,.13,1.05l.02,.18s0,.03,0,.04c0,.03,.01,.05,.02,.07,.02,0,.05-.01,.07-.02l.04-.02h.02s0-.01,.06-.01c.19,0,.38,0,.57,0,.38,0,.76,.02,1.13,.04,.75,.03,1.5,.07,2.24,0,1.49-.08,2.96-.13,4.41,.01,1.45,0,2.88,.26,4.3,.02,1.41-.05,2.81-.38,4.18,.02,1.37-.1,2.73,.19,4.06,.02,1.33,.3,2.64,.02,3.93,.03,1.29,.06,2.55,.16,3.79,.03,1.24-.14,2.45,.08,3.64,.03,1.19-.17,2.35,.22,3.48,.03,1.13,.04,2.24-.03,3.31,.04,1.08-.4,2.12,0,3.14,.04,1.02,.06,2-.26,2.96,.04,.95-.3,1.88-.04,2.77,.04,.89,.09,1.75-.13,2.57,.04,.82-.21,1.61,.12,2.37,.04,.75,.14,1.47,0,2.15,.05,.68-.05,1.32-.03,1.93,.05,.61,.02,1.17,.03,1.7,.05,3.16,.1,4.89,.21,4.89,.32Z"/><path class="cls-1" d="M35.15,34.27s-.06,.06-.17,.09c-.06,.02-.12,.03-.21,.05-.08,.03-.17,.05-.28,.08-.21,.06-.46,.16-.74,.3-.28,.15-.58,.35-.87,.63-.09,.1-.2,.19-.28,.3-.05,.06-.09,.11-.14,.17-.04,.06-.08,.12-.12,.19-.15,.26-.28,.55-.4,.86-.07,.07-.1,.15-.1,.24,0,.09,0,.18,.01,.27,.02,.09,.03,.18,.02,.27,0,.09-.02,.17-.08,.26-.02,.09-.03,.19-.03,.3,0,.11,0,.21,0,.32,.01,.22,.04,.44,.07,.66,.05,.45-.09,.92,.04,1.41,.28,.49-.32,.99,.04,1.52,.08,.52,.06,1.06,.04,1.62-.22,.56,0,1.13,.04,1.72-.26,.59-.15,1.2,.03,1.82-.36,.62-.3,1.26,.03,1.91,.01,.65-.13,1.32,.03,1.99,.02,.68,.09,1.37,.03,2.07,.24,.71,.23,1.42,.02,2.15,.26,.73,.16,1.47,.02,2.23-.14,.75,.23,1.52,.02,2.29-.02,.78,.06,1.56,.02,2.36-.11,.8-.22,1.6,.01,2.42,.06,.81,.15,1.64,.01,2.47,.14,.42,.18,.83,.16,1.25,0,.1-.01,.21-.02,.31,0,.09-.02,.19-.03,.28-.03,.16-.03,.32-.04,.49,.09,.31,.18,.62,.33,.92,.15,.29,.37,.57,.68,.72,.25,.23,.56,.37,.87,.46,.32,.09,.64,.14,.97,.2,.33,.04,.68,.02,1.01-.09,.33-.11,.63-.3,.83-.57,.2-.28,.41-.5,.61-.77,.19-.26,.36-.55,.4-.88,.09-.15,.15-.31,.15-.48,0-.04,0-.08,0-.13v-.16c-.01-.1-.02-.21-.03-.32-.04-.42-.1-.84-.06-1.25-.03-.83,.15-1.66,0-2.47-.05-.81-.1-1.62,.01-2.42-.4-.8,.1-1.58,.02-2.36,.17-.78-.03-1.54,.02-2.29-.07-.75,.18-1.5,.02-2.22,.03-.73-.13-1.45,.02-2.15-.2-.71,.17-1.4,.03-2.08,0-.68-.01-1.34,.03-1.99,.31-.65,.05-1.29,.03-1.91,.04-.62-.17-1.23,.04-1.82,.03-.59,.16-1.16,.04-1.72-.05-.56,.45-1.1,.04-1.62-.07-.52,.32-1.03,.04-1.52-.25-.49,.03-.96,.04-1.41,0-.23,.01-.45,.02-.66v-.32c.01-.1,.02-.21,.02-.3,.02-.83-.29-1.55-.67-2.08-.39-.53-.86-.88-1.28-1.1-.42-.22-.78-.31-1.02-.39-.25-.05-.38-.1-.38-.14s.17-.09,.5-.1c.33,0,.84,.06,1.44,.33,.29,.15,.62,.33,.92,.6,.31,.27,.61,.61,.85,1.03,.25,.42,.43,.92,.52,1.48,.02,.14,.03,.28,.04,.43,0,.14,0,.26,.02,.4,0,.27,.02,.54,.03,.82,.01,.45,.23,.92,.04,1.41,0,.49,.17,1,.04,1.52,.29,.52,.05,1.07,.04,1.62,.01,.56-.08,1.13,.04,1.72,.17,.59-.08,1.2,.03,1.82-.18,.62-.13,1.26,.03,1.91-.17,.65,.04,1.32,.03,1.99-.27,.68-.08,1.37,.03,2.08,.1,.7-.04,1.42,.02,2.15-.05,.73,.07,1.47,.02,2.22,.12,.75,.17,1.52,.02,2.29,.08,.77,.02,1.56,.02,2.36,.11,.8-.01,1.6,.01,2.42,.06,.81-.28,1.64,.01,2.47,.02,.42,0,.84,0,1.25v.47l-.02,.19c0,.26-.04,.52-.07,.78-.26,1.03-.85,1.93-1.62,2.67-.51,.23-.96,.45-1.45,.65-.48,.2-1,.36-1.54,.42-.54,.04-1.1-.05-1.61-.24-.51-.19-.98-.48-1.38-.84-.84-.66-1.42-1.64-1.62-2.67-.07-.25-.11-.52-.11-.78,0-.06,0-.13,0-.19v-.16l.03-.31c.03-.42,.05-.84,0-1.25-.12-.83,.13-1.66,.01-2.47-.08-.82-.13-1.62,.02-2.42,0-.8,.26-1.58,.02-2.36-.06-.77-.38-1.54,.02-2.29-.1-.75,.2-1.49,.02-2.23,.29-.73,.01-1.45,.03-2.15,.06-.7,.16-1.4,.03-2.07-.14-.68,.08-1.34,.03-1.99-.17-.65,.22-1.29,.03-1.91,.04-.62-.02-1.23,.04-1.82-.4-.59,0-1.16,.04-1.72,.06-.56-.26-1.1,.04-1.62-.3-.52-.04-1.03,.04-1.52,.09-.49-.13-.96,.04-1.41-.11-.22-.08-.45-.03-.66,.02-.11,.05-.21,.07-.32,.02-.11,.02-.21,.01-.33,.04-.11,.06-.23,.08-.34,.02-.11,.04-.22,.05-.33,.01-.11,.04-.21,.06-.32,.02-.11,.05-.21,.1-.3,.09-.41,.31-.76,.58-1.01,.06-.07,.12-.14,.17-.21,.06-.06,.12-.13,.18-.19,.12-.12,.25-.22,.37-.32,.38-.29,.75-.47,1.09-.59,.34-.11,.63-.16,.87-.18,.12,0,.22,0,.31,0,.09,0,.17,.02,.22,.03,.12,.02,.18,.05,.18,.07Z"/><path class="cls-1" d="M51.9,34.48c0,.06-.25,.06-.68,.13-.43,.07-1.07,.22-1.72,.69-.22,.16-.43,.34-.63,.57-.19,.24-.35,.51-.52,.8-.14,.11-.15,.31-.15,.49,0,.18,0,.35-.14,.51-.03,.08-.05,.19-.07,.29-.02,.1-.03,.21-.04,.32-.02,.22-.02,.44-.03,.67-.01,.45-.22,.9-.16,1.4,.21,.52-.46,.94-.18,1.51,0,.53-.1,1.06-.2,1.61-.3,.52-.16,1.12-.21,1.71-.34,.55-.32,1.16-.23,1.8-.45,.56-.48,1.2-.24,1.89-.08,.65-.32,1.28-.26,1.98-.07,.67-.11,1.37-.27,2.06,.14,.73,.02,1.44-.29,2.13,.15,.76-.06,1.48-.3,2.21-.25,.72,0,1.53-.31,2.27-.13,.77-.17,1.55-.32,2.33-.22,.77-.45,1.55-.33,2.39-.05,.81-.09,1.64-.34,2.45,.08,.43,.05,.85-.02,1.27-.02,.1-.04,.21-.07,.31l-.04,.15-.03,.12c-.04,.15-.08,.31-.11,.47,.04,.32,.08,.64,.19,.96,.11,.31,.29,.62,.57,.81,.21,.26,.5,.45,.79,.58,.3,.14,.61,.23,.93,.34,.32,.09,.68,.12,1.01,.06,.34-.06,.66-.21,.9-.45,.24-.25,.49-.44,.72-.67,.23-.23,.44-.5,.52-.81,.12-.13,.19-.29,.22-.45,0-.04,.02-.08,.02-.13l.02-.16c0-.1,.01-.21,.02-.32,.02-.42,.02-.85,.12-1.25,.09-.83,.39-1.62,.37-2.44,.07-.81,.14-1.62,.36-2.39-.28-.85,.33-1.55,.36-2.33,.28-.74,.2-1.53,.35-2.27,.04-.76,.4-1.45,.34-2.2,.14-.72,.08-1.45,.33-2.13-.09-.72,.37-1.36,.33-2.05,.1-.67,.18-1.33,.32-1.97,.4-.6,.24-1.27,.31-1.88,.12-.61,0-1.24,.3-1.79,.11-.58,.33-1.13,.28-1.7,.04-.56,.61-1.02,.27-1.6,0-.53,.46-.97,.26-1.5-.18-.52,.17-.94,.24-1.39,.08-.44,.16-.86,.23-1.26,.13-.82-.06-1.58-.37-2.15-.31-.59-.73-1-1.11-1.27-.38-.28-.72-.43-.95-.53-.23-.1-.36-.15-.36-.19,0-.04,.18-.08,.51-.03,.33,.05,.82,.17,1.37,.53,.55,.35,1.16,.96,1.53,1.87,.18,.45,.3,.98,.3,1.54,0,.14,0,.29-.02,.43-.01,.13-.03,.26-.04,.4-.03,.27-.06,.54-.09,.82-.05,.45,.1,.95-.16,1.4-.07,.48,.02,1.01-.18,1.51,.21,.56-.1,1.06-.2,1.61-.07,.55-.24,1.11-.21,1.71,.08,.61-.25,1.17-.23,1.8-.26,.59-.31,1.22-.24,1.89-.26,.62-.15,1.31-.26,1.98-.36,.63-.28,1.35-.27,2.06,0,.71-.24,1.4-.29,2.13-.16,.71-.15,1.47-.3,2.21,.01,.76-.05,1.53-.31,2.27-.03,.78-.21,1.55-.32,2.33-.01,.8-.24,1.58-.33,2.39-.06,.81-.51,1.58-.34,2.45-.04,.41-.11,.83-.18,1.24-.04,.22-.07,.44-.11,.66-.05,.26-.11,.51-.19,.76-.4,.98-1.12,1.79-1.99,2.41-.53,.15-1.01,.31-1.52,.44-.51,.13-1.04,.22-1.59,.2-.55-.04-1.08-.2-1.56-.47-.48-.26-.9-.62-1.24-1.03-.74-.77-1.18-1.82-1.22-2.88-.04-.26-.04-.53,0-.79,0-.06,.02-.13,.03-.19l.03-.16,.07-.31c.09-.41,.17-.82,.17-1.24,0-.84,.37-1.62,.37-2.44,.03-.82,.1-1.62,.36-2.39,.11-.79,.49-1.53,.36-2.33,.06-.77-.16-1.58,.35-2.27,0-.76,.41-1.45,.34-2.2,.4-.68,.22-1.43,.33-2.13,.16-.69,.36-1.36,.33-2.05-.04-.69,.27-1.32,.32-1.97-.07-.67,.4-1.24,.31-1.88,.13-.61,.15-1.22,.3-1.79-.31-.64,.17-1.15,.28-1.7,.14-.54-.1-1.12,.27-1.6-.22-.56,.11-1.02,.26-1.5,.16-.47,.01-.97,.25-1.39-.07-.24-.01-.45,.06-.66,.04-.1,.08-.21,.12-.31,.03-.1,.05-.2,.05-.32,.11-.22,.16-.43,.23-.64,.06-.21,.13-.42,.24-.59,.15-.39,.41-.71,.72-.92,.26-.25,.54-.45,.82-.6,.83-.46,1.58-.51,2.05-.48,.48,.04,.71,.15,.7,.2Z"/><path class="cls-1" d="M18.41,34.5s.22-.16,.69-.2c.46-.03,1.21,.02,2.03,.48,.27,.15,.55,.35,.81,.6,.27,.24,.54,.54,.72,.91,.03,.22,.18,.37,.3,.56,.13,.19,.24,.41,.16,.66,0,.12,0,.22,.02,.33,.01,.11,.03,.21,.05,.32,.04,.21,.1,.43,.16,.65,.11,.44,.04,.93,.24,1.39,.35,.44-.17,1.03,.26,1.5,.15,.51,.21,1.05,.27,1.6-.13,.58,.16,1.12,.28,1.7-.17,.62,.03,1.21,.3,1.79-.27,.67-.12,1.29,.31,1.88,.1,.64,.06,1.32,.32,1.97,.12,.67,.29,1.34,.33,2.05,.34,.66,.43,1.37,.33,2.13,.36,.68,.37,1.43,.34,2.2-.03,.77,.44,1.47,.35,2.27,.1,.77,.28,1.54,.36,2.33,0,.8,0,1.62,.36,2.39,.18,.8,.39,1.6,.37,2.44,.2,.39,.29,.8,.34,1.22,.01,.1,.02,.21,.03,.32v.16c0,.06,.01,.13,.01,.2,0,.27-.03,.53-.08,.79,0,.53-.17,1.04-.4,1.51-.23,.47-.52,.9-.82,1.35-.37,.38-.78,.73-1.25,1-.46,.27-1,.46-1.54,.48-.54,.04-1.08-.02-1.59-.14-.51-.12-1.01-.29-1.5-.49-.5-.2-.91-.58-1.22-1.01-.32-.43-.54-.91-.75-1.39-.03-.27-.07-.52-.11-.77l-.03-.19-.03-.16c-.02-.1-.05-.21-.07-.31-.1-.41-.22-.81-.24-1.23-.14-.82-.09-1.66-.34-2.45-.16-.8-.33-1.59-.33-2.39-.51-.73-.13-1.58-.32-2.34,.06-.79-.25-1.52-.31-2.27-.18-.73-.03-1.51-.3-2.2-.07-.73-.34-1.41-.29-2.13-.29-.67-.04-1.41-.27-2.06-.1-.67-.21-1.33-.26-1.98,.21-.69-.13-1.28-.24-1.89-.06-.62-.35-1.19-.23-1.8-.06-.59,0-1.18-.21-1.71-.12-.55,.29-1.15-.2-1.61-.15-.51,.17-1.06-.18-1.51-.32-.44-.11-.95-.16-1.4-.05-.45-.1-.89-.14-1.3-.09-1.04,.23-1.96,.67-2.61,.44-.66,.98-1.07,1.45-1.31,.47-.24,.87-.33,1.14-.35,.27-.02,.41,0,.41,.04,0,.05-.15,.11-.43,.23-.28,.12-.69,.32-1.12,.69-.43,.37-.87,.93-1.1,1.69-.12,.38-.17,.8-.14,1.24,0,.11,.02,.22,.04,.33,.02,.13,.05,.25,.07,.39,.05,.26,.09,.53,.15,.81,.08,.45,.36,.88,.24,1.39,.07,.48,.31,.96,.26,1.5,.36,.48,.21,1.05,.27,1.6,.09,.55,.08,1.13,.28,1.7,.25,.56,.09,1.2,.3,1.79-.09,.64,.05,1.26,.31,1.88-.08,.67,.23,1.3,.32,1.97-.16,.71,.12,1.37,.33,2.05,.2,.68,.17,1.41,.33,2.13,.06,.73,.28,1.45,.34,2.2,.23,.73,.39,1.48,.35,2.27,.2,.75,.24,1.54,.36,2.33,.22,.77,.22,1.59,.36,2.39,.17,.8-.04,1.66,.37,2.44,.08,.41,.13,.83,.18,1.24l.04,.31,.02,.16s.01,.08,.02,.12c.03,.16,.08,.31,.15,.46,.18,.61,.61,1.2,1.22,1.47,.21,.3,.54,.46,.88,.51,.34,.05,.7-.02,1.01-.12,.64-.18,1.23-.45,1.71-.91,.42-.5,.7-1.12,.76-1.75,0-.16-.02-.32-.03-.48-.02-.2-.03-.4-.05-.6-.03-.42-.07-.84-.19-1.24-.24-.81-.11-1.66-.35-2.45-.2-.79-.36-1.58-.33-2.39-.11-.79,.03-1.6-.32-2.33-.17-.76-.6-1.47-.31-2.27-.21-.73-.02-1.51-.3-2.21,.19-.76-.19-1.43-.29-2.13-.04-.71-.05-1.41-.27-2.06-.24-.65-.12-1.34-.26-1.98-.26-.62,.03-1.3-.24-1.89-.05-.62-.2-1.21-.23-1.8-.48-.53-.17-1.15-.21-1.71-.02-.56-.42-1.05-.19-1.61-.37-.47-.19-1.01-.18-1.51,.02-.49-.26-.93-.16-1.4-.14-.21-.14-.43-.12-.65,0-.11,.02-.22,.02-.33,0-.11,0-.22-.04-.3,.04-.19,0-.37-.08-.53-.07-.16-.16-.31-.22-.46-.2-.27-.36-.52-.52-.79-.2-.23-.41-.42-.62-.57-.65-.47-1.28-.62-1.71-.69-.43-.07-.67-.07-.68-.13Z"/><path class="cls-1" d="M47.79,1.03c0,.11-.77,.22-2.17,.32-.24,.01-.49,.03-.76,.05-.27,.03-.56,.06-.86,.05-.3-.15-.62,.27-.96,.04-.33-.07-.69,0-1.05,.04-.37,.05-.75-.09-1.14,.04-.4,.29-.81-.32-1.23,.04-.43,.08-.86,.06-1.32,.04-.45-.22-.92,0-1.4,.04-.48-.26-.97-.15-1.47,.03-.5-.36-1.02-.3-1.55,.03-.53,.01-1.07-.13-1.62,.03-.55,.02-1.11,.09-1.68,.03-.57,.24-1.16,.23-1.75,.02-.59,.26-1.2,.16-1.81,.02-.61-.14-1.23,.23-1.86,.02-.31,0-.63,0-.95,.02-.16,0-.32,.01-.48,.01h-.3c-.05-.05-.14-.09-.23-.12-.02,.04-.04,.1-.03,.17,0,.03,.02,.07,.04,.1h0v.05l.02,.08c0,.05,.02,.11,.04,.16,0,.66,.04,1.34-.15,2,.22,.7,.04,1.37-.16,2.04-.01,.69-.26,1.37-.17,2.08,0,.06-.01,.11-.02,.17v.11s0,.04,0,.05c.01,.03,.03,.04,.03,.06,.03,0,.04,0,.06,.04,0,.01,.02,.02,.03,.03h.02s.08,.02,.12,.03c.18,.02,.35,.03,.53,.04,.35,0,.7-.01,1.06-.09,.7-.18,1.39,.07,2.08,0,.69,.26,1.37-.08,2.05,0,.68-.03,1.34,.15,2,0,.66-.05,1.32-.1,1.96,.02,.65-.4,1.29,.1,1.91,.02,.63,.17,1.25-.03,1.86,.02,.61-.07,1.21,.18,1.81,.02,.59,.03,1.17-.13,1.75,.03,.57-.2,1.13,.17,1.68,.03,.55,0,1.09-.01,1.62,.03,.53,.31,1.04,.05,1.55,.03,.5,.03,1-.17,1.47,.04,.24,.01,.48,.05,.71,.07,.06,0,.12,0,.17,.01,.06,0,.13,0,.14,0,.05,0,.1-.02,.14-.05,.05-.01,.11,.02,.19,.05,.08,.04,.2,.09,.3,.12,.05-.06,.03-.23-.17-.4-.02-.06-.02-.09,0-.14,0-.02,.02-.05,.03-.07,0-.02,.01-.02,.02-.04v-.08c.05-.21,.06-.41-.09-.6-.29-.37-.03-.78-.05-1.14-.02-.37-.03-.72-.04-1.05-.12-3.02-.1-4.75,.06-4.77,.18-.02,.53,2.1,.98,5.74,.04,.36,.29,.73,.13,1.14,.02,.2,.07,.4,.12,.6l.02,.08,.02,.12c0,.08,.02,.17,.03,.25,.01,.17,.01,.34,0,.49,.16,.36,.21,.74,.23,1.06-.43-.02-.89-.09-1.28-.1-.18,0-.37,0-.55,0-.13,0-.25,0-.38-.02-.23,0-.47,0-.71,.06-.48,.17-.97-.08-1.47,.03-.5-.18-1.02-.13-1.55,.03-.53-.17-1.07,.04-1.62,.03-.55-.27-1.11-.08-1.68,.03-.57,.1-1.15-.04-1.75,.02-.59-.05-1.19,.07-1.81,.02-.61,.12-1.23,.17-1.86,.02-.63,.08-1.27,.02-1.91,.02-.65,.11-1.3-.01-1.96,.01-.66,.06-1.33-.28-2,.01-.68,.04-1.36-.05-2.05,0-.69-.04-1.38-.07-2.08,0-.35-.14-.7-.17-1.06-.15-.18,.01-.35,.04-.53,.06-.05,0-.08,.01-.14,.02l-.24,.02-.51,.04c-.46,.03-.94,.04-1.41,.05,.03-.45,.08-.9,.12-1.35l.07-.67,.02-.16v-.09l.04-.17c.03-.7,.1-1.39,.18-2.08-.03-.69,.24-1.36,.18-2.04-.07-.68,.24-1.33,.17-2v-.34c0-.2,0-.4,.01-.59,.02-.4,.04-.8,.08-1.18,.48,0,.97,.04,1.43,.09h.43c.08,.02,.16,.03,.24,.04,.16,.02,.32,.05,.48,.06,.32,.04,.64,.04,.95-.08,.63-.06,1.25-.38,1.86,.02,.61-.1,1.21,.19,1.81,.02,.59,.3,1.17,.02,1.75,.03,.57,.06,1.13,.16,1.68,.03,.55-.14,1.09,.08,1.62,.03,.53-.17,1.04,.22,1.55,.03,.5,.04,1-.03,1.47,.04,.48-.4,.95,0,1.4,.04,.45,.06,.89-.26,1.32,.04,.42-.3,.84-.04,1.23,.04,.4,.09,.78-.13,1.14,.04,.37-.21,.72,.12,1.05,.04,.34,.14,.66,0,.96,.05,.3-.05,.59-.03,.86,.05,.27,.02,.52,.03,.76,.05,1.41,.1,2.17,.2,2.17,.31Z"/></g></g></svg>